{
.appVersion = "1045";
customParameters = (
{
name = glyphOrder;
value = (
dvA,
dvAA,
dvmAA,
dvI,
dvII,
dvU,
dvUU,
dvvR,
dvvRR,
dvvL,
dvEcandra,
dvE,
dvAI,
dvmE,
dvOcandra,
dvO,
dvAU,
dvmAI,
dvmI,
dvmII,
dvmOcandra,
dvmEcandra,
dvmO,
dvmAU,
dvKA,
dvKHA,
dvGA,
dvGHA,
dvNGA,
dvCA,
dvCHA,
dvJA,
dvJHA,
dvNYA,
dvTTA,
dvTTHA,
dvDDA,
dvDDHA,
dvNNA,
dvTA,
dvTHA,
dvDA,
dvDHA,
dvNA,
dvPA,
dvPHA,
dvBA,
dvBHA,
dvMA,
dvYA,
dvRA,
dvLA,
dvLLA,
dvNukta,
dvVA,
dvSHA,
dvSSA,
dvSA,
dvHA,
dvKxA,
dvKHxA,
dvGxA,
dvJxA,
dvDDxA,
dvDDHxA,
dvPHxA,
danda,
doubledanda,
space,
CR,
.notdef,
dvVisarga,
dvmU,
dvmUU,
dvmvR,
dvCandrabindu,
dvAnusvara,
dvVirama,
dvK_SSA,
dvJ_NYA,
dvReph,
dvK,
dvKH,
dvG,
dvGH,
dvC,
dvCH,
dvJ,
dvJH,
dvNY,
dvNN,
dvT,
dvTH,
dvDH,
dvN,
dvP,
dvPH,
dvB,
dvBH,
dvM,
dvY,
dvL,
dvLL,
dvV,
dvSH,
dvSS,
dvS,
dvJ_NY,
dvK_R,
dvKH_R,
dvK_RA,
dvKH_RA,
dvG_RA,
dvGH_RA,
dvNG_RA,
dvRashtrasign,
dvC_RA,
dvCH_RA,
dvJ_RA,
dvJH_RA,
dvNY_RA,
dvTT_RA,
dvTTH_RA,
dvDD_RA,
dvDDH_RA,
dvNN_RA,
dvT_RA,
dvTH_RA,
dvD_RA,
dvDH_RA,
dvP_RA,
dvPH_RA,
dvB_RA,
dvBH_RA,
dvM_RA,
dvY_RA,
dvV_RA,
dvK_TA,
dvTT_TTA,
dvTT_TTHA,
dvTT_VA,
dvTTH_TTHA,
dvDD_DDA,
dvDD_DDHA,
dvDD_VA,
dvDDH_DDHA,
dvT_TA,
dvD_VA,
dvD_YA,
dvP_TA,
dvP_TTA,
dvP_TTHA,
dvSH_VA,
dvSH_RA,
dvSS_TTA,
dvSS_TTHA,
dvSS_TT_VA,
dvS_RA,
dvS_T_RA,
dvH_MA,
dvH_YA,
dvH_RA,
dvH_VA,
dvHA_mvR,
dvG_R,
dvGH_R,
dvC_R,
dvJ_R,
dvJH_R,
dvNY_R,
dvNN_R,
dvT_R,
dvTH_R,
dvDH_R,
dvP_R,
dvPH_R,
dvB_R,
dvBH_R,
dvM_R,
dvY_R,
dvV_R,
dvSH_NA,
dvS_NA,
dvH_NA,
dvDA_mvR,
dvSH_CA,
dvSHA_mvR,
dvTT_YA,
dvTTH_YA,
dvDD_YA,
dvDDH_YA,
dvKx,
dvKHx,
dvGx,
dvJx,
dvPHx,
dvK_SS,
dvD_MA,
dvII_Anusvara,
dvK_KA,
dvK_KHA,
dvK_SA,
dvK_YA,
dvK_VA,
dvC_CA,
dvT_KA,
dvT_PA,
dvT_SA,
dvS_YA,
dvS_TTA,
dvT_K_YA,
dvT_K_RA,
dvT_K_VA,
dvT_K_SSA,
dvT_P_RA,
dvT_S_YA,
dvT_VA,
dvT_KHA,
dvT_THA,
dvT_PHA,
dvT_MA,
dvT_YA,
dvT_LA,
dvTH_YA,
dvTH_VA,
dvK_CA,
dvK_JA,
dvK_TTA,
dvK_NNA,
dvK_THA,
dvK_DA,
dvK_PA,
dvK_PHA,
dvK_MA,
dvK_LA,
dvKH_KHA,
dvKH_TA,
dvKH_MA,
dvKH_YA,
dvKH_VA,
dvKH_SHA,
dvG_GA,
dvG_GHA,
dvG_JA,

glyphs = (
{
glyphname = danda;
lastChange = "2017-08-08 23:18:27 +0000";
layers = (
{
layerId = "C0ED9D5D-A651-429A-8F5D-D93A2EDA2DC0";
paths = (
{
closed = 1;
nodes = (
"150 741 LINE",
"150 0 LINE",
"215 0 LINE",
"215 741 LINE"
);
}
);
width = 235;
},
{
layerId = "22D14058-393A-410A-BECB-F56B411A01B2";
paths = (
{
closed = 1;
nodes = (
"140 740 LINE",
"140 0 LINE",
"304 0 LINE",
"304 740 LINE"
);
}
);
width = 334;
},
{
layerId = "3C02C8EC-C43C-4762-8B99-FE4CB64E6532";
paths = (
{
closed = 1;
nodes = (
"215.329 741 LINE",
"84.671 0 LINE",
"149.671 0 LINE",
"280.329 741 LINE"
);
}
);
width = 235;
},
{
layerId = "AD4288EF-621A-4539-AF14-1A70F42B46A9";
paths = (
{
closed = 1;
nodes = (
"205.241 740 LINE",
"74.759 0 LINE",
"238.759 0 LINE",
"369.241 740 LINE"
);
}
);
width = 334;
}
);
unicode = 0964;
},
{
glyphname = doubledanda;
lastChange = "2017-08-08 23:18:27 +0000";
layers = (
{
layerId = "C0ED9D5D-A651-429A-8F5D-D93A2EDA2DC0";
paths = (
{
closed = 1;
nodes = (
"150 741 LINE",
"150 0 LINE",
"215 0 LINE",
"215 741 LINE"
);
},
{
closed = 1;
nodes = (
"346 741 LINE",
"346 0 LINE",
"411 0 LINE",
"411 741 LINE"
);
}
);
width = 431;
},
{
layerId = "22D14058-393A-410A-BECB-F56B411A01B2";
paths = (
{
closed = 1;
nodes = (
"140 740 LINE",
"140 0 LINE",
"304 0 LINE",
"304 740 LINE"
);
},
{
closed = 1;
nodes = (
"415 740 LINE",
"415 0 LINE",
"579 0 LINE",
"579 740 LINE"
);
}
);
width = 609;
},
{
layerId = "3C02C8EC-C43C-4762-8B99-FE4CB64E6532";
paths = (
{
closed = 1;
nodes = (
"215.329 741 LINE",
"84.671 0 LINE",
"149.671 0 LINE",
"280.329 741 LINE"
);
},
{
closed = 1;
nodes = (
"411.329 741 LINE",
"280.671 0 LINE",
"345.671 0 LINE",
"476.329 741 LINE"
);
}
);
width = 431;
},
{
layerId = "AD4288EF-621A-4539-AF14-1A70F42B46A9";
paths = (
{
closed = 1;
nodes = (
"205.241 740 LINE",
"74.759 0 LINE",
"238.759 0 LINE",
"369.241 740 LINE"
);
},
{
closed = 1;
nodes = (
"480.241 740 LINE",
"349.759 0 LINE",
"513.759 0 LINE",
"644.241 740 LINE"
);
}
);
width = 609;
}
);
unicode = 0965;
},
{
glyphname = .notdef;
lastChange = "2017-08-08 23:18:27 +0000";
layers = (
{
layerId = "C0ED9D5D-A651-429A-8F5D-D93A2EDA2DC0";
paths = (
{
closed = 1;
nodes = (
"180 0 LINE",
"570 0 LINE",
"570 701 LINE",
"180 701 LINE"
);
},
{
closed = 1;
nodes = (
"234 651 LINE",
"516 651 LINE",
"516 50 LINE",
"234 50 LINE"
);
}
);
width = 750;
},
{
layerId = "22D14058-393A-410A-BECB-F56B411A01B2";
paths = (
{
closed = 1;
nodes = (
"160 0 LINE",
"596 0 LINE",
"596 701 LINE",
"160 701 LINE"
);
},
{
closed = 1;
nodes = (
"241 625 LINE",
"516 625 LINE",
"516 76 LINE",
"241 76 LINE"
);
}
);
width = 756;
},
{
layerId = "3C02C8EC-C43C-4762-8B99-FE4CB64E6532";
paths = (
{
closed = 1;
nodes = (
"118.197 0 LINE",
"508.197 0 LINE",
"631.803 701 LINE",
"241.803 701 LINE"
);
},
{
closed = 1;
nodes = (
"286.986 651 LINE",
"568.986 651 LINE",
"463.014 50 LINE",
"181.014 50 LINE"
);
}
);
width = 750;
},
{
layerId = "AD4288EF-621A-4539-AF14-1A70F42B46A9";
paths = (
{
closed = 1;
nodes = (
"98.197 0 LINE",
"534.197 0 LINE",
"657.803 701 LINE",
"221.803 701 LINE"
);
},
{
closed = 1;
nodes = (
"289.402 625 LINE",
"564.402 625 LINE",
"467.598 76 LINE",
"192.598 76 LINE"
);
}
);
width = 756;
}
);
},
{
glyphname = dottedcircle;
lastChange = "2017-08-08 23:18:27 +0000";
layers = (
{
layerId = "C0ED9D5D-A651-429A-8F5D-D93A2EDA2DC0";
paths = (
{
closed = 1;
nodes = (
"139 517 CURVE SMOOTH",
"139 491 OFFCURVE",
"157 472 OFFCURVE",
"183 472 CURVE SMOOTH",
"209 472 OFFCURVE",
"227 491 OFFCURVE",
"227 517 CURVE SMOOTH",
"227 542 OFFCURVE",
"209 561 OFFCURVE",
"183 561 CURVE SMOOTH",
"157 561 OFFCURVE",
"139 542 OFFCURVE"
);
},
{
closed = 1;
nodes = (
"57 407 CURVE SMOOTH",
"57 382 OFFCURVE",
"77 363 OFFCURVE",
"103 363 CURVE SMOOTH",
"127 363 OFFCURVE",
"147 382 OFFCURVE",
"147 407 CURVE SMOOTH",
"147 432 OFFCURVE",
"127 451 OFFCURVE",
"103 451 CURVE SMOOTH",
"77 451 OFFCURVE",
"57 432 OFFCURVE"
);
},
{
closed = 1;
nodes = (
"44 281 CURVE SMOOTH",
"44 256 OFFCURVE",
"63 238 OFFCURVE",
"88 238 CURVE SMOOTH",
"114 238 OFFCURVE",
"132 256 OFFCURVE",
"132 281 CURVE SMOOTH",
"132 307 OFFCURVE",
"114 326 OFFCURVE",
"88 326 CURVE SMOOTH",
"63 326 OFFCURVE",
"44 307 OFFCURVE"
);
},
{
closed = 1;
nodes = (
"96 165 CURVE SMOOTH",
"96 139 OFFCURVE",
"114 121 OFFCURVE",
"140 121 CURVE SMOOTH",
"165 121 OFFCURVE",
"184 139 OFFCURVE",
"184 165 CURVE SMOOTH",
"184 190 OFFCURVE",
"165 209 OFFCURVE",
"140 209 CURVE SMOOTH",
"114 209 OFFCURVE",
"96 190 OFFCURVE"
);
},
{
closed = 1;
nodes = (
"197 90 CURVE SMOOTH",
"197 64 OFFCURVE",
"216 44 OFFCURVE",
"242 44 CURVE SMOOTH",
"267 44 OFFCURVE",
"286 64 OFFCURVE",
"286 90 CURVE SMOOTH",
"286 114 OFFCURVE",
"267 134 OFFCURVE",
"242 134 CURVE SMOOTH",
"216 134 OFFCURVE",
"197 114 OFFCURVE"
);
},
{
closed = 1;
nodes = (
"324 74 CURVE SMOOTH",
"324 48 OFFCURVE",
"342 30 OFFCURVE",
"368 30 CURVE SMOOTH",
"394 30 OFFCURVE",
"413 48 OFFCURVE",
"413 74 CURVE SMOOTH",
"413 100 OFFCURVE",
"394 118 OFFCURVE",
"368 118 CURVE SMOOTH",
"342 118 OFFCURVE",
"324 100 OFFCURVE"
);
},
{
closed = 1;
nodes = (
"445 127 CURVE SMOOTH",
"445 101 OFFCURVE",
"464 83 OFFCURVE",
"489 83 CURVE SMOOTH",
"514 83 OFFCURVE",
"534 101 OFFCURVE",
"534 127 CURVE SMOOTH",
"534 152 OFFCURVE",
"514 171 OFFCURVE",
"489 171 CURVE SMOOTH",
"464 171 OFFCURVE",
"445 152 OFFCURVE"
);
},
{
closed = 1;
nodes = (
"518 225 CURVE SMOOTH",
"518 200 OFFCURVE",
"537 181 OFFCURVE",
"563 181 CURVE SMOOTH",
"587 181 OFFCURVE",
"606 200 OFFCURVE",
"606 225 CURVE SMOOTH",
"606 251 OFFCURVE",
"587 270 OFFCURVE",
"563 270 CURVE SMOOTH",
"537 270 OFFCURVE",
"518 251 OFFCURVE"
);
},
{
closed = 1;
nodes = (
"528 359 CURVE SMOOTH",
"528 333 OFFCURVE",
"546 315 OFFCURVE",
"572 315 CURVE SMOOTH",
"597 315 OFFCURVE",
"616 333 OFFCURVE",
"616 359 CURVE SMOOTH",
"616 385 OFFCURVE",
"597 403 OFFCURVE",
"572 403 CURVE SMOOTH",
"546 403 OFFCURVE",
"528 385 OFFCURVE"
);
},
{
closed = 1;
nodes = (
"478 477 CURVE SMOOTH",
"478 452 OFFCURVE",
"497 433 OFFCURVE",
"522 433 CURVE SMOOTH",
"548 433 OFFCURVE",
"566 452 OFFCURVE",
"566 477 CURVE SMOOTH",
"566 503 OFFCURVE",
"548 522 OFFCURVE",
"522 522 CURVE SMOOTH",
"497 522 OFFCURVE",
"478 503 OFFCURVE"
);
},
{
closed = 1;
nodes = (
"383 545 CURVE SMOOTH",
"383 521 OFFCURVE",
"402 501 OFFCURVE",
"428 501 CURVE SMOOTH",
"453 501 OFFCURVE",
"471 521 OFFCURVE",
"471 545 CURVE SMOOTH",
"471 571 OFFCURVE",
"453 590 OFFCURVE",
"428 590 CURVE SMOOTH",
"402 590 OFFCURVE",
"383 571 OFFCURVE"
);
},
{
closed = 1;
nodes = (
"257 560 CURVE SMOOTH",
"257 534 OFFCURVE",
"275 516 OFFCURVE",
"301 516 CURVE SMOOTH",
"327 516 OFFCURVE",
"345 534 OFFCURVE",
"345 560 CURVE SMOOTH",
"345 586 OFFCURVE",
"327 604 OFFCURVE",
"301 604 CURVE SMOOTH",
"275 604 OFFCURVE",
"257 586 OFFCURVE"
);
}
);
width = 660;
},
{
layerId = "22D14058-393A-410A-BECB-F56B411A01B2";
paths = (
{
closed = 1;
nodes = (
"139 517 CURVE SMOOTH",
"139 491 OFFCURVE",
"157 472 OFFCURVE",
"183 472 CURVE SMOOTH",
"209 472 OFFCURVE",
"227 491 OFFCURVE",
"227 517 CURVE SMOOTH",
"227 542 OFFCURVE",
"209 561 OFFCURVE",
"183 561 CURVE SMOOTH",
"157 561 OFFCURVE",
"139 542 OFFCURVE"
);
},
{
closed = 1;
nodes = (
"57 407 CURVE SMOOTH",
"57 382 OFFCURVE",
"77 363 OFFCURVE",
"103 363 CURVE SMOOTH",
"127 363 OFFCURVE",
"147 382 OFFCURVE",
"147 407 CURVE SMOOTH",
"147 432 OFFCURVE",
"127 451 OFFCURVE",
"103 451 CURVE SMOOTH",
"77 451 OFFCURVE",
"57 432 OFFCURVE"
);
},
{
closed = 1;
nodes = (
"44 281 CURVE SMOOTH",
"44 256 OFFCURVE",
"63 238 OFFCURVE",
"88 238 CURVE SMOOTH",
"114 238 OFFCURVE",
"132 256 OFFCURVE",
"132 281 CURVE SMOOTH",
"132 307 OFFCURVE",
"114 326 OFFCURVE",
"88 326 CURVE SMOOTH",
"63 326 OFFCURVE",
"44 307 OFFCURVE"
);
},
{
closed = 1;
nodes = (
"96 165 CURVE SMOOTH",
"96 139 OFFCURVE",
"114 121 OFFCURVE",
"140 121 CURVE SMOOTH",
"165 121 OFFCURVE",
"184 139 OFFCURVE",
"184 165 CURVE SMOOTH",
"184 190 OFFCURVE",
"165 209 OFFCURVE",
"140 209 CURVE SMOOTH",
"114 209 OFFCURVE",
"96 190 OFFCURVE"
);
},
{
closed = 1;
nodes = (
"197 90 CURVE SMOOTH",
"197 64 OFFCURVE",
"216 44 OFFCURVE",
"242 44 CURVE SMOOTH",
"267 44 OFFCURVE",
"286 64 OFFCURVE",
"286 90 CURVE SMOOTH",
"286 114 OFFCURVE",
"267 134 OFFCURVE",
"242 134 CURVE SMOOTH",
"216 134 OFFCURVE",
"197 114 OFFCURVE"
);
},
{
closed = 1;
nodes = (
"324 74 CURVE SMOOTH",
"324 48 OFFCURVE",
"342 30 OFFCURVE",
"368 30 CURVE SMOOTH",
"394 30 OFFCURVE",
"413 48 OFFCURVE",
"413 74 CURVE SMOOTH",
"413 100 OFFCURVE",
"394 118 OFFCURVE",
"368 118 CURVE SMOOTH",
"342 118 OFFCURVE",
"324 100 OFFCURVE"
);
},
{
closed = 1;
nodes = (
"445 127 CURVE SMOOTH",
"445 101 OFFCURVE",
"464 83 OFFCURVE",
"489 83 CURVE SMOOTH",
"514 83 OFFCURVE",
"534 101 OFFCURVE",
"534 127 CURVE SMOOTH",
"534 152 OFFCURVE",
"514 171 OFFCURVE",
"489 171 CURVE SMOOTH",
"464 171 OFFCURVE",
"445 152 OFFCURVE"
);
},
{
closed = 1;
nodes = (
"518 225 CURVE SMOOTH",
"518 200 OFFCURVE",
"537 181 OFFCURVE",
"563 181 CURVE SMOOTH",
"587 181 OFFCURVE",
"606 200 OFFCURVE",
"606 225 CURVE SMOOTH",
"606 251 OFFCURVE",
"587 270 OFFCURVE",
"563 270 CURVE SMOOTH",
"537 270 OFFCURVE",
"518 251 OFFCURVE"
);
},
{
closed = 1;
nodes = (
"528 359 CURVE SMOOTH",
"528 333 OFFCURVE",
"546 315 OFFCURVE",
"572 315 CURVE SMOOTH",
"597 315 OFFCURVE",
"616 333 OFFCURVE",
"616 359 CURVE SMOOTH",
"616 385 OFFCURVE",
"597 403 OFFCURVE",
"572 403 CURVE SMOOTH",
"546 403 OFFCURVE",
"528 385 OFFCURVE"
);
},
{
closed = 1;
nodes = (
"478 477 CURVE SMOOTH",
"478 452 OFFCURVE",
"497 433 OFFCURVE",
"522 433 CURVE SMOOTH",
"548 433 OFFCURVE",
"566 452 OFFCURVE",
"566 477 CURVE SMOOTH",
"566 503 OFFCURVE",
"548 522 OFFCURVE",
"522 522 CURVE SMOOTH",
"497 522 OFFCURVE",
"478 503 OFFCURVE"
);
},
{
closed = 1;
nodes = (
"383 545 CURVE SMOOTH",
"383 521 OFFCURVE",
"402 501 OFFCURVE",
"428 501 CURVE SMOOTH",
"453 501 OFFCURVE",
"471 521 OFFCURVE",
"471 545 CURVE SMOOTH",
"471 571 OFFCURVE",
"453 590 OFFCURVE",
"428 590 CURVE SMOOTH",
"402 590 OFFCURVE",
"383 571 OFFCURVE"
);
},
{
closed = 1;
nodes = (
"257 560 CURVE SMOOTH",
"257 534 OFFCURVE",
"275 516 OFFCURVE",
"301 516 CURVE SMOOTH",
"327 516 OFFCURVE",
"345 534 OFFCURVE",
"345 560 CURVE SMOOTH",
"345 586 OFFCURVE",
"327 604 OFFCURVE",
"301 604 CURVE SMOOTH",
"275 604 OFFCURVE",
"257 586 OFFCURVE"
);
}
);
width = 660;
},
{
layerId = "3C02C8EC-C43C-4762-8B99-FE4CB64E6532";
paths = (
{
closed = 1;
nodes = (
"174.265 517 CURVE SMOOTH",
"169.681 491 OFFCURVE",
"184.331 472 OFFCURVE",
"210.331 472 CURVE SMOOTH",
"236.331 472 OFFCURVE",
"257.681 491 OFFCURVE",
"262.265 517 CURVE SMOOTH",
"266.674 542 OFFCURVE",
"252.024 561 OFFCURVE",
"226.024 561 CURVE SMOOTH",
"200.024 561 OFFCURVE",
"178.674 542 OFFCURVE"
);
},
{
closed = 1;
nodes = (
"72.869 407 CURVE SMOOTH",
"68.461 382 OFFCURVE",
"85.111 363 OFFCURVE",
"111.111 363 CURVE SMOOTH",
"135.111 363 OFFCURVE",
"158.461 382 OFFCURVE",
"162.869 407 CURVE SMOOTH",
"167.278 432 OFFCURVE",
"150.628 451 OFFCURVE",
"126.628 451 CURVE SMOOTH",
"100.628 451 OFFCURVE",
"77.278 432 OFFCURVE"
);
},
{
closed = 1;
nodes = (
"37.652 281 CURVE SMOOTH",
"33.244 256 OFFCURVE",
"49.07 238 OFFCURVE",
"74.07 238 CURVE SMOOTH",
"100.07 238 OFFCURVE",
"121.244 256 OFFCURVE",
"125.652 281 CURVE SMOOTH",
"130.237 307 OFFCURVE",
"115.587 326 OFFCURVE",
"89.587 326 CURVE SMOOTH",
"64.587 326 OFFCURVE",
"42.237 307 OFFCURVE"
);
},
{
closed = 1;
nodes = (
"69.198 165 CURVE SMOOTH",
"64.614 139 OFFCURVE",
"79.44 121 OFFCURVE",
"105.44 121 CURVE SMOOTH",
"130.44 121 OFFCURVE",
"152.614 139 OFFCURVE",
"157.198 165 CURVE SMOOTH",
"161.606 190 OFFCURVE",
"145.957 209 OFFCURVE",
"120.957 209 CURVE SMOOTH",
"94.957 209 OFFCURVE",
"73.606 190 OFFCURVE"
);
},
{
closed = 1;
nodes = (
"156.974 90 CURVE SMOOTH",
"152.389 64 OFFCURVE",
"167.863 44 OFFCURVE",
"193.863 44 CURVE SMOOTH",
"218.863 44 OFFCURVE",
"241.389 64 OFFCURVE",
"245.974 90 CURVE SMOOTH",
"250.206 114 OFFCURVE",
"234.732 134 OFFCURVE",
"209.732 134 CURVE SMOOTH",
"183.732 134 OFFCURVE",
"161.206 114 OFFCURVE"
);
},
{
closed = 1;
nodes = (
"281.153 74 CURVE SMOOTH",
"276.568 48 OFFCURVE",
"291.394 30 OFFCURVE",
"317.394 30 CURVE SMOOTH",
"343.394 30 OFFCURVE",
"365.568 48 OFFCURVE",
"370.153 74 CURVE SMOOTH",
"374.737 100 OFFCURVE",
"358.911 118 OFFCURVE",
"332.911 118 CURVE SMOOTH",
"306.911 118 OFFCURVE",
"285.737 100 OFFCURVE"
);
},
{
closed = 1;
nodes = (
"411.498 127 CURVE SMOOTH",
"406.913 101 OFFCURVE",
"422.739 83 OFFCURVE",
"447.739 83 CURVE SMOOTH",
"472.739 83 OFFCURVE",
"495.913 101 OFFCURVE",
"500.498 127 CURVE SMOOTH",
"504.906 152 OFFCURVE",
"488.256 171 OFFCURVE",
"463.256 171 CURVE SMOOTH",
"438.256 171 OFFCURVE",
"415.906 152 OFFCURVE"
);
},
{
closed = 1;
nodes = (
"501.778 225 CURVE SMOOTH",
"497.37 200 OFFCURVE",
"513.02 181 OFFCURVE",
"539.02 181 CURVE SMOOTH",
"563.02 181 OFFCURVE",
"585.37 200 OFFCURVE",
"589.778 225 CURVE SMOOTH",
"594.362 251 OFFCURVE",
"578.713 270 OFFCURVE",
"554.713 270 CURVE SMOOTH",
"528.713 270 OFFCURVE",
"506.362 251 OFFCURVE"
);
},
{
closed = 1;
nodes = (
"535.406 359 CURVE SMOOTH",
"530.821 333 OFFCURVE",
"545.647 315 OFFCURVE",
"571.647 315 CURVE SMOOTH",
"596.647 315 OFFCURVE",
"618.821 333 OFFCURVE",
"623.406 359 CURVE SMOOTH",
"627.99 385 OFFCURVE",
"612.164 403 OFFCURVE",
"587.164 403 CURVE SMOOTH",
"561.164 403 OFFCURVE",
"539.99 385 OFFCURVE"
);
},
{
closed = 1;
nodes = (
"506.212 477 CURVE SMOOTH",
"501.804 452 OFFCURVE",
"517.454 433 OFFCURVE",
"542.454 433 CURVE SMOOTH",
"568.454 433 OFFCURVE",
"589.804 452 OFFCURVE",
"594.212 477 CURVE SMOOTH",
"598.797 503 OFFCURVE",
"584.147 522 OFFCURVE",
"558.147 522 CURVE SMOOTH",
"533.147 522 OFFCURVE",
"510.797 503 OFFCURVE"
);
},
{
closed = 1;
nodes = (
"423.203 545 CURVE SMOOTH",
"418.971 521 OFFCURVE",
"434.444 501 OFFCURVE",
"460.444 501 CURVE SMOOTH",
"485.444 501 OFFCURVE",
"506.971 521 OFFCURVE",
"511.203 545 CURVE SMOOTH",
"515.787 571 OFFCURVE",
"501.137 590 OFFCURVE",
"476.137 590 CURVE SMOOTH",
"450.137 590 OFFCURVE",
"427.787 571 OFFCURVE"
);
},
{
closed = 1;
nodes = (
"299.847 560 CURVE SMOOTH",
"295.263 534 OFFCURVE",
"310.089 516 OFFCURVE",
"336.089 516 CURVE SMOOTH",
"362.089 516 OFFCURVE",
"383.263 534 OFFCURVE",
"387.847 560 CURVE SMOOTH",
"392.432 586 OFFCURVE",
"377.606 604 OFFCURVE",
"351.606 604 CURVE SMOOTH",
"325.606 604 OFFCURVE",
"304.432 586 OFFCURVE"
);
}
);
width = 660;
},
{
layerId = "AD4288EF-621A-4539-AF14-1A70F42B46A9";
paths = (
{
closed = 1;
nodes = (
"174.265 517 CURVE SMOOTH",
"169.681 491 OFFCURVE",
"184.331 472 OFFCURVE",
"210.331 472 CURVE SMOOTH",
"236.331 472 OFFCURVE",
"257.681 491 OFFCURVE",
"262.265 517 CURVE SMOOTH",
"266.674 542 OFFCURVE",
"252.024 561 OFFCURVE",
"226.024 561 CURVE SMOOTH",
"200.024 561 OFFCURVE",
"178.674 542 OFFCURVE"
);
},
{
closed = 1;
nodes = (
"72.869 407 CURVE SMOOTH",
"68.461 382 OFFCURVE",
"85.111 363 OFFCURVE",
"111.111 363 CURVE SMOOTH",
"135.111 363 OFFCURVE",
"158.461 382 OFFCURVE",
"162.869 407 CURVE SMOOTH",
"167.278 432 OFFCURVE",
"150.628 451 OFFCURVE",
"126.628 451 CURVE SMOOTH",
"100.628 451 OFFCURVE",
"77.278 432 OFFCURVE"
);
},
{
closed = 1;
nodes = (
"37.652 281 CURVE SMOOTH",
"33.244 256 OFFCURVE",
"49.07 238 OFFCURVE",
"74.07 238 CURVE SMOOTH",
"100.07 238 OFFCURVE",
"121.244 256 OFFCURVE",
"125.652 281 CURVE SMOOTH",
"130.237 307 OFFCURVE",
"115.587 326 OFFCURVE",
"89.587 326 CURVE SMOOTH",
"64.587 326 OFFCURVE",
"42.237 307 OFFCURVE"
);
},
{
closed = 1;
nodes = (
"69.198 165 CURVE SMOOTH",
"64.614 139 OFFCURVE",
"79.44 121 OFFCURVE",
"105.44 121 CURVE SMOOTH",
"130.44 121 OFFCURVE",
"152.614 139 OFFCURVE",
"157.198 165 CURVE SMOOTH",
"161.606 190 OFFCURVE",
"145.957 209 OFFCURVE",
"120.957 209 CURVE SMOOTH",
"94.957 209 OFFCURVE",
"73.606 190 OFFCURVE"
);
},
{
closed = 1;
nodes = (
"156.974 90 CURVE SMOOTH",
"152.389 64 OFFCURVE",
"167.863 44 OFFCURVE",
"193.863 44 CURVE SMOOTH",
"218.863 44 OFFCURVE",
"241.389 64 OFFCURVE",
"245.974 90 CURVE SMOOTH",
"250.206 114 OFFCURVE",
"234.732 134 OFFCURVE",
"209.732 134 CURVE SMOOTH",
"183.732 134 OFFCURVE",
"161.206 114 OFFCURVE"
);
},
{
closed = 1;
nodes = (
"281.153 74 CURVE SMOOTH",
"276.568 48 OFFCURVE",
"291.394 30 OFFCURVE",
"317.394 30 CURVE SMOOTH",
"343.394 30 OFFCURVE",
"365.568 48 OFFCURVE",
"370.153 74 CURVE SMOOTH",
"374.737 100 OFFCURVE",
"358.911 118 OFFCURVE",
"332.911 118 CURVE SMOOTH",
"306.911 118 OFFCURVE",
"285.737 100 OFFCURVE"
);
},
{
closed = 1;
nodes = (
"411.498 127 CURVE SMOOTH",
"406.913 101 OFFCURVE",
"422.739 83 OFFCURVE",
"447.739 83 CURVE SMOOTH",
"472.739 83 OFFCURVE",
"495.913 101 OFFCURVE",
"500.498 127 CURVE SMOOTH",
"504.906 152 OFFCURVE",
"488.256 171 OFFCURVE",
"463.256 171 CURVE SMOOTH",
"438.256 171 OFFCURVE",
"415.906 152 OFFCURVE"
);
},
{
closed = 1;
nodes = (
"501.778 225 CURVE SMOOTH",
"497.37 200 OFFCURVE",
"513.02 181 OFFCURVE",
"539.02 181 CURVE SMOOTH",
"563.02 181 OFFCURVE",
"585.37 200 OFFCURVE",
"589.778 225 CURVE SMOOTH",
"594.362 251 OFFCURVE",
"578.713 270 OFFCURVE",
"554.713 270 CURVE SMOOTH",
"528.713 270 OFFCURVE",
"506.362 251 OFFCURVE"
);
},
{
closed = 1;
nodes = (
"535.406 359 CURVE SMOOTH",
"530.821 333 OFFCURVE",
"545.647 315 OFFCURVE",
"571.647 315 CURVE SMOOTH",
"596.647 315 OFFCURVE",
"618.821 333 OFFCURVE",
"623.406 359 CURVE SMOOTH",
"627.99 385 OFFCURVE",
"612.164 403 OFFCURVE",
"587.164 403 CURVE SMOOTH",
"561.164 403 OFFCURVE",
"539.99 385 OFFCURVE"
);
},
{
closed = 1;
nodes = (
"506.212 477 CURVE SMOOTH",
"501.804 452 OFFCURVE",
"517.454 433 OFFCURVE",
"542.454 433 CURVE SMOOTH",
"568.454 433 OFFCURVE",
"589.804 452 OFFCURVE",
"594.212 477 CURVE SMOOTH",
"598.797 503 OFFCURVE",
"584.147 522 OFFCURVE",
"558.147 522 CURVE SMOOTH",
"533.147 522 OFFCURVE",
"510.797 503 OFFCURVE"
);
},
{
closed = 1;
nodes = (
"423.203 545 CURVE SMOOTH",
"418.971 521 OFFCURVE",
"434.444 501 OFFCURVE",
"460.444 501 CURVE SMOOTH",
"485.444 501 OFFCURVE",
"506.971 521 OFFCURVE",
"511.203 545 CURVE SMOOTH",
"515.787 571 OFFCURVE",
"501.137 590 OFFCURVE",
"476.137 590 CURVE SMOOTH",
"450.137 590 OFFCURVE",
"427.787 571 OFFCURVE"
);
},
{
closed = 1;
nodes = (
"299.847 560 CURVE SMOOTH",
"295.263 534 OFFCURVE",
"310.089 516 OFFCURVE",
"336.089 516 CURVE SMOOTH",
"362.089 516 OFFCURVE",
"383.263 534 OFFCURVE",
"387.847 560 CURVE SMOOTH",
"392.432 586 OFFCURVE",
"377.606 604 OFFCURVE",
"351.606 604 CURVE SMOOTH",
"325.606 604 OFFCURVE",
"304.432 586 OFFCURVE"
);
}
);
width = 660;
}
);
unicode = 25CC;
},
{
glyphname = zerowidthnonjoiner;
lastChange = "2017-08-08 23:18:27 +0000";
layers = (
{
layerId = "C0ED9D5D-A651-429A-8F5D-D93A2EDA2DC0";
paths = (
{
closed = 1;
nodes = (
"24 -230 LINE",
"24 811 LINE",
"-23 811 LINE",
"-23 -230 LINE"
);
}
);
width = 0;
},
{
layerId = "22D14058-393A-410A-BECB-F56B411A01B2";
paths = (
{
closed = 1;
nodes = (
"24 -230 LINE",
"24 811 LINE",
"-23 811 LINE",
"-23 -230 LINE"
);
}
);
width = 0;
},
{
layerId = "3C02C8EC-C43C-4762-8B99-FE4CB64E6532";
paths = (
{
closed = 1;
nodes = (
"-67.778 -230 LINE",
"115.778 811 LINE",
"68.778 811 LINE",
"-114.778 -230 LINE"
);
}
);
width = 0;
},
{
layerId = "AD4288EF-621A-4539-AF14-1A70F42B46A9";
paths = (
{
closed = 1;
nodes = (
"-67.778 -230 LINE",
"115.778 811 LINE",
"68.778 811 LINE",
"-114.778 -230 LINE"
);
}
);
width = 0;
}
);
unicode = 200C;
},
{
glyphname = zerowidthjoiner;
lastChange = "2017-08-08 23:18:27 +0000";
layers = (
{
layerId = "C0ED9D5D-A651-429A-8F5D-D93A2EDA2DC0";
paths = (
{
closed = 1;
nodes = (
"129 593 LINE",
"33 688 LINE",
"129 784 LINE",
"97 816 LINE",
"1 721 LINE",
"-94 816 LINE",
"-127 783 LINE",
"-32 688 LINE",
"-125 595 LINE",
"-92 562 LINE",
"-23 635 LINE",
"-23 -230 LINE",
"24 -230 LINE",
"24 635 LINE",
"96 560 LINE"
);
}
);
width = 0;
},
{
layerId = "22D14058-393A-410A-BECB-F56B411A01B2";
paths = (
{
closed = 1;
nodes = (
"129 593 LINE",
"33 688 LINE",
"129 784 LINE",
"97 816 LINE",
"1 721 LINE",
"-94 816 LINE",
"-127 783 LINE",
"-32 688 LINE",
"-125 595 LINE",
"-92 562 LINE",
"-23 635 LINE",
"-23 -230 LINE",
"24 -230 LINE",
"24 635 LINE",
"96 560 LINE"
);
}
);
width = 0;
},
{
layerId = "3C02C8EC-C43C-4762-8B99-FE4CB64E6532";
paths = (
{
closed = 1;
nodes = (
"181.898 593 LINE",
"102.649 688 LINE",
"215.577 784 LINE",
"189.219 816 LINE",
"76.468 721 LINE",
"-1.781 816 LINE",
"-40.6 783 LINE",
"37.649 688 LINE",
"-71.749 595 LINE",
"-44.568 562 LINE",
"37.304 635 LINE",
"-115.219 -230 LINE",
"-68.219 -230 LINE",
"84.304 635 LINE",
"143.079 560 LINE"
);
}
);
width = 0;
},
{
layerId = "AD4288EF-621A-4539-AF14-1A70F42B46A9";
paths = (
{
closed = 1;
nodes = (
"181.898 593 LINE",
"102.649 688 LINE",
"215.577 784 LINE",
"189.219 816 LINE",
"76.468 721 LINE",
"-1.781 816 LINE",
"-40.6 783 LINE",
"37.649 688 LINE",
"-71.749 595 LINE",
"-44.568 562 LINE",
"37.304 635 LINE",
"-115.219 -230 LINE",
"-68.219 -230 LINE",
"84.304 635 LINE",
"143.079 560 LINE"
);
}
);
width = 0;
}
);
unicode = 200D;
},
{
glyphname = itfLogo;
lastChange = "2017-08-08 23:18:27 +0000";
layers = (
{
layerId = "C0ED9D5D-A651-429A-8F5D-D93A2EDA2DC0";
paths = (
{
closed = 1;
nodes = (
"147 0 LINE",
"354 0 LINE",
"354 671 LINE",
"147 671 LINE"
);
},
{
closed = 1;
nodes = (
"397 475 LINE",
"604 475 LINE",
"604 671 LINE",
"397 671 LINE"
);
},
{
closed = 1;
nodes = (
"647 0 LINE",
"854 0 LINE",
"854 671 LINE",
"647 671 LINE"
);
},
{
closed = 1;
nodes = (
"896 475 LINE",
"1104 475 LINE",
"1104 671 LINE",
"896 671 LINE"
);
},
{
closed = 1;
nodes = (
"1146 0 LINE",
"1354 0 LINE",
"1354 671 LINE",
"1146 671 LINE"
);
},
{
closed = 1;
nodes = (
"1396 475 LINE",
"1603 475 LINE",
"1603 671 LINE",
"1396 671 LINE"
);
},
{
closed = 1;
nodes = (
"1396 237 LINE",
"1603 237 LINE",
"1603 433 LINE",
"1396 433 LINE"
);
}
);
width = 1734;
},
{
layerId = "22D14058-393A-410A-BECB-F56B411A01B2";
paths = (
{
closed = 1;
nodes = (
"147 0 LINE",
"354 0 LINE",
"354 671 LINE",
"147 671 LINE"
);
},
{
closed = 1;
nodes = (
"397 475 LINE",
"604 475 LINE",
"604 671 LINE",
"397 671 LINE"
);
},
{
closed = 1;
nodes = (
"647 0 LINE",
"854 0 LINE",
"854 671 LINE",
"647 671 LINE"
);
},
{
closed = 1;
nodes = (
"896 475 LINE",
"1104 475 LINE",
"1104 671 LINE",
"896 671 LINE"
);
},
{
closed = 1;
nodes = (
"1146 0 LINE",
"1354 0 LINE",
"1354 671 LINE",
"1146 671 LINE"
);
},
{
closed = 1;
nodes = (
"1396 475 LINE",
"1603 475 LINE",
"1603 671 LINE",
"1396 671 LINE"
);
},
{
closed = 1;
nodes = (
"1396 237 LINE",
"1603 237 LINE",
"1603 433 LINE",
"1396 433 LINE"
);
}
);
width = 1734;
},
{
layerId = "3C02C8EC-C43C-4762-8B99-FE4CB64E6532";
paths = (
{
closed = 1;
nodes = (
"87.842 0 LINE",
"294.842 0 LINE",
"413.158 671 LINE",
"206.158 671 LINE"
);
},
{
closed = 1;
nodes = (
"421.598 475 LINE",
"628.598 475 LINE",
"663.158 671 LINE",
"456.158 671 LINE"
);
},
{
closed = 1;
nodes = (
"587.842 0 LINE",
"794.842 0 LINE",
"913.158 671 LINE",
"706.158 671 LINE"
);
},
{
closed = 1;
nodes = (
"920.598 475 LINE",
"1128.598 475 LINE",
"1163.158 671 LINE",
"955.158 671 LINE"
);
},
{
closed = 1;
nodes = (
"1086.842 0 LINE",
"1294.842 0 LINE",
"1413.158 671 LINE",
"1205.158 671 LINE"
);
},
{
closed = 1;
nodes = (
"1420.598 475 LINE",
"1627.598 475 LINE",
"1662.158 671 LINE",
"1455.158 671 LINE"
);
},
{
closed = 1;
nodes = (
"1378.632 237 LINE",
"1585.632 237 LINE",
"1620.192 433 LINE",
"1413.192 433 LINE"
);
}
);
width = 1734;
},
{
layerId = "AD4288EF-621A-4539-AF14-1A70F42B46A9";
paths = (
{
closed = 1;
nodes = (
"87.842 0 LINE",
"294.842 0 LINE",
"413.158 671 LINE",
"206.158 671 LINE"
);
},
{
closed = 1;
nodes = (
"421.598 475 LINE",
"628.598 475 LINE",
"663.158 671 LINE",
"456.158 671 LINE"
);
},
{
closed = 1;
nodes = (
"587.842 0 LINE",
"794.842 0 LINE",
"913.158 671 LINE",
"706.158 671 LINE"
);
},
{
closed = 1;
nodes = (
"920.598 475 LINE",
"1128.598 475 LINE",
"1163.158 671 LINE",
"955.158 671 LINE"
);
},
{
closed = 1;
nodes = (
"1086.842 0 LINE",
"1294.842 0 LINE",
"1413.158 671 LINE",
"1205.158 671 LINE"
);
},
{
closed = 1;
nodes = (
"1420.598 475 LINE",
"1627.598 475 LINE",
"1662.158 671 LINE",
"1455.158 671 LINE"
);
},
{
closed = 1;
nodes = (
"1378.632 237 LINE",
"1585.632 237 LINE",
"1620.192 433 LINE",
"1413.192 433 LINE"
);
}
);
width = 1734;
}
);
},
{
color = 3;
glyphname = exclam;
lastChange = "2017-08-08 23:18:27 +0000";
layers = (
{
layerId = "C0ED9D5D-A651-429A-8F5D-D93A2EDA2DC0";
paths = (
{
closed = 1;
nodes = (
"181 195 LINE",
"236 195 LINE",
"244 747 LINE",
"173 747 LINE"
);
},
{
closed = 1;
nodes = (
"159 0 LINE",
"258 0 LINE",
"258 98 LINE",
"159 98 LINE"
);
}
);
width = 406;
},
{
layerId = "22D14058-393A-410A-BECB-F56B411A01B2";
paths = (
{
closed = 1;
nodes = (
"149 252 LINE",
"294 252 LINE",
"314 752 LINE",
"129 752 LINE"
);
},
{
closed = 1;
nodes = (
"138 0 LINE",
"305 0 LINE",
"305 176 LINE",
"138 176 LINE"
);
}
);
width = 425;
},
{
layerId = "3C02C8EC-C43C-4762-8B99-FE4CB64E6532";
paths = (
{
closed = 1;
nodes = (
"149.526 195 LINE",
"204.526 195 LINE",
"309.858 747 LINE",
"238.858 747 LINE"
);
},
{
closed = 1;
nodes = (
"93.142 0 LINE",
"192.142 0 LINE",
"209.422 98 LINE",
"110.422 98 LINE"
);
}
);
width = 406;
},
{
layerId = "AD4288EF-621A-4539-AF14-1A70F42B46A9";
paths = (
{
closed = 1;
nodes = (
"127.135 252 LINE",
"272.135 252 LINE",
"380.299 752 LINE",
"195.299 752 LINE"
);
},
{
closed = 1;
nodes = (
"71.701 0 LINE",
"238.701 0 LINE",
"269.735 176 LINE",
"102.735 176 LINE"
);
}
);
width = 425;
}
);
unicode = 0021;
userData = {
public.markColor = "0.97,1,0,1";
};
},
{
color = 4;
glyphname = quotedbl;
lastChange = "2017-08-08 23:18:27 +0000";
layers = (
{
layerId = "C0ED9D5D-A651-429A-8F5D-D93A2EDA2DC0";
paths = (
{
closed = 1;
nodes = (
"42 602 LINE",
"91 602 LINE",
"103 795 LINE",
"30 795 LINE"
);
},
{
closed = 1;
nodes = (
"162 602 LINE",
"211 602 LINE",
"223 795 LINE",
"150 795 LINE"
);
}
);
width = 253;
},
{
layerId = "22D14058-393A-410A-BECB-F56B411A01B2";
paths = (
{
closed = 1;
nodes = (
"53 579 LINE",
"168 579 LINE",
"181 800 LINE",
"40 800 LINE"
);
},
{
closed = 1;
nodes = (
"243 579 LINE",
"358 579 LINE",
"371 800 LINE",
"230 800 LINE"
);
}
);
width = 411;
},
{
layerId = "3C02C8EC-C43C-4762-8B99-FE4CB64E6532";
paths = (
{
closed = 1;
nodes = (
"24.984 602 LINE",
"73.984 602 LINE",
"120.016 795 LINE",
"47.016 795 LINE"
);
},
{
closed = 1;
nodes = (
"144.984 602 LINE",
"193.984 602 LINE",
"240.016 795 LINE",
"167.016 795 LINE"
);
}
);
width = 253;
},
{
layerId = "AD4288EF-621A-4539-AF14-1A70F42B46A9";
paths = (
{
closed = 1;
nodes = (
"33.516 579 LINE",
"148.516 579 LINE",
"200.484 800 LINE",
"59.484 800 LINE"
);
},
{
closed = 1;
nodes = (
"223.516 579 LINE",
"338.516 579 LINE",
"390.484 800 LINE",
"249.484 800 LINE"
);
}
);
width = 411;
}
);
unicode = 0022;
userData = {
public.markColor = "0.67,0.95,0.38,1";
};
},
{
color = 3;
glyphname = numbersign;
lastChange = "2017-08-08 23:18:27 +0000";
layers = (
{
layerId = "C0ED9D5D-A651-429A-8F5D-D93A2EDA2DC0";
paths = (
{
closed = 1;
nodes = (
"154 0 LINE",
"154 0 OFFCURVE",
"223 0 OFFCURVE",
"223 0 CURVE",
"381 740 LINE",
"381 740 OFFCURVE",
"312 740 OFFCURVE",
"312 740 CURVE"
);
},
{
closed = 1;
nodes = (
"443 0 LINE",
"443 0 OFFCURVE",
"512 0 OFFCURVE",
"512 0 CURVE",
"670 740 LINE",
"670 740 OFFCURVE",
"601 740 OFFCURVE",
"601 740 CURVE"
);
},
{
closed = 1;
nodes = (
"43 218 LINE",
"714 218 LINE",
"714 276 LINE",
"43 276 LINE"
);
},
{
closed = 1;
nodes = (
"98 465 LINE",
"769 465 LINE",
"769 523 LINE",
"98 523 LINE"
);
}
);
width = 827;
},
{
layerId = "22D14058-393A-410A-BECB-F56B411A01B2";
paths = (
{
closed = 1;
nodes = (
"135 0 LINE",
"135 0 OFFCURVE",
"295 0 OFFCURVE",
"295 0 CURVE",
"453 740 LINE",
"453 740 OFFCURVE",
"293 740 OFFCURVE",
"293 740 CURVE"
);
},
{
closed = 1;
nodes = (
"461 0 LINE",
"461 0 OFFCURVE",
"621 0 OFFCURVE",
"621 0 CURVE",
"779 740 LINE",
"779 740 OFFCURVE",
"619 740 OFFCURVE",
"619 740 CURVE"
);
},
{
closed = 1;
nodes = (
"15 142 LINE",
"802 142 LINE",
"802 296 LINE",
"15 296 LINE"
);
},
{
closed = 1;
nodes = (
"80 449 LINE",
"867 449 LINE",
"867 603 LINE",
"80 603 LINE"
);
}
);
width = 929;
},
{
layerId = "3C02C8EC-C43C-4762-8B99-FE4CB64E6532";
paths = (
{
closed = 1;
nodes = (
"88.759 0 LINE",
"88.759 0 OFFCURVE",
"157.759 0 OFFCURVE",
"157.759 0 CURVE",
"446.241 740 LINE",
"446.241 740 OFFCURVE",
"377.241 740 OFFCURVE",
"377.241 740 CURVE"
);
},
{
closed = 1;
nodes = (
"377.759 0 LINE",
"377.759 0 OFFCURVE",
"446.759 0 OFFCURVE",
"446.759 0 CURVE",
"735.241 740 LINE",
"735.241 740 OFFCURVE",
"666.241 740 OFFCURVE",
"666.241 740 CURVE"
);
},
{
closed = 1;
nodes = (
"16.198 218 LINE",
"687.198 218 LINE",
"697.425 276 LINE",
"26.425 276 LINE"
);
},
{
closed = 1;
nodes = (
"114.751 465 LINE",
"785.751 465 LINE",
"795.978 523 LINE",
"124.978 523 LINE"
);
}
);
width = 827;
},
{
layerId = "AD4288EF-621A-4539-AF14-1A70F42B46A9";
paths = (
{
closed = 1;
nodes = (
"69.759 0 LINE",
"69.759 0 OFFCURVE",
"229.759 0 OFFCURVE",
"229.759 0 CURVE",
"518.241 740 LINE",
"518.241 740 OFFCURVE",
"358.241 740 OFFCURVE",
"358.241 740 CURVE"
);
},
{
closed = 1;
nodes = (
"395.759 0 LINE",
"395.759 0 OFFCURVE",
"555.759 0 OFFCURVE",
"555.759 0 CURVE",
"844.241 740 LINE",
"844.241 740 OFFCURVE",
"684.241 740 OFFCURVE",
"684.241 740 CURVE"
);
},
{
closed = 1;
nodes = (
"-25.203 142 LINE",
"761.797 142 LINE",
"788.952 296 LINE",
"1.952 296 LINE"
);
},
{
closed = 1;
nodes = (
"93.93 449 LINE",
"880.93 449 LINE",
"908.084 603 LINE",
"121.084 603 LINE"
);
}
);
width = 929;
}
);
unicode = 0023;
userData = {
public.markColor = "0.97,1,0,1";
};
},
{
color = 4;
glyphname = dollar;
lastChange = "2017-08-08 23:18:27 +0000";
layers = (
{
layerId = "C0ED9D5D-A651-429A-8F5D-D93A2EDA2DC0";
paths = (
{
closed = 1;
nodes = (
"255 -87 LINE",
"310 -87 LINE",
"310 777 LINE",
"310 777 OFFCURVE",
"255 777 OFFCURVE",
"255 777 CURVE"
);
},
{
closed = 1;
nodes = (
"125 508 CURVE SMOOTH",
"125 595 OFFCURVE",
"189 637 OFFCURVE",
"274 637 CURVE SMOOTH",
"367 637 OFFCURVE",
"414 582 OFFCURVE",
"419 532 CURVE",
"498 532 LINE",
"483 629 OFFCURVE",
"406 697 OFFCURVE",
"284 697 CURVE SMOOTH",
"142 697 OFFCURVE",
"60 619 OFFCURVE",
"60 507 CURVE SMOOTH",
"60 238 OFFCURVE",
"446 386 OFFCURVE",
"446 186 CURVE SMOOTH",
"446 112 OFFCURVE",
"387 52 OFFCURVE",
"284 52 CURVE SMOOTH",
"181 52 OFFCURVE",
"139 105 OFFCURVE",
"134 163 CURVE",
"60 163 LINE",
"60 56 OFFCURVE",
"160 -7 OFFCURVE",
"284 -7 CURVE SMOOTH",
"439 -7 OFFCURVE",
"511 94 OFFCURVE",
"511 190 CURVE SMOOTH",
"511 452 OFFCURVE",
"125 306 OFFCURVE"
);
}
);
width = 655;
},
{
layerId = "22D14058-393A-410A-BECB-F56B411A01B2";
paths = (
{
closed = 1;
nodes = (
"298 -87 LINE",
"357 -87 LINE",
"357 792 LINE",
"357 792 OFFCURVE",
"298 792 OFFCURVE",
"298 792 CURVE"
);
},
{
closed = 1;
nodes = (
"240 508 CURVE SMOOTH",
"240 558 OFFCURVE",
"280 577 OFFCURVE",
"326 577 CURVE SMOOTH",
"369 577 OFFCURVE",
"405 548 OFFCURVE",
"411 498 CURVE",
"587 498 LINE",
"583 654 OFFCURVE",
"473 712 OFFCURVE",
"327 712 CURVE SMOOTH",
"185 712 OFFCURVE",
"60 630 OFFCURVE",
"60 496 CURVE SMOOTH",
"60 250 OFFCURVE",
"407 338 OFFCURVE",
"407 199 CURVE SMOOTH",
"407 156 OFFCURVE",
"377 128 OFFCURVE",
"328 128 CURVE SMOOTH",
"279 128 OFFCURVE",
"247 152 OFFCURVE",
"242 212 CURVE",
"60 212 LINE",
"60 69 OFFCURVE",
"168 -7 OFFCURVE",
"328 -7 CURVE SMOOTH",
"483 -7 OFFCURVE",
"587 93 OFFCURVE",
"587 209 CURVE SMOOTH",
"587 460 OFFCURVE",
"240 364 OFFCURVE"
);
}
);
width = 643;
},
{
layerId = "3C02C8EC-C43C-4762-8B99-FE4CB64E6532";
paths = (
{
closed = 1;
nodes = (
"178.827 -87 LINE",
"233.827 -87 LINE",
"386.173 777 LINE",
"386.173 777 OFFCURVE",
"331.173 777 OFFCURVE",
"331.173 777 CURVE"
);
},
{
closed = 1;
nodes = (
"153.741 508 CURVE SMOOTH",
"169.082 595 OFFCURVE",
"240.487 637 OFFCURVE",
"325.487 637 CURVE SMOOTH",
"418.487 637 OFFCURVE",
"455.789 582 OFFCURVE",
"451.973 532 CURVE",
"530.973 532 LINE",
"533.077 629 OFFCURVE",
"468.067 697 OFFCURVE",
"346.067 697 CURVE SMOOTH",
"204.067 697 OFFCURVE",
"108.314 619 OFFCURVE",
"88.565 507 CURVE SMOOTH",
"41.133 238 OFFCURVE",
"453.229 386 OFFCURVE",
"417.964 186 CURVE SMOOTH",
"404.916 112 OFFCURVE",
"335.336 52 OFFCURVE",
"232.336 52 CURVE SMOOTH",
"129.336 52 OFFCURVE",
"96.682 105 OFFCURVE",
"101.908 163 CURVE",
"27.908 163 LINE",
"9.042 56 OFFCURVE",
"97.933 -7 OFFCURVE",
"221.933 -7 CURVE SMOOTH",
"376.933 -7 OFFCURVE",
"466.742 94 OFFCURVE",
"483.669 190 CURVE SMOOTH",
"529.867 452 OFFCURVE",
"118.123 306 OFFCURVE"
);
}
);
width = 655;
},
{
layerId = "AD4288EF-621A-4539-AF14-1A70F42B46A9";
paths = (
{
closed = 1;
nodes = (
"221 -87 LINE",
"280 -87 LINE",
"434 792 LINE",
"434 792 OFFCURVE",
"375 792 OFFCURVE",
"375 792 CURVE"
);
},
{
closed = 1;
nodes = (
"266 524 CURVE SMOOTH",
"270 558 OFFCURVE",
"295 577 OFFCURVE",
"337 577 CURVE SMOOTH",
"383 577 OFFCURVE",
"420 550 OFFCURVE",
"416 498 CURVE",
"602 498 LINE",
"615 624 OFFCURVE",
"512 712 OFFCURVE",
"349 712 CURVE",
"198 712 OFFCURVE",
"85 635 OFFCURVE",
"82 503 CURVE SMOOTH",
"77 280 OFFCURVE",
"407 324 OFFCURVE",
"380 187 CURVE SMOOTH",
"372 144 OFFCURVE",
"339 128 OFFCURVE",
"296 128 CURVE",
"248 128 OFFCURVE",
"217 152 OFFCURVE",
"217 212 CURVE",
"35 212 LINE",
"25 89 OFFCURVE",
"127 -7 OFFCURVE",
"286 -7 CURVE",
"452 -7 OFFCURVE",
"535 73 OFFCURVE",
"555 169 CURVE SMOOTH",
"608 431 OFFCURVE",
"253 411 OFFCURVE"
);
}
);
width = 643;
}
);
unicode = 0024;
userData = {
public.markColor = "0.67,0.95,0.38,1";
};
},
{
color = 3;
glyphname = percent;
lastChange = "2017-08-08 23:18:27 +0000";
layers = (
{
layerId = "C0ED9D5D-A651-429A-8F5D-D93A2EDA2DC0";
paths = (
{
closed = 1;
nodes = (
"50 558 CURVE SMOOTH",
"50 471 OFFCURVE",
"110 415 OFFCURVE",
"190 415 CURVE SMOOTH",
"270 415 OFFCURVE",
"330 471 OFFCURVE",
"330 558 CURVE SMOOTH",
"330 644 OFFCURVE",
"270 700 OFFCURVE",
"190 700 CURVE SMOOTH",
"110 700 OFFCURVE",
"50 644 OFFCURVE"
);
},
{
closed = 1;
nodes = (
"190 655 CURVE SMOOTH",
"235 655 OFFCURVE",
"264 627 OFFCURVE",
"264 558 CURVE SMOOTH",
"264 489 OFFCURVE",
"235 460 OFFCURVE",
"190 460 CURVE SMOOTH",
"145 460 OFFCURVE",
"115 489 OFFCURVE",
"115 558 CURVE SMOOTH",
"115 627 OFFCURVE",
"145 655 OFFCURVE"
);
},
{
closed = 1;
nodes = (
"84 0 LINE",
"84 0 OFFCURVE",
"155 0 OFFCURVE",
"155 0 CURVE",
"565 690 LINE",
"565 690 OFFCURVE",
"494 690 OFFCURVE",
"494 690 CURVE"
);
},
{
closed = 1;
nodes = (
"320 133 CURVE SMOOTH",
"320 46 OFFCURVE",
"380 -10 OFFCURVE",
"460 -10 CURVE SMOOTH",
"540 -10 OFFCURVE",
"600 46 OFFCURVE",
"600 133 CURVE SMOOTH",
"600 219 OFFCURVE",
"540 275 OFFCURVE",
"460 275 CURVE SMOOTH",
"380 275 OFFCURVE",
"320 219 OFFCURVE"
);
},
{
closed = 1;
nodes = (
"460 230 CURVE SMOOTH",
"505 230 OFFCURVE",
"534 202 OFFCURVE",
"534 133 CURVE SMOOTH",
"534 64 OFFCURVE",
"505 35 OFFCURVE",
"460 35 CURVE SMOOTH",
"415 35 OFFCURVE",
"385 64 OFFCURVE",
"385 133 CURVE SMOOTH",
"385 202 OFFCURVE",
"415 230 OFFCURVE"
);
}
);
width = 650;
},
{
layerId = "22D14058-393A-410A-BECB-F56B411A01B2";
paths = (
{
closed = 1;
nodes = (
"30 546 CURVE SMOOTH",
"30 436 OFFCURVE",
"102 378 OFFCURVE",
"197 378 CURVE SMOOTH",
"292 378 OFFCURVE",
"363 436 OFFCURVE",
"363 546 CURVE SMOOTH",
"363 656 OFFCURVE",
"292 714 OFFCURVE",
"197 714 CURVE SMOOTH",
"102 714 OFFCURVE",
"30 656 OFFCURVE"
);
},
{
closed = 1;
nodes = (
"196 613 CURVE SMOOTH",
"226 613 OFFCURVE",
"245 592 OFFCURVE",
"245 546 CURVE SMOOTH",
"245 500 OFFCURVE",
"226 479 OFFCURVE",
"196 479 CURVE SMOOTH",
"166 479 OFFCURVE",
"148 500 OFFCURVE",
"148 546 CURVE SMOOTH",
"148 592 OFFCURVE",
"166 613 OFFCURVE"
);
},
{
closed = 1;
nodes = (
"132 0 LINE",
"132 0 OFFCURVE",
"297 0 OFFCURVE",
"297 0 CURVE",
"682 704 LINE",
"682 704 OFFCURVE",
"517 704 OFFCURVE",
"517 704 CURVE"
);
},
{
closed = 1;
nodes = (
"451 158 CURVE SMOOTH",
"451 48 OFFCURVE",
"523 -10 OFFCURVE",
"618 -10 CURVE SMOOTH",
"713 -10 OFFCURVE",
"784 48 OFFCURVE",
"784 158 CURVE SMOOTH",
"784 268 OFFCURVE",
"713 326 OFFCURVE",
"618 326 CURVE SMOOTH",
"523 326 OFFCURVE",
"451 268 OFFCURVE"
);
},
{
closed = 1;
nodes = (
"617 225 CURVE SMOOTH",
"647 225 OFFCURVE",
"666 204 OFFCURVE",
"666 158 CURVE SMOOTH",
"666 112 OFFCURVE",
"647 91 OFFCURVE",
"617 91 CURVE SMOOTH",
"587 91 OFFCURVE",
"569 112 OFFCURVE",
"569 158 CURVE SMOOTH",
"569 204 OFFCURVE",
"587 225 OFFCURVE"
);
}
);
width = 814;
},
{
layerId = "3C02C8EC-C43C-4762-8B99-FE4CB64E6532";
paths = (
{
closed = 1;
nodes = (
"87.558 558 CURVE SMOOTH",
"72.217 471 OFFCURVE",
"122.343 415 OFFCURVE",
"202.343 415 CURVE SMOOTH",
"282.343 415 OFFCURVE",
"352.217 471 OFFCURVE",
"367.558 558 CURVE SMOOTH",
"382.722 644 OFFCURVE",
"332.596 700 OFFCURVE",
"252.596 700 CURVE SMOOTH",
"172.596 700 OFFCURVE",
"102.722 644 OFFCURVE"
);
},
{
closed = 1;
nodes = (
"244.661 655 CURVE SMOOTH",
"289.661 655 OFFCURVE",
"313.724 627 OFFCURVE",
"301.558 558 CURVE SMOOTH",
"289.391 489 OFFCURVE",
"255.278 460 OFFCURVE",
"210.278 460 CURVE SMOOTH",
"165.278 460 OFFCURVE",
"140.391 489 OFFCURVE",
"152.558 558 CURVE SMOOTH",
"164.724 627 OFFCURVE",
"199.661 655 OFFCURVE"
);
},
{
closed = 1;
nodes = (
"23.167 0 LINE",
"23.167 0 OFFCURVE",
"94.167 0 OFFCURVE",
"94.167 0 CURVE",
"625.833 690 LINE",
"625.833 690 OFFCURVE",
"554.833 690 OFFCURVE",
"554.833 690 CURVE"
);
},
{
closed = 1;
nodes = (
"282.619 133 CURVE SMOOTH",
"267.278 46 OFFCURVE",
"317.404 -10 OFFCURVE",
"397.404 -10 CURVE SMOOTH",
"477.404 -10 OFFCURVE",
"547.278 46 OFFCURVE",
"562.619 133 CURVE SMOOTH",
"577.783 219 OFFCURVE",
"527.657 275 OFFCURVE",
"447.657 275 CURVE SMOOTH",
"367.657 275 OFFCURVE",
"297.783 219 OFFCURVE"
);
},
{
closed = 1;
nodes = (
"439.722 230 CURVE SMOOTH",
"484.722 230 OFFCURVE",
"508.785 202 OFFCURVE",
"496.619 133 CURVE SMOOTH",
"484.452 64 OFFCURVE",
"450.339 35 OFFCURVE",
"405.339 35 CURVE SMOOTH",
"360.339 35 OFFCURVE",
"335.452 64 OFFCURVE",
"347.619 133 CURVE SMOOTH",
"359.785 202 OFFCURVE",
"394.722 230 OFFCURVE"
);
}
);
width = 650;
},
{
layerId = "AD4288EF-621A-4539-AF14-1A70F42B46A9";
paths = (
{
closed = 1;
nodes = (
"64.207 546 CURVE SMOOTH",
"44.811 436 OFFCURVE",
"106.585 378 OFFCURVE",
"201.585 378 CURVE SMOOTH",
"296.585 378 OFFCURVE",
"377.811 436 OFFCURVE",
"397.207 546 CURVE SMOOTH",
"416.603 656 OFFCURVE",
"355.83 714 OFFCURVE",
"260.83 714 CURVE SMOOTH",
"165.83 714 OFFCURVE",
"83.603 656 OFFCURVE"
);
},
{
closed = 1;
nodes = (
"242.021 613 CURVE SMOOTH",
"272.021 613 OFFCURVE",
"287.318 592 OFFCURVE",
"279.207 546 CURVE SMOOTH",
"271.096 500 OFFCURVE",
"248.394 479 OFFCURVE",
"218.394 479 CURVE SMOOTH",
"188.394 479 OFFCURVE",
"174.096 500 OFFCURVE",
"182.207 546 CURVE SMOOTH",
"190.318 592 OFFCURVE",
"212.021 613 OFFCURVE"
);
},
{
closed = 1;
nodes = (
"69.933 0 LINE",
"69.933 0 OFFCURVE",
"234.933 0 OFFCURVE",
"234.933 0 CURVE",
"744.067 704 LINE",
"744.067 704 OFFCURVE",
"579.067 704 OFFCURVE",
"579.067 704 CURVE"
);
},
{
closed = 1;
nodes = (
"416.793 158 CURVE SMOOTH",
"397.397 48 OFFCURVE",
"459.17 -10 OFFCURVE",
"554.17 -10 CURVE SMOOTH",
"649.17 -10 OFFCURVE",
"730.397 48 OFFCURVE",
"749.793 158 CURVE SMOOTH",
"769.189 268 OFFCURVE",
"708.416 326 OFFCURVE",
"613.416 326 CURVE SMOOTH",
"518.416 326 OFFCURVE",
"436.189 268 OFFCURVE"
);
},
{
closed = 1;
nodes = (
"594.606 225 CURVE SMOOTH",
"624.606 225 OFFCURVE",
"639.904 204 OFFCURVE",
"631.793 158 CURVE SMOOTH",
"623.682 112 OFFCURVE",
"600.979 91 OFFCURVE",
"570.979 91 CURVE SMOOTH",
"540.979 91 OFFCURVE",
"526.682 112 OFFCURVE",
"534.793 158 CURVE SMOOTH",
"542.904 204 OFFCURVE",
"564.606 225 OFFCURVE"
);
}
);
width = 814;
}
);
unicode = 0025;
userData = {
public.markColor = "0.97,1,0,1";
};
},
{
color = 4;
glyphname = ampersand;
lastChange = "2017-08-08 23:18:27 +0000";
layers = (
{
layerId = "C0ED9D5D-A651-429A-8F5D-D93A2EDA2DC0";
paths = (
{
closed = 1;
nodes = (
"109 191 CURVE SMOOTH",
"109 271 OFFCURVE",
"166 332 OFFCURVE",
"238 332 CURVE SMOOTH",
"310 332 OFFCURVE",
"369 271 OFFCURVE",
"369 191 CURVE SMOOTH",
"369 111 OFFCURVE",
"310 48 OFFCURVE",
"238 48 CURVE SMOOTH",
"166 48 OFFCURVE",
"109 111 OFFCURVE"
);
},
{
closed = 1;
nodes = (
"156 585 CURVE SMOOTH",
"156 527 OFFCURVE",
"185 476 OFFCURVE",
"228 422 CURVE SMOOTH",
"255 387 LINE",
"247 388 OFFCURVE",
"244 388 OFFCURVE",
"238 388 CURVE SMOOTH",
"129 388 OFFCURVE",
"40 310 OFFCURVE",
"40 190 CURVE SMOOTH",
"40 70 OFFCURVE",
"129 -8 OFFCURVE",
"238 -8 CURVE SMOOTH",
"347 -8 OFFCURVE",
"429 74 OFFCURVE",
"436 178 CURVE",
"413 181 LINE",
"552 0 LINE",
"640 0 LINE",
"282 464 LINE SMOOTH",
"240 519 OFFCURVE",
"229 550 OFFCURVE",
"229 585 CURVE SMOOTH",
"229 640 OFFCURVE",
"269 684 OFFCURVE",
"329 684 CURVE SMOOTH",
"389 684 OFFCURVE",
"429 640 OFFCURVE",
"429 585 CURVE SMOOTH",
"429 574 OFFCURVE",
"427 556 OFFCURVE",
"424 544 CURVE",
"497 544 LINE",
"500 556 OFFCURVE",
"502 574 OFFCURVE",
"502 585 CURVE SMOOTH",
"502 664 OFFCURVE",
"439 740 OFFCURVE",
"329 740 CURVE SMOOTH",
"219 740 OFFCURVE",
"156 664 OFFCURVE"
);
}
);
width = 659;
},
{
layerId = "22D14058-393A-410A-BECB-F56B411A01B2";
paths = (
{
closed = 1;
nodes = (
"172 221 CURVE SMOOTH",
"172 268 OFFCURVE",
"210 306 OFFCURVE",
"258 306 CURVE SMOOTH",
"305 306 OFFCURVE",
"344 268 OFFCURVE",
"344 221 CURVE SMOOTH",
"344 173 OFFCURVE",
"305 134 OFFCURVE",
"258 134 CURVE SMOOTH",
"210 134 OFFCURVE",
"172 173 OFFCURVE"
);
},
{
closed = 1;
nodes = (
"141 558 CURVE SMOOTH",
"141 516 OFFCURVE",
"158 478 OFFCURVE",
"201 414 CURVE",
"288 399 LINE",
"273 424 OFFCURVE",
"257 439 OFFCURVE",
"227 439 CURVE SMOOTH",
"124 439 OFFCURVE",
"30 345 OFFCURVE",
"30 219 CURVE SMOOTH",
"30 93 OFFCURVE",
"131 -7 OFFCURVE",
"257 -7 CURVE SMOOTH",
"354 -7 OFFCURVE",
"437 57 OFFCURVE",
"466 135 CURVE",
"412 131 LINE",
"503 0 LINE",
"700 0 LINE",
"326 504 LINE SMOOTH",
"311 524 OFFCURVE",
"306 536 OFFCURVE",
"306 554 CURVE SMOOTH",
"306 574 OFFCURVE",
"322 594 OFFCURVE",
"346 594 CURVE SMOOTH",
"371 594 OFFCURVE",
"388 577 OFFCURVE",
"388 551 CURVE SMOOTH",
"388 537 OFFCURVE",
"384 523 OFFCURVE",
"377 512 CURVE",
"539 512 LINE",
"548 530 OFFCURVE",
"553 552 OFFCURVE",
"553 576 CURVE SMOOTH",
"553 658 OFFCURVE",
"481 740 OFFCURVE",
"346 740 CURVE SMOOTH",
"211 740 OFFCURVE",
"141 651 OFFCURVE"
);
}
);
width = 700;
},
{
layerId = "3C02C8EC-C43C-4762-8B99-FE4CB64E6532";
paths = (
{
closed = 1;
nodes = (
"78.143 191 CURVE SMOOTH",
"92.249 271 OFFCURVE",
"160.005 332 OFFCURVE",
"232.005 332 CURVE SMOOTH",
"304.005 332 OFFCURVE",
"352.249 271 OFFCURVE",
"338.143 191 CURVE SMOOTH",
"324.037 111 OFFCURVE",
"253.928 48 OFFCURVE",
"181.928 48 CURVE SMOOTH",
"109.928 48 OFFCURVE",
"64.037 111 OFFCURVE"
);
},
{
closed = 1;
nodes = (
"194.616 585 CURVE SMOOTH",
"184.389 527 OFFCURVE",
"204.396 476 OFFCURVE",
"237.874 422 CURVE SMOOTH",
"258.703 387 LINE",
"250.879 388 OFFCURVE",
"247.879 388 OFFCURVE",
"241.879 388 CURVE SMOOTH",
"132.879 388 OFFCURVE",
"30.126 310 OFFCURVE",
"8.966 190 CURVE SMOOTH",
"-12.193 70 OFFCURVE",
"63.054 -8 OFFCURVE",
"172.054 -8 CURVE SMOOTH",
"281.054 -8 OFFCURVE",
"377.513 74 OFFCURVE",
"402.851 178 CURVE",
"380.38 181 LINE",
"487.464 0 LINE",
"575.464 0 LINE",
"299.28 464 LINE SMOOTH",
"266.978 519 OFFCURVE",
"261.444 550 OFFCURVE",
"267.616 585 CURVE SMOOTH",
"277.314 640 OFFCURVE",
"325.072 684 OFFCURVE",
"385.072 684 CURVE SMOOTH",
"445.072 684 OFFCURVE",
"477.314 640 OFFCURVE",
"467.616 585 CURVE SMOOTH",
"465.676 574 OFFCURVE",
"460.502 556 OFFCURVE",
"455.386 544 CURVE",
"528.386 544 LINE",
"533.502 556 OFFCURVE",
"538.676 574 OFFCURVE",
"540.616 585 CURVE SMOOTH",
"554.545 664 OFFCURVE",
"504.946 740 OFFCURVE",
"394.946 740 CURVE SMOOTH",
"284.946 740 OFFCURVE",
"208.545 664 OFFCURVE"
);
}
);
width = 659;
},
{
layerId = "AD4288EF-621A-4539-AF14-1A70F42B46A9";
paths = (
{
closed = 1;
nodes = (
"146.344 221 CURVE SMOOTH",
"155 274 OFFCURVE",
"199 306 OFFCURVE",
"247.332 306 CURVE SMOOTH",
"299 306 OFFCURVE",
"325 268 OFFCURVE",
"318.344 221 CURVE SMOOTH",
"310 166 OFFCURVE",
"264.004 134 OFFCURVE",
"217.004 134 CURVE SMOOTH",
"169.004 134 OFFCURVE",
"139 173 OFFCURVE"
);
},
{
closed = 1;
nodes = (
"175 568 CURVE SMOOTH",
"167 526 OFFCURVE",
"177.66 478 OFFCURVE",
"209.376 414 CURVE",
"293.731 399 LINE",
"283.139 424 OFFCURVE",
"269.784 439 OFFCURVE",
"239.784 439 CURVE SMOOTH",
"136.784 439 OFFCURVE",
"26 355 OFFCURVE",
"4 229 CURVE SMOOTH",
"-18 103 OFFCURVE",
"55 -7 OFFCURVE",
"191.142 -7 CURVE SMOOTH",
"308 -7 OFFCURVE",
"382.427 57 OFFCURVE",
"425.18 135 CURVE",
"370.475 131 LINE",
"438.376 0 LINE",
"635.376 0 LINE",
"350.245 504 LINE SMOOTH",
"338.771 524 OFFCURVE",
"335.887 536 OFFCURVE",
"339.061 554 CURVE SMOOTH",
"342.588 574 OFFCURVE",
"362.114 594 OFFCURVE",
"386.114 594 CURVE SMOOTH",
"411.114 594 OFFCURVE",
"425.117 577 OFFCURVE",
"420.532 551 CURVE SMOOTH",
"418.064 537 OFFCURVE",
"411.595 523 OFFCURVE",
"402.656 512 CURVE",
"564.656 512 LINE",
"576.829 530 OFFCURVE",
"585.709 552 OFFCURVE",
"589.94 576 CURVE SMOOTH",
"604.399 658 OFFCURVE",
"547 740 OFFCURVE",
"411.858 740 CURVE SMOOTH",
"271 740 OFFCURVE",
"191 661 OFFCURVE"
);
}
);
width = 700;
}
);
unicode = 0026;
userData = {
public.markColor = "0.67,0.95,0.38,1";
};
},
{
color = 4;
glyphname = quotesingle;
lastChange = "2017-08-08 23:18:27 +0000";
layers = (
{
layerId = "C0ED9D5D-A651-429A-8F5D-D93A2EDA2DC0";
paths = (
{
closed = 1;
nodes = (
"42 602 LINE",
"91 602 LINE",
"103 795 LINE",
"30 795 LINE"
);
}
);
width = 133;
},
{
layerId = "22D14058-393A-410A-BECB-F56B411A01B2";
paths = (
{
closed = 1;
nodes = (
"53 579 LINE",
"168 579 LINE",
"181 800 LINE",
"40 800 LINE"
);
}
);
width = 221;
},
{
layerId = "3C02C8EC-C43C-4762-8B99-FE4CB64E6532";
paths = (
{
closed = 1;
nodes = (
"24.984 602 LINE",
"73.984 602 LINE",
"120.016 795 LINE",
"47.016 795 LINE"
);
}
);
width = 133;
},
{
layerId = "AD4288EF-621A-4539-AF14-1A70F42B46A9";
paths = (
{
closed = 1;
nodes = (
"33.516 579 LINE",
"148.516 579 LINE",
"200.484 800 LINE",
"59.484 800 LINE"
);
}
);
width = 221;
}
);
unicode = 0027;
userData = {
public.markColor = "0.67,0.95,0.38,1";
};
},
{
color = 3;
glyphname = parenleft;
lastChange = "2017-08-08 23:18:27 +0000";
layers = (
{
layerId = "C0ED9D5D-A651-429A-8F5D-D93A2EDA2DC0";
paths = (
{
closed = 1;
nodes = (
"436 -183 CURVE",
"514 -183 LINE",
"514 -176 LINE",
"323 -28 OFFCURVE",
"242 194 OFFCURVE",
"242 403 CURVE",
"242 611 OFFCURVE",
"323 833 OFFCURVE",
"514 981 CURVE",
"514 988 LINE",
"436 988 LINE",
"279 874 OFFCURVE",
"174 651 OFFCURVE",
"174 403 CURVE SMOOTH",
"174 154 OFFCURVE",
"279 -69 OFFCURVE"
);
}
);
width = 583;
},
{
layerId = "22D14058-393A-410A-BECB-F56B411A01B2";
paths = (
{
closed = 1;
nodes = (
"339 -187 CURVE",
"508 -187 LINE",
"508 -171 LINE",
"320 -17 OFFCURVE",
"232 180 OFFCURVE",
"232 402 CURVE",
"232 624 OFFCURVE",
"320 821 OFFCURVE",
"508 975 CURVE",
"508 991 LINE",
"339 991 LINE",
"183 873 OFFCURVE",
"67 661 OFFCURVE",
"67 403 CURVE",
"67 143 OFFCURVE",
"183 -69 OFFCURVE"
);
}
);
width = 480;
},
{
layerId = "3C02C8EC-C43C-4762-8B99-FE4CB64E6532";
paths = (
{
closed = 1;
nodes = (
"332.761 -183 CURVE",
"410.761 -183 LINE",
"411.995 -176 LINE",
"247.091 -28 OFFCURVE",
"205.236 194 OFFCURVE",
"242.088 403 CURVE",
"278.764 611 OFFCURVE",
"398.909 833 OFFCURVE",
"616.005 981 CURVE",
"617.239 988 LINE",
"539.239 988 LINE",
"362.138 874 OFFCURVE",
"217.817 651 OFFCURVE",
"174.088 403 CURVE SMOOTH",
"130.183 154 OFFCURVE",
"195.862 -69 OFFCURVE"
);
}
);
width = 583;
},
{
layerId = "AD4288EF-621A-4539-AF14-1A70F42B46A9";
paths = (
{
closed = 1;
nodes = (
"235.143 -187 CURVE",
"404.143 -187 LINE",
"406.965 -171 LINE",
"246.119 -17 OFFCURVE",
"193 200 OFFCURVE",
"232 422 CURVE",
"271 644 OFFCURVE",
"393.881 821 OFFCURVE",
"609.035 975 CURVE",
"611.857 991 LINE",
"442.857 991 LINE",
"266 883 OFFCURVE",
"113 681 OFFCURVE",
"67 423 CURVE",
"21 163 OFFCURVE",
"99.95 -69 OFFCURVE"
);
}
);
width = 480;
}
);
unicode = 0028;
userData = {
public.markColor = "0.97,1,0,1";
};
},
{
color = 3;
glyphname = parenright;
lastChange = "2017-08-08 23:18:27 +0000";
layers = (
{
layerId = "C0ED9D5D-A651-429A-8F5D-D93A2EDA2DC0";
paths = (
{
closed = 1;
nodes = (
"147 988 CURVE",
"69 988 LINE",
"69 981 LINE",
"260 833 OFFCURVE",
"341 611 OFFCURVE",
"341 403 CURVE SMOOTH",
"341 194 OFFCURVE",
"260 -28 OFFCURVE",
"69 -176 CURVE",
"69 -183 LINE",
"147 -183 LINE",
"304 -69 OFFCURVE",
"409 154 OFFCURVE",
"409 403 CURVE SMOOTH",
"409 651 OFFCURVE",
"304 874 OFFCURVE"
);
}
);
width = 583;
},
{
layerId = "22D14058-393A-410A-BECB-F56B411A01B2";
paths = (
{
closed = 1;
nodes = (
"143 991 CURVE",
"-26 991 LINE",
"-26 975 LINE",
"162 821 OFFCURVE",
"250 624 OFFCURVE",
"250 402 CURVE SMOOTH",
"250 180 OFFCURVE",
"162 -17 OFFCURVE",
"-26 -171 CURVE",
"-26 -187 LINE",
"143 -187 LINE",
"299 -69 OFFCURVE",
"415 143 OFFCURVE",
"415 403 CURVE SMOOTH",
"415 661 OFFCURVE",
"299 873 OFFCURVE"
);
}
);
width = 482;
},
{
layerId = "3C02C8EC-C43C-4762-8B99-FE4CB64E6532";
paths = (
{
closed = 1;
nodes = (
"250.239 988 CURVE",
"172.239 988 LINE",
"171.005 981 LINE",
"335.909 833 OFFCURVE",
"377.764 611 OFFCURVE",
"341.088 403 CURVE SMOOTH",
"304.236 194 OFFCURVE",
"184.091 -28 OFFCURVE",
"-33.005 -176 CURVE",
"-34.239 -183 LINE",
"43.761 -183 LINE",
"220.862 -69 OFFCURVE",
"365.183 154 OFFCURVE",
"409.088 403 CURVE SMOOTH",
"452.817 651 OFFCURVE",
"387.138 874 OFFCURVE"
);
}
);
width = 583;
},
{
layerId = "AD4288EF-621A-4539-AF14-1A70F42B46A9";
paths = (
{
closed = 1;
nodes = (
"246.857 991 CURVE",
"77.857 991 LINE",
"75.035 975 LINE",
"235.881 821 OFFCURVE",
"289 604 OFFCURVE",
"250 382 CURVE SMOOTH",
"211 160 OFFCURVE",
"88.119 -17 OFFCURVE",
"-127.035 -171 CURVE",
"-129.857 -187 LINE",
"39.143 -187 LINE",
"215.95 -69 OFFCURVE",
"369 113 OFFCURVE",
"415 383 CURVE SMOOTH",
"459 641 OFFCURVE",
"382.05 873 OFFCURVE"
);
}
);
width = 482;
}
);
unicode = 0029;
userData = {
public.markColor = "0.97,1,0,1";
};
},
{
color = 3;
glyphname = asterisk;
lastChange = "2017-08-08 23:18:27 +0000";
layers = (
{
layerId = "C0ED9D5D-A651-429A-8F5D-D93A2EDA2DC0";
paths = (
{
closed = 1;
nodes = (
"275 732 LINE",
"202 732 LINE",
"218 575 LINE",
"91 669 LINE",
"54 603 LINE",
"201 546 LINE",
"54 489 LINE",
"91 423 LINE",
"218 517 LINE",
"202 360 LINE",
"275 360 LINE",
"256 517 LINE",
"381 425 LINE",
"416 489 LINE",
"268 546 LINE",
"416 603 LINE",
"381 667 LINE",
"256 575 LINE"
);
}
);
width = 481;
},
{
layerId = "22D14058-393A-410A-BECB-F56B411A01B2";
paths = (
{
closed = 1;
nodes = (
"329 740 LINE",
"210 740 LINE",
"236 608 LINE",
"132 695 LINE",
"75 592 LINE",
"197 552 LINE",
"74 509 LINE",
"136 401 LINE",
"235 490 LINE",
"211 360 LINE",
"328 360 LINE",
"303 490 LINE",
"403 402 LINE",
"463 508 LINE",
"340 550 LINE",
"463 593 LINE",
"407 695 LINE",
"303 608 LINE"
);
}
);
width = 534;
},
{
layerId = "3C02C8EC-C43C-4762-8B99-FE4CB64E6532";
paths = (
{
closed = 1;
nodes = (
"307.797 732 LINE",
"234.797 732 LINE",
"223.113 575 LINE",
"112.688 669 LINE",
"64.051 603 LINE",
"201 546 LINE",
"43.949 489 LINE",
"69.312 423 LINE",
"212.887 517 LINE",
"169.203 360 LINE",
"242.203 360 LINE",
"250.887 517 LINE",
"359.664 425 LINE",
"405.949 489 LINE",
"268 546 LINE",
"426.051 603 LINE",
"402.336 667 LINE",
"261.113 575 LINE"
);
}
);
width = 481;
},
{
layerId = "AD4288EF-621A-4539-AF14-1A70F42B46A9";
paths = (
{
closed = 1;
nodes = (
"362.502 740 LINE",
"243.502 740 LINE",
"246.227 608 LINE",
"157.567 695 LINE",
"82.406 592 LINE",
"197.353 552 LINE",
"66.771 509 LINE",
"109.727 401 LINE",
"224.42 490 LINE",
"177.498 360 LINE",
"294.498 360 LINE",
"292.42 490 LINE",
"376.904 402 LINE",
"455.594 508 LINE",
"340 550 LINE",
"470.582 593 LINE",
"432.567 695 LINE",
"313.227 608 LINE"
);
}
);
width = 534;
}
);
unicode = 002A;
userData = {
public.markColor = "0.97,1,0,1";
};
},
{
color = 3;
glyphname = plus;
lastChange = "2017-08-08 23:18:27 +0000";
layers = (
{
layerId = "C0ED9D5D-A651-429A-8F5D-D93A2EDA2DC0";
paths = (
{
closed = 1;
nodes = (
"350 625 LINE",
"350 115 LINE",
"415 115 LINE",
"415 625 LINE"
);
},
{
closed = 1;
nodes = (
"128 340 LINE",
"637 340 LINE",
"637 400 LINE",
"128 400 LINE"
);
}
);
width = 765;
},
{
layerId = "22D14058-393A-410A-BECB-F56B411A01B2";
paths = (
{
closed = 1;
nodes = (
"243 605 LINE",
"243 95 LINE",
"407 95 LINE",
"407 605 LINE"
);
},
{
closed = 1;
nodes = (
"70 272 LINE",
"580 272 LINE",
"580 427 LINE",
"70 427 LINE"
);
}
);
width = 650;
},
{
layerId = "3C02C8EC-C43C-4762-8B99-FE4CB64E6532";
paths = (
{
closed = 1;
nodes = (
"394.963 625 LINE",
"305.037 115 LINE",
"370.037 115 LINE",
"459.963 625 LINE"
);
},
{
closed = 1;
nodes = (
"122.71 340 LINE",
"631.71 340 LINE",
"642.29 400 LINE",
"133.29 400 LINE"
);
}
);
width = 765;
},
{
layerId = "AD4288EF-621A-4539-AF14-1A70F42B46A9";
paths = (
{
closed = 1;
nodes = (
"287.963 605 LINE",
"198.037 95 LINE",
"362.037 95 LINE",
"451.963 605 LINE"
);
},
{
closed = 1;
nodes = (
"56.246 272 LINE",
"566.247 272 LINE",
"593.577 427 LINE",
"83.577 427 LINE"
);
}
);
width = 650;
}
);
unicode = 002B;
userData = {
public.markColor = "0.97,1,0,1";
};
},
{
color = 8;
glyphname = comma;
lastChange = "2017-08-08 23:18:27 +0000";
layers = (
{
layerId = "C0ED9D5D-A651-429A-8F5D-D93A2EDA2DC0";
paths = (
{
closed = 1;
nodes = (
"41 56 LINE",
"41 -20 LINE",
"86 -20 LINE",
"86 -45 LINE SMOOTH",
"86 -77 OFFCURVE",
"73 -94 OFFCURVE",
"40 -94 CURVE",
"40 -132 LINE",
"116 -132 OFFCURVE",
"149 -87 OFFCURVE",
"122 56 CURVE"
);
}
);
width = 172;
},
{
layerId = "22D14058-393A-410A-BECB-F56B411A01B2";
paths = (
{
closed = 1;
nodes = (
"30 106 LINE",
"30 -47 LINE",
"103 -47 LINE",
"103 -63 LINE SMOOTH",
"103 -108 OFFCURVE",
"85 -119 OFFCURVE",
"51 -119 CURVE",
"51 -184 LINE",
"216 -184 OFFCURVE",
"226 -17 OFFCURVE",
"171 106 CURVE"
);
}
);
width = 241;
},
{
layerId = "3C02C8EC-C43C-4762-8B99-FE4CB64E6532";
paths = (
{
closed = 1;
nodes = (
"57.575 56 LINE",
"44.174 -20 LINE",
"89.174 -20 LINE",
"84.766 -45 LINE SMOOTH",
"79.123 -77 OFFCURVE",
"63.126 -94 OFFCURVE",
"30.126 -94 CURVE",
"23.425 -132 LINE",
"99.425 -132 OFFCURVE",
"140.36 -87 OFFCURVE",
"138.575 56 CURVE"
);
}
);
width = 172;
},
{
layerId = "AD4288EF-621A-4539-AF14-1A70F42B46A9";
paths = (
{
closed = 1;
nodes = (
"55.567 106 LINE",
"28.589 -47 LINE",
"101.589 -47 LINE",
"98.768 -63 LINE SMOOTH",
"90.833 -108 OFFCURVE",
"70.894 -119 OFFCURVE",
"36.894 -119 CURVE",
"25.433 -184 LINE",
"190.433 -184 OFFCURVE",
"229.879 -17 OFFCURVE",
"196.567 106 CURVE"
);
}
);
width = 241;
}
);
unicode = 002C;
userData = {
public.markColor = "0.5,0.09,0.79,1";
};
},
{
color = 3;
glyphname = period;
lastChange = "2017-08-08 23:18:27 +0000";
layers = (
{
layerId = "C0ED9D5D-A651-429A-8F5D-D93A2EDA2DC0";
paths = (
{
closed = 1;
nodes = (
"60 0 LINE",
"159 0 LINE",
"159 98 LINE",
"60 98 LINE"
);
}
);
width = 218;
},
{
layerId = "22D14058-393A-410A-BECB-F56B411A01B2";
paths = (
{
closed = 1;
nodes = (
"45 0 LINE",
"212 0 LINE",
"212 176 LINE",
"45 176 LINE"
);
}
);
width = 257;
},
{
layerId = "3C02C8EC-C43C-4762-8B99-FE4CB64E6532";
paths = (
{
closed = 1;
nodes = (
"51.36 0 LINE",
"150.36 0 LINE",
"167.64 98 LINE",
"68.64 98 LINE"
);
}
);
width = 218;
},
{
layerId = "AD4288EF-621A-4539-AF14-1A70F42B46A9";
paths = (
{
closed = 1;
nodes = (
"29.483 0 LINE",
"196.483 0 LINE",
"227.517 176 LINE",
"60.517 176 LINE"
);
}
);
width = 257;
}
);
unicode = 002E;
userData = {
public.markColor = "0.97,1,0,1";
};
},
{
color = 3;
glyphname = slash;
lastChange = "2017-08-08 23:18:27 +0000";
layers = (
{
layerId = "C0ED9D5D-A651-429A-8F5D-D93A2EDA2DC0";
paths = (
{
closed = 1;
nodes = (
"101 -166 LINE",
"101 -166 OFFCURVE",
"171 -166 OFFCURVE",
"171 -166 CURVE",
"446 940 LINE",
"446 940 OFFCURVE",
"375 940 OFFCURVE",
"375 940 CURVE"
);
}
);
width = 562;
},
{
layerId = "22D14058-393A-410A-BECB-F56B411A01B2";
paths = (
{
closed = 1;
nodes = (
"10 -187 LINE",
"10 -187 OFFCURVE",
"175 -187 OFFCURVE",
"175 -187 CURVE",
"443 950 LINE",
"443 950 OFFCURVE",
"278 950 OFFCURVE",
"278 950 CURVE"
);
}
);
width = 453;
},
{
layerId = "3C02C8EC-C43C-4762-8B99-FE4CB64E6532";
paths = (
{
closed = 1;
nodes = (
"3.491 -166 LINE",
"3.491 -166 OFFCURVE",
"73.491 -166 OFFCURVE",
"73.491 -166 CURVE",
"543.509 940 LINE",
"543.509 940 OFFCURVE",
"472.509 940 OFFCURVE",
"472.509 940 CURVE"
);
}
);
width = 562;
},
{
layerId = "AD4288EF-621A-4539-AF14-1A70F42B46A9";
paths = (
{
closed = 1;
nodes = (
"-90.242 -187 LINE",
"-90.242 -187 OFFCURVE",
"74.758 -187 OFFCURVE",
"74.758 -187 CURVE",
"543.242 950 LINE",
"543.242 950 OFFCURVE",
"378.242 950 OFFCURVE",
"378.242 950 CURVE"
);
}
);
width = 453;
}
);
unicode = 002F;
userData = {
public.markColor = "0.97,1,0,1";
};
},
{
color = 3;
glyphname = zero;
lastChange = "2017-08-08 23:18:27 +0000";
layers = (
{
layerId = "C0ED9D5D-A651-429A-8F5D-D93A2EDA2DC0";
paths = (
{
closed = 1;
nodes = (
"315 733 CURVE SMOOTH",
"516 733 OFFCURVE",
"558 569 OFFCURVE",
"558 367 CURVE",
"558 165 OFFCURVE",
"516 1 OFFCURVE",
"315 1 CURVE SMOOTH",
"114 1 OFFCURVE",
"72 165 OFFCURVE",
"72 367 CURVE",
"72 569 OFFCURVE",
"114 733 OFFCURVE"
);
},
{
closed = 1;
nodes = (
"315 673 CURVE SMOOTH",
"157 673 OFFCURVE",
"139 525 OFFCURVE",
"139 367 CURVE SMOOTH",
"139 209 OFFCURVE",
"157 61 OFFCURVE",
"315 61 CURVE SMOOTH",
"473 61 OFFCURVE",
"491 209 OFFCURVE",
"491 367 CURVE",
"491 525 OFFCURVE",
"473 673 OFFCURVE"
);
}
);
width = 632;
},
{
layerId = "22D14058-393A-410A-BECB-F56B411A01B2";
paths = (
{
closed = 1;
nodes = (
"326 725 CURVE SMOOTH",
"534 725 OFFCURVE",
"607 569 OFFCURVE",
"607 364 CURVE",
"607 159 OFFCURVE",
"534 3 OFFCURVE",
"326 3 CURVE SMOOTH",
"118 3 OFFCURVE",
"45 159 OFFCURVE",
"45 364 CURVE",
"45 569 OFFCURVE",
"118 725 OFFCURVE"
);
},
{
closed = 1;
nodes = (
"326 565 CURVE",
"225 565 OFFCURVE",
"213 469 OFFCURVE",
"213 364 CURVE SMOOTH",
"213 259 OFFCURVE",
"225 163 OFFCURVE",
"326 163 CURVE SMOOTH",
"427 163 OFFCURVE",
"439 259 OFFCURVE",
"439 364 CURVE",
"439 469 OFFCURVE",
"427 565 OFFCURVE"
);
}
);
width = 652;
},
{
layerId = "3C02C8EC-C43C-4762-8B99-FE4CB64E6532";
paths = (
{
closed = 1;
nodes = (
"379.536 733 CURVE SMOOTH",
"580.536 733 OFFCURVE",
"594 569 OFFCURVE",
"558 367 CURVE SMOOTH",
"522 165 OFFCURVE",
"451.464 1 OFFCURVE",
"250.464 1 CURVE SMOOTH",
"49.464 1 OFFCURVE",
"36 165 OFFCURVE",
"72 367 CURVE SMOOTH",
"108 569 OFFCURVE",
"178.536 733 OFFCURVE"
);
},
{
closed = 1;
nodes = (
"368.956 673 CURVE SMOOTH",
"210.956 673 OFFCURVE",
"166.86 525 OFFCURVE",
"139 367 CURVE SMOOTH",
"111.14 209 OFFCURVE",
"103.044 61 OFFCURVE",
"261.044 61 CURVE SMOOTH",
"419.044 61 OFFCURVE",
"463 209 OFFCURVE",
"491 367 CURVE SMOOTH",
"519 525 OFFCURVE",
"526.956 673 OFFCURVE"
);
}
);
width = 632;
},
{
layerId = "AD4288EF-621A-4539-AF14-1A70F42B46A9";
paths = (
{
closed = 1;
nodes = (
"389.654 725 CURVE SMOOTH",
"597.654 725 OFFCURVE",
"643.147 569 OFFCURVE",
"607 364 CURVE",
"570.853 159 OFFCURVE",
"470.346 3 OFFCURVE",
"262.346 3 CURVE SMOOTH",
"54.346 3 OFFCURVE",
"8.853 159 OFFCURVE",
"45 364 CURVE",
"81.147 569 OFFCURVE",
"181.654 725 OFFCURVE"
);
},
{
closed = 1;
nodes = (
"361.442 565 CURVE",
"260.442 565 OFFCURVE",
"231.514 469 OFFCURVE",
"213 364 CURVE SMOOTH",
"194.486 259 OFFCURVE",
"189.558 163 OFFCURVE",
"290.558 163 CURVE SMOOTH",
"391.558 163 OFFCURVE",
"420.486 259 OFFCURVE",
"439 364 CURVE",
"457.514 469 OFFCURVE",
"462.442 565 OFFCURVE"
);
}
);
width = 652;
}
);
unicode = 0030;
userData = {
public.markColor = "0.97,1,0,1";
};
},
{
color = 3;
glyphname = one;
lastChange = "2017-08-08 23:18:27 +0000";
layers = (
{
layerId = "C0ED9D5D-A651-429A-8F5D-D93A2EDA2DC0";
paths = (
{
closed = 1;
nodes = (
"130 0 LINE",
"195 0 LINE",
"195 710 LINE",
"59 710 LINE",
"59 650 LINE",
"130 650 LINE"
);
}
);
width = 295;
},
{
layerId = "22D14058-393A-410A-BECB-F56B411A01B2";
paths = (
{
closed = 1;
nodes = (
"149 0 LINE",
"326 0 LINE",
"326 710 LINE",
"28 710 LINE",
"28 551 LINE",
"149 551 LINE"
);
}
);
width = 421;
},
{
layerId = "3C02C8EC-C43C-4762-8B99-FE4CB64E6532";
paths = (
{
closed = 1;
nodes = (
"67.404 0 LINE",
"132.404 0 LINE",
"257.596 710 LINE",
"121.596 710 LINE",
"111.016 650 LINE",
"182.016 650 LINE"
);
}
);
width = 295;
},
{
layerId = "AD4288EF-621A-4539-AF14-1A70F42B46A9";
paths = (
{
closed = 1;
nodes = (
"86.404 0 LINE",
"263.404 0 LINE",
"388.596 710 LINE",
"90.596 710 LINE",
"62.56 551 LINE",
"183.56 551 LINE"
);
}
);
width = 421;
}
);
unicode = 0031;
userData = {
public.markColor = "0.97,1,0,1";
};
},
{
color = 3;
glyphname = two;
lastChange = "2017-08-08 23:18:27 +0000";
layers = (
{
layerId = "C0ED9D5D-A651-429A-8F5D-D93A2EDA2DC0";
paths = (
{
closed = 1;
nodes = (
"61 10 LINE",
"533 10 LINE",
"533 70 LINE",
"172 70 LINE",
"293 180 OFFCURVE",
"509 339 OFFCURVE",
"509 524 CURVE SMOOTH",
"509 663 OFFCURVE",
"416 736 OFFCURVE",
"289 736 CURVE SMOOTH",
"159 736 OFFCURVE",
"68 655 OFFCURVE",
"61 506 CURVE",
"127 506 LINE",
"132 602 OFFCURVE",
"184 676 OFFCURVE",
"290 676 CURVE SMOOTH",
"404 676 OFFCURVE",
"442 605 OFFCURVE",
"442 522 CURVE SMOOTH",
"442 366 OFFCURVE",
"245 219 OFFCURVE",
"61 58 CURVE"
);
}
);
width = 581;
},
{
layerId = "22D14058-393A-410A-BECB-F56B411A01B2";
paths = (
{
closed = 1;
nodes = (
"39 10 LINE",
"541 10 LINE",
"541 149 LINE",
"281 149 LINE",
"392 253 OFFCURVE",
"528 358 OFFCURVE",
"528 510 CURVE SMOOTH",
"528 620 OFFCURVE",
"454 730 OFFCURVE",
"281 730 CURVE SMOOTH",
"152 730 OFFCURVE",
"37 657 OFFCURVE",
"37 487 CURVE",
"202 487 LINE",
"202 552 OFFCURVE",
"233 586 OFFCURVE",
"280 586 CURVE SMOOTH",
"329 586 OFFCURVE",
"355 557 OFFCURVE",
"355 501 CURVE SMOOTH",
"355 389 OFFCURVE",
"194 275 OFFCURVE",
"39 137 CURVE"
);
}
);
width = 571;
},
{
layerId = "3C02C8EC-C43C-4762-8B99-FE4CB64E6532";
paths = (
{
closed = 1;
nodes = (
"-3.007 10 LINE",
"468.993 10 LINE",
"479.573 70 LINE",
"118.573 70 LINE",
"279 180 OFFCURVE",
"503.005 339 OFFCURVE",
"535.625 524 CURVE SMOOTH",
"560.107 662.842 OFFCURVE",
"482.132 736 OFFCURVE",
"360 736 CURVE SMOOTH",
"226.611 736 OFFCURVE",
"117.766 655.187 OFFCURVE",
"84.451 506 CURVE",
"150.451 506 LINE",
"172.419 602.176 OFFCURVE",
"240.146 676 OFFCURVE",
"350 676 CURVE SMOOTH",
"457.63 676 OFFCURVE",
"482.884 604.864 OFFCURVE",
"468.273 522 CURVE SMOOTH",
"440.766 366 OFFCURVE",
"238 219 OFFCURVE",
"5.457 58 CURVE"
);
}
);
width = 581;
},
{
layerId = "AD4288EF-621A-4539-AF14-1A70F42B46A9";
paths = (
{
closed = 1;
nodes = (
"-24.478 10 LINE",
"477.522 10 LINE",
"502.032 149 LINE",
"242.032 149 LINE",
"381 243 OFFCURVE",
"525.884 358 OFFCURVE",
"552.686 510 CURVE SMOOTH",
"572.099 620.097 OFFCURVE",
"515.974 730 OFFCURVE",
"338 730 CURVE SMOOTH",
"211.703 730 OFFCURVE",
"87.587 656.894 OFFCURVE",
"57.63 487 CURVE",
"222.63 487 LINE",
"234.092 552 OFFCURVE",
"271.087 586 OFFCURVE",
"318.087 586 CURVE SMOOTH",
"367.087 586 OFFCURVE",
"387.973 557 OFFCURVE",
"378.099 501 CURVE SMOOTH",
"358.35 389 OFFCURVE",
"177 255 OFFCURVE",
"-2.084 137 CURVE"
);
}
);
width = 571;
}
);
unicode = 0032;
userData = {
public.markColor = "0.97,1,0,1";
};
},
{
color = 3;
glyphname = three;
lastChange = "2017-08-08 23:18:27 +0000";
layers = (
{
layerId = "C0ED9D5D-A651-429A-8F5D-D93A2EDA2DC0";
paths = (
{
closed = 1;
nodes = (
"62 569 CURVE",
"129 569 LINE",
"141 645 OFFCURVE",
"201 687 OFFCURVE",
"290 687 CURVE SMOOTH",
"395 687 OFFCURVE",
"444 633 OFFCURVE",
"444 554 CURVE SMOOTH",
"444 468 OFFCURVE",
"376 424 OFFCURVE",
"237 423 CURVE SMOOTH",
"214 423 LINE",
"214 364 LINE",
"236 364 LINE SMOOTH",
"377 364 OFFCURVE",
"458 325 OFFCURVE",
"458 204 CURVE SMOOTH",
"458 121 OFFCURVE",
"406 56 OFFCURVE",
"296 56 CURVE SMOOTH",
"191 56 OFFCURVE",
"127 118 OFFCURVE",
"118 195 CURVE",
"53 195 LINE",
"66 68 OFFCURVE",
"164 -4 OFFCURVE",
"297 -4 CURVE SMOOTH",
"446 -4 OFFCURVE",
"522 88 OFFCURVE",
"522 195 CURVE SMOOTH",
"522 302 OFFCURVE",
"470 371 OFFCURVE",
"386 392 CURVE",
"386 397 LINE",
"462 420 OFFCURVE",
"509 486 OFFCURVE",
"509 561 CURVE SMOOTH",
"509 665 OFFCURVE",
"432 747 OFFCURVE",
"292 747 CURVE SMOOTH",
"172 747 OFFCURVE",
"75 682 OFFCURVE"
);
}
);
width = 585;
},
{
layerId = "22D14058-393A-410A-BECB-F56B411A01B2";
paths = (
{
closed = 1;
nodes = (
"54 524 CURVE",
"220 524 LINE",
"221 542 OFFCURVE",
"229 598 OFFCURVE",
"296 598 CURVE SMOOTH",
"340 598 OFFCURVE",
"371 572 OFFCURVE",
"371 528 CURVE SMOOTH",
"371 462 OFFCURVE",
"315 448 OFFCURVE",
"257 448 CURVE SMOOTH",
"225 448 LINE",
"225 309 LINE",
"257 309 LINE SMOOTH",
"348 309 OFFCURVE",
"385 283 OFFCURVE",
"385 220 CURVE SMOOTH",
"385 171 OFFCURVE",
"356 136 OFFCURVE",
"303 136 CURVE SMOOTH",
"240 136 OFFCURVE",
"209 174 OFFCURVE",
"208 231 CURVE",
"42 231 LINE",
"42 67 OFFCURVE",
"160 -4 OFFCURVE",
"303 -4 CURVE SMOOTH",
"459 -4 OFFCURVE",
"550 78 OFFCURVE",
"550 207 CURVE SMOOTH",
"550 300 OFFCURVE",
"505 354 OFFCURVE",
"438 380 CURVE",
"438 384 LINE",
"470 397 OFFCURVE",
"537 447 OFFCURVE",
"537 549 CURVE SMOOTH",
"537 658 OFFCURVE",
"455 744 OFFCURVE",
"303 744 CURVE SMOOTH",
"154 744 OFFCURVE",
"54 666 OFFCURVE"
);
}
);
width = 605;
},
{
layerId = "3C02C8EC-C43C-4762-8B99-FE4CB64E6532";
paths = (
{
closed = 1;
nodes = (
"96.825 569 CURVE",
"163.825 569 LINE",
"189.225 645 OFFCURVE",
"256.631 687 OFFCURVE",
"345.631 687 CURVE SMOOTH",
"450.631 687 OFFCURVE",
"490.109 633 OFFCURVE",
"476.18 554 CURVE SMOOTH",
"461.016 468 OFFCURVE",
"385.257 424 OFFCURVE",
"246.081 423 CURVE SMOOTH",
"223.081 423 LINE",
"212.678 364 LINE",
"234.678 364 LINE SMOOTH",
"375.678 364 OFFCURVE",
"451.332 322.327 OFFCURVE",
"428 194 CURVE SMOOTH",
"414.919 116.448 OFFCURVE",
"350.369 56 OFFCURVE",
"240.369 56 CURVE SMOOTH",
"135 56 OFFCURVE",
"82.301 118 OFFCURVE",
"86.878 195 CURVE",
"21.878 195 LINE",
"12.484 67.983 OFFCURVE",
"99.82 -4 OFFCURVE",
"236 -4 CURVE SMOOTH",
"382.133 -4 OFFCURVE",
"472.925 83.208 OFFCURVE",
"491 185 CURVE SMOOTH",
"510.936 297.269 OFFCURVE",
"470.179 370.93 OFFCURVE",
"389.615 392 CURVE",
"390.496 397 LINE",
"470.552 420 OFFCURVE",
"529.189 486 OFFCURVE",
"542.414 561 CURVE SMOOTH",
"560.752 665 OFFCURVE",
"498 747 OFFCURVE",
"358.211 747 CURVE SMOOTH",
"228 747 OFFCURVE",
"129.75 682 OFFCURVE"
);
}
);
width = 585;
},
{
layerId = "AD4288EF-621A-4539-AF14-1A70F42B46A9";
paths = (
{
closed = 1;
nodes = (
"81.154 524 CURVE",
"247.154 524 LINE",
"251.328 542 OFFCURVE",
"269.203 598 OFFCURVE",
"336.203 598 CURVE SMOOTH",
"380.203 598 OFFCURVE",
"406.618 572 OFFCURVE",
"398.86 528 CURVE SMOOTH",
"387.222 462 OFFCURVE",
"328.754 448 OFFCURVE",
"270.754 448 CURVE SMOOTH",
"238.754 448 LINE",
"214.244 309 LINE",
"246.244 309 LINE SMOOTH",
"337.244 309 OFFCURVE",
"370 283 OFFCURVE",
"359 220 CURVE SMOOTH",
"350 171 OFFCURVE",
"314.739 136 OFFCURVE",
"261.739 136 CURVE SMOOTH",
"198.739 136 OFFCURVE",
"174.44 174 OFFCURVE",
"183.491 231 CURVE",
"17.491 231 LINE",
"-1.021 74.826 OFFCURVE",
"99.925 -4 OFFCURVE",
"254 -4 CURVE SMOOTH",
"400.629 -4 OFFCURVE",
"499.15 73.745 OFFCURVE",
"520 196 CURVE SMOOTH",
"538.041 294.693 OFFCURVE",
"502.134 354.019 OFFCURVE",
"439.763 380 CURVE",
"440.469 384 LINE",
"474.507 396.904 OFFCURVE",
"552.057 442.989 OFFCURVE",
"569 539 CURVE SMOOTH",
"588.976 653.602 OFFCURVE",
"518.6 744 OFFCURVE",
"359 744 CURVE SMOOTH",
"215.176 744 OFFCURVE",
"106.167 665.854 OFFCURVE"
);
}
);
width = 605;
}
);
unicode = 0033;
userData = {
public.markColor = "0.97,1,0,1";
};
},
{
color = 3;
glyphname = four;
lastChange = "2017-08-08 23:18:27 +0000";
layers = (
{
layerId = "C0ED9D5D-A651-429A-8F5D-D93A2EDA2DC0";
paths = (
{
closed = 1;
nodes = (
"426 0 LINE",
"491 0 LINE",
"491 170 LINE",
"593 170 LINE",
"593 230 LINE",
"491 230 LINE",
"491 720 LINE",
"395 720 LINE",
"44 215 LINE",
"44 170 LINE",
"426 170 LINE"
);
},
{
closed = 1;
nodes = (
"128 230 LINE",
"426 665 LINE",
"426 230 LINE"
);
}
);
width = 623;
},
{
layerId = "22D14058-393A-410A-BECB-F56B411A01B2";
paths = (
{
closed = 1;
nodes = (
"385 0 LINE",
"556 0 LINE",
"556 130 LINE",
"638 130 LINE",
"638 278 LINE",
"556 278 LINE",
"556 720 LINE",
"365 720 LINE",
"49 268 LINE",
"49 130 LINE",
"385 130 LINE"
);
},
{
closed = 1;
nodes = (
"239 278 LINE",
"397 526 LINE",
"397 278 LINE"
);
}
);
width = 677;
},
{
layerId = "3C02C8EC-C43C-4762-8B99-FE4CB64E6532";
paths = (
{
closed = 1;
nodes = (
"362.522 0 LINE",
"427.522 0 LINE",
"457.498 170 LINE",
"559.498 170 LINE",
"570.078 230 LINE",
"468.077 230 LINE",
"554.478 720 LINE",
"458.478 720 LINE",
"18.433 215 LINE",
"10.498 170 LINE",
"392.498 170 LINE"
);
},
{
closed = 1;
nodes = (
"105.077 230 LINE",
"479.78 665 LINE",
"403.077 230 LINE"
);
}
);
width = 623;
},
{
layerId = "AD4288EF-621A-4539-AF14-1A70F42B46A9";
paths = (
{
closed = 1;
nodes = (
"332 0 LINE",
"503 0 LINE",
"525 130 LINE",
"607 130 LINE",
"634 278 LINE",
"552 278 LINE",
"629 720 LINE",
"438 720 LINE",
"33 268 LINE",
"8 130 LINE",
"354 130 LINE"
);
},
{
closed = 1;
nodes = (
"225 278 LINE",
"436 526 LINE",
"393 278 LINE"
);
}
);
width = 677;
}
);
unicode = 0034;
userData = {
public.markColor = "0.97,1,0,1";
};
},
{
color = 3;
glyphname = five;
lastChange = "2017-08-08 23:18:27 +0000";
layers = (
{
layerId = "C0ED9D5D-A651-429A-8F5D-D93A2EDA2DC0";
paths = (
{
closed = 1;
nodes = (
"89 731 LINE",
"89 325 LINE",
"151 325 LINE",
"181 396 OFFCURVE",
"240 441 OFFCURVE",
"320 441 CURVE SMOOTH",
"440 441 OFFCURVE",
"498 374 OFFCURVE",
"498 254 CURVE SMOOTH",
"498 143 OFFCURVE",
"442 60 OFFCURVE",
"320 60 CURVE SMOOTH",
"226 60 OFFCURVE",
"160 109 OFFCURVE",
"138 190 CURVE",
"73 190 LINE",
"95 79 OFFCURVE",
"178 0 OFFCURVE",
"320 0 CURVE SMOOTH",
"489 0 OFFCURVE",
"563 117 OFFCURVE",
"563 256 CURVE SMOOTH",
"563 372 OFFCURVE",
"507 502 OFFCURVE",
"330 502 CURVE SMOOTH",
"254 502 OFFCURVE",
"183 462 OFFCURVE",
"154 415 CURVE",
"154 671 LINE",
"516 671 LINE",
"516 731 LINE"
);
}
);
width = 630;
},
{
layerId = "22D14058-393A-410A-BECB-F56B411A01B2";
paths = (
{
closed = 1;
nodes = (
"92 731 LINE",
"92 290 LINE",
"257 290 LINE",
"263 323 OFFCURVE",
"291 351 OFFCURVE",
"341 351 CURVE SMOOTH",
"403 351 OFFCURVE",
"436 312 OFFCURVE",
"436 249 CURVE SMOOTH",
"436 186 OFFCURVE",
"407 140 OFFCURVE",
"341 140 CURVE SMOOTH",
"286 140 OFFCURVE",
"251 168 OFFCURVE",
"244 206 CURVE",
"75 206 LINE",
"87 89 OFFCURVE",
"179 0 OFFCURVE",
"338 0 CURVE SMOOTH",
"507 0 OFFCURVE",
"601 100 OFFCURVE",
"601 254 CURVE SMOOTH",
"601 356 OFFCURVE",
"547 493 OFFCURVE",
"367 493 CURVE SMOOTH",
"315 493 OFFCURVE",
"272 475 OFFCURVE",
"247 453 CURVE",
"247 581 LINE",
"548 581 LINE",
"548 731 LINE"
);
}
);
width = 650;
},
{
layerId = "3C02C8EC-C43C-4762-8B99-FE4CB64E6532";
paths = (
{
closed = 1;
nodes = (
"153.448 731 LINE",
"81.859 325 LINE",
"143.859 325 LINE",
"186.983 397.01 OFFCURVE",
"259 441 OFFCURVE",
"343 441 CURVE SMOOTH",
"449 441 OFFCURVE",
"499.456 373.759 OFFCURVE",
"478.34 254 CURVE SMOOTH",
"458.767 143 OFFCURVE",
"388.132 60 OFFCURVE",
"266.132 60 CURVE SMOOTH",
"172.132 60 OFFCURVE",
"114.772 109 OFFCURVE",
"107.055 190 CURVE",
"42.055 190 LINE",
"44.482 78.999 OFFCURVE",
"115.681 0 OFFCURVE",
"261 0 CURVE SMOOTH",
"427.063 0 OFFCURVE",
"519.195 117.072 OFFCURVE",
"543.692 256 CURVE SMOOTH",
"564.114 371.82 OFFCURVE",
"526 502 OFFCURVE",
"364 502 CURVE SMOOTH",
"284 502 OFFCURVE",
"200.78 462.964 OFFCURVE",
"162.728 415 CURVE",
"207.868 671 LINE",
"569.868 671 LINE",
"580.448 731 LINE"
);
}
);
width = 630;
},
{
layerId = "AD4288EF-621A-4539-AF14-1A70F42B46A9";
paths = (
{
closed = 1;
nodes = (
"156.448 731 LINE",
"78.687 290 LINE",
"243.687 290 LINE",
"255.506 323 OFFCURVE",
"288.443 351 OFFCURVE",
"338.443 351 CURVE SMOOTH",
"400.443 351 OFFCURVE",
"426.566 312 OFFCURVE",
"415.458 249 CURVE SMOOTH",
"404.349 186 OFFCURVE",
"367.238 140 OFFCURVE",
"301.238 140 CURVE SMOOTH",
"246.238 140 OFFCURVE",
"216.175 168 OFFCURVE",
"215.876 206 CURVE",
"46.876 206 LINE",
"48 89 OFFCURVE",
"120.099 0 OFFCURVE",
"291 0 CURVE SMOOTH",
"450.652 0 OFFCURVE",
"555.031 95.879 OFFCURVE",
"581 244 CURVE SMOOTH",
"599.731 350.141 OFFCURVE",
"569.482 493 OFFCURVE",
"389.482 493 CURVE SMOOTH",
"337.482 493 OFFCURVE",
"291.308 475 OFFCURVE",
"262.429 453 CURVE",
"284.998 581 LINE",
"585.998 581 LINE",
"612.448 731 LINE"
);
}
);
width = 650;
}
);
unicode = 0035;
userData = {
public.markColor = "0.97,1,0,1";
};
},
{
color = 3;
glyphname = six;
lastChange = "2017-08-08 23:18:27 +0000";
layers = (
{
layerId = "C0ED9D5D-A651-429A-8F5D-D93A2EDA2DC0";
paths = (
{
closed = 1;
nodes = (
"550 576 LINE",
"539 666 OFFCURVE",
"467 747 OFFCURVE",
"338 747 CURVE SMOOTH",
"157 747 OFFCURVE",
"85 602 OFFCURVE",
"85 389 CURVE SMOOTH",
"85 176 OFFCURVE",
"118 0 OFFCURVE",
"343 0 CURVE SMOOTH",
"504 0 OFFCURVE",
"576 112 OFFCURVE",
"576 242 CURVE SMOOTH",
"576 394 OFFCURVE",
"484 485 OFFCURVE",
"352 485 CURVE SMOOTH",
"255 485 OFFCURVE",
"178 440 OFFCURVE",
"142 369 CURVE",
"146 611 OFFCURVE",
"211 687 OFFCURVE",
"338 687 CURVE SMOOTH",
"426 687 OFFCURVE",
"469 652 OFFCURVE",
"488 576 CURVE"
);
},
{
closed = 1;
nodes = (
"339 424 CURVE SMOOTH",
"455 424 OFFCURVE",
"512 355 OFFCURVE",
"512 238 CURVE SMOOTH",
"512 128 OFFCURVE",
"445 60 OFFCURVE",
"342 60 CURVE SMOOTH",
"211 60 OFFCURVE",
"155 139 OFFCURVE",
"155 248 CURVE SMOOTH",
"155 372 OFFCURVE",
"252 424 OFFCURVE"
);
}
);
width = 646;
},
{
layerId = "22D14058-393A-410A-BECB-F56B411A01B2";
paths = (
{
closed = 1;
nodes = (
"565 539 LINE",
"552 645 OFFCURVE",
"482 747 OFFCURVE",
"325 747 CURVE SMOOTH",
"142 747 OFFCURVE",
"59 617 OFFCURVE",
"59 370 CURVE",
"59 115 OFFCURVE",
"143 0 OFFCURVE",
"339 0 CURVE SMOOTH",
"489 0 OFFCURVE",
"584 95 OFFCURVE",
"584 245 CURVE SMOOTH",
"584 397 OFFCURVE",
"490 480 OFFCURVE",
"361 480 CURVE SMOOTH",
"312 480 OFFCURVE",
"246 464 OFFCURVE",
"211 419 CURVE",
"212 546 OFFCURVE",
"249 607 OFFCURVE",
"322 607 CURVE SMOOTH",
"374 607 OFFCURVE",
"398 577 OFFCURVE",
"406 539 CURVE"
);
},
{
closed = 1;
nodes = (
"320 339 CURVE SMOOTH",
"391 339 OFFCURVE",
"418 287 OFFCURVE",
"418 239 CURVE SMOOTH",
"418 182 OFFCURVE",
"387 139 OFFCURVE",
"325 139 CURVE SMOOTH",
"272 139 OFFCURVE",
"224 176 OFFCURVE",
"224 241 CURVE SMOOTH",
"224 303 OFFCURVE",
"262 339 OFFCURVE"
);
}
);
width = 637;
},
{
layerId = "3C02C8EC-C43C-4762-8B99-FE4CB64E6532";
paths = (
{
closed = 1;
nodes = (
"585.706 576 LINE",
"581 662.996 OFFCURVE",
"530.872 747 OFFCURVE",
"397 747 CURVE SMOOTH",
"210.188 747 OFFCURVE",
"125.267 601.863 OFFCURVE",
"87.733 389 CURVE SMOOTH",
"50.145 175.828 OFFCURVE",
"61.32 0 OFFCURVE",
"282 0 CURVE SMOOTH",
"440.081 0 OFFCURVE",
"529 112 OFFCURVE",
"552.813 242 CURVE SMOOTH",
"580 388 OFFCURVE",
"503.66 485 OFFCURVE",
"371.66 485 CURVE SMOOTH",
"274.66 485 OFFCURVE",
"189.726 440 OFFCURVE",
"141.207 369 CURVE",
"187.833 610.77 OFFCURVE",
"262.486 687 OFFCURVE",
"386 687 CURVE SMOOTH",
"457.444 687 OFFCURVE",
"518 653.991 OFFCURVE",
"523.706 576 CURVE"
);
},
{
closed = 1;
nodes = (
"348 424 CURVE SMOOTH",
"464 424 OFFCURVE",
"509 349 OFFCURVE",
"488.108 238 CURVE SMOOTH",
"467 128 OFFCURVE",
"390 60 OFFCURVE",
"286.721 60 CURVE SMOOTH",
"168.356 60 OFFCURVE",
"116.029 143.428 OFFCURVE",
"136 258 CURVE SMOOTH",
"156.779 375.12 OFFCURVE",
"262 424 OFFCURVE"
);
}
);
width = 646;
},
{
layerId = "AD4288EF-621A-4539-AF14-1A70F42B46A9";
paths = (
{
closed = 1;
nodes = (
"594.182 539 LINE",
"599.874 645.015 OFFCURVE",
"545.727 747 OFFCURVE",
"381 747 CURVE SMOOTH",
"203.502 747 OFFCURVE",
"101.897 616.779 OFFCURVE",
"58.383 370 CURVE",
"13.293 114.283 OFFCURVE",
"89.319 0 OFFCURVE",
"293 0 CURVE SMOOTH",
"432.791 0 OFFCURVE",
"536.03 90.94 OFFCURVE",
"561 235 CURVE SMOOTH",
"589.163 393.549 OFFCURVE",
"506.127 480 OFFCURVE",
"370 480 CURVE SMOOTH",
"324.044 480 OFFCURVE",
"260.708 462.69 OFFCURVE",
"219.023 419 CURVE",
"242.416 546 OFFCURVE",
"290.172 607 OFFCURVE",
"363.172 607 CURVE SMOOTH",
"415.172 607 OFFCURVE",
"433.883 577 OFFCURVE",
"435.182 539 CURVE"
);
},
{
closed = 1;
nodes = (
"313.917 339 CURVE SMOOTH",
"384.917 339 OFFCURVE",
"402.748 287 OFFCURVE",
"394.284 239 CURVE SMOOTH",
"384.233 182 OFFCURVE",
"345.651 139 OFFCURVE",
"283.651 139 CURVE SMOOTH",
"230.651 139 OFFCURVE",
"189.175 176 OFFCURVE",
"200.637 241 CURVE SMOOTH",
"211.569 303 OFFCURVE",
"255.917 339 OFFCURVE"
);
}
);
width = 637;
}
);
unicode = 0036;
userData = {
public.markColor = "0.97,1,0,1";
};
},
{
color = 3;
glyphname = seven;
lastChange = "2017-08-08 23:18:27 +0000";
layers = (
{
layerId = "C0ED9D5D-A651-429A-8F5D-D93A2EDA2DC0";
paths = (
{
closed = 1;
nodes = (
"40 730 LINE",
"40 670 LINE",
"457 670 LINE",
"151 0 LINE",
"229 0 LINE",
"522 677 LINE",
"522 730 LINE"
);
}
);
width = 560;
},
{
layerId = "22D14058-393A-410A-BECB-F56B411A01B2";
paths = (
{
closed = 1;
nodes = (
"41 721 LINE",
"41 581 LINE",
"351 581 LINE",
"78 0 LINE",
"263 0 LINE",
"523 595 LINE",
"523 721 LINE"
);
}
);
width = 560;
},
{
layerId = "3C02C8EC-C43C-4762-8B99-FE4CB64E6532";
paths = (
{
closed = 1;
nodes = (
"104.359 730 LINE",
"93.78 670 LINE",
"510.78 670 LINE",
"86.641 0 LINE",
"164.641 0 LINE",
"577.014 677 LINE",
"586.359 730 LINE"
);
}
);
width = 560;
},
{
layerId = "AD4288EF-621A-4539-AF14-1A70F42B46A9";
paths = (
{
closed = 1;
nodes = (
"104.566 721 LINE",
"79.88 581 LINE",
"389.88 581 LINE",
"14.434 0 LINE",
"199.434 0 LINE",
"564.349 595 LINE",
"586.566 721 LINE"
);
}
);
width = 560;
}
);
unicode = 0037;
userData = {
public.markColor = "0.97,1,0,1";
};
},
{
color = 3;
glyphname = eight;
lastChange = "2017-08-08 23:18:27 +0000";
layers = (
{
layerId = "C0ED9D5D-A651-429A-8F5D-D93A2EDA2DC0";
paths = (
{
closed = 1;
nodes = (
"198 387 CURVE",
"121 364 OFFCURVE",
"66 296 OFFCURVE",
"66 198 CURVE SMOOTH",
"66 64 OFFCURVE",
"164 -21 OFFCURVE",
"315 -21 CURVE SMOOTH",
"467 -21 OFFCURVE",
"565 64 OFFCURVE",
"565 198 CURVE SMOOTH",
"565 296 OFFCURVE",
"508 364 OFFCURVE",
"433 387 CURVE",
"496 413 OFFCURVE",
"546 474 OFFCURVE",
"546 556 CURVE SMOOTH",
"546 666 OFFCURVE",
"468 751 OFFCURVE",
"315 751 CURVE",
"163 751 OFFCURVE",
"85 666 OFFCURVE",
"85 556 CURVE SMOOTH",
"85 474 OFFCURVE",
"131 418 OFFCURVE"
);
},
{
closed = 1;
nodes = (
"315 691 CURVE SMOOTH",
"418 691 OFFCURVE",
"481 643 OFFCURVE",
"481 551 CURVE SMOOTH",
"481 474 OFFCURVE",
"415 415 OFFCURVE",
"315 415 CURVE",
"216 415 OFFCURVE",
"150 474 OFFCURVE",
"150 551 CURVE SMOOTH",
"150 643 OFFCURVE",
"213 691 OFFCURVE"
);
},
{
closed = 1;
nodes = (
"315 356 CURVE SMOOTH",
"417 356 OFFCURVE",
"500 310 OFFCURVE",
"500 198 CURVE SMOOTH",
"500 101 OFFCURVE",
"428 39 OFFCURVE",
"315 39 CURVE",
"203 39 OFFCURVE",
"131 101 OFFCURVE",
"131 198 CURVE SMOOTH",
"131 310 OFFCURVE",
"214 356 OFFCURVE"
);
}
);
width = 631;
},
{
layerId = "22D14058-393A-410A-BECB-F56B411A01B2";
paths = (
{
closed = 1;
nodes = (
"165 397 CURVE",
"95 363 OFFCURVE",
"54 302 OFFCURVE",
"54 216 CURVE SMOOTH",
"54 73 OFFCURVE",
"175 -14 OFFCURVE",
"324 -14 CURVE SMOOTH",
"474 -14 OFFCURVE",
"594 73 OFFCURVE",
"594 216 CURVE SMOOTH",
"594 301 OFFCURVE",
"555 362 OFFCURVE",
"483 397 CURVE",
"538 428 OFFCURVE",
"576 480 OFFCURVE",
"576 553 CURVE SMOOTH",
"576 653 OFFCURVE",
"496 754 OFFCURVE",
"324 754 CURVE SMOOTH",
"152 754 OFFCURVE",
"71 654 OFFCURVE",
"71 554 CURVE",
"71 473 OFFCURVE",
"109 428 OFFCURVE"
);
},
{
closed = 1;
nodes = (
"324 614 CURVE SMOOTH",
"375 614 OFFCURVE",
"410 582 OFFCURVE",
"410 528 CURVE SMOOTH",
"410 476 OFFCURVE",
"370 442 OFFCURVE",
"324 442 CURVE SMOOTH",
"278 442 OFFCURVE",
"238 474 OFFCURVE",
"238 527 CURVE",
"238 583 OFFCURVE",
"276 614 OFFCURVE"
);
},
{
closed = 1;
nodes = (
"323 323 CURVE SMOOTH",
"390 323 OFFCURVE",
"422 280 OFFCURVE",
"422 226 CURVE SMOOTH",
"422 171 OFFCURVE",
"389 126 OFFCURVE",
"323 126 CURVE SMOOTH",
"256 126 OFFCURVE",
"219 169 OFFCURVE",
"219 225 CURVE",
"219 287 OFFCURVE",
"261 323 OFFCURVE"
);
}
);
width = 648;
},
{
layerId = "3C02C8EC-C43C-4762-8B99-FE4CB64E6532";
paths = (
{
closed = 1;
nodes = (
"201.879 387 CURVE",
"121.135 364.088 OFFCURVE",
"53.128 300.97 OFFCURVE",
"37 208 CURVE SMOOTH",
"11.937 68.067 OFFCURVE",
"95.938 -21 OFFCURVE",
"246.938 -21 CURVE SMOOTH",
"398.938 -21 OFFCURVE",
"513.061 59.924 OFFCURVE",
"536 188 CURVE SMOOTH",
"553.874 291.037 OFFCURVE",
"508.189 363.882 OFFCURVE",
"436.879 387 CURVE",
"503.962 412.807 OFFCURVE",
"565.858 468.69 OFFCURVE",
"580 546 CURVE SMOOTH",
"600.006 661.034 OFFCURVE",
"535.553 751 OFFCURVE",
"381 751 CURVE",
"230.152 751 OFFCURVE",
"137.051 670.504 OFFCURVE",
"119 566 CURVE SMOOTH",
"103.14 479.301 OFFCURVE",
"139.591 418.38 OFFCURVE"
);
},
{
closed = 1;
nodes = (
"370 691 CURVE SMOOTH",
"474.451 691 OFFCURVE",
"531.007 639.041 OFFCURVE",
"514 541 CURVE SMOOTH",
"500.995 469.474 OFFCURVE",
"423.816 415 OFFCURVE",
"323.816 415 CURVE",
"224.816 415 OFFCURVE",
"168.002 478.513 OFFCURVE",
"183 561 CURVE SMOOTH",
"197.887 646.602 OFFCURVE",
"269.079 691 OFFCURVE"
);
},
{
closed = 1;
nodes = (
"313.413 356 CURVE SMOOTH",
"415.413 356 OFFCURVE",
"491.17 306.896 OFFCURVE",
"471 188 CURVE SMOOTH",
"454.093 96.891 OFFCURVE",
"370.517 39 OFFCURVE",
"257.517 39 CURVE",
"145.517 39 OFFCURVE",
"82.905 105.097 OFFCURVE",
"102 208 CURVE SMOOTH",
"119.832 313.116 OFFCURVE",
"212.413 356 OFFCURVE"
);
}
);
width = 631;
},
{
layerId = "AD4288EF-621A-4539-AF14-1A70F42B46A9";
paths = (
{
closed = 1;
nodes = (
"169.761 397 CURVE",
"93.766 363 OFFCURVE",
"42.01 302 OFFCURVE",
"26.846 216 CURVE SMOOTH",
"1.631 73 OFFCURVE",
"117 -14 OFFCURVE",
"266 -14 CURVE SMOOTH",
"416 -14 OFFCURVE",
"542 63 OFFCURVE",
"567 206 CURVE SMOOTH",
"582 291 OFFCURVE",
"553.589 362 OFFCURVE",
"487.761 397 CURVE",
"548.227 428 OFFCURVE",
"595.396 480 OFFCURVE",
"608.268 553 CURVE SMOOTH",
"625.901 653 OFFCURVE",
"560 754 OFFCURVE",
"388 754 CURVE SMOOTH",
"216 754 OFFCURVE",
"123 664 OFFCURVE",
"105 564 CURVE",
"91 483 OFFCURVE",
"119.227 428 OFFCURVE"
);
},
{
closed = 1;
nodes = (
"367.024 614 CURVE SMOOTH",
"418.024 614 OFFCURVE",
"447.381 582 OFFCURVE",
"437.86 528 CURVE SMOOTH",
"428.691 476 OFFCURVE",
"382.696 442 OFFCURVE",
"336.696 442 CURVE SMOOTH",
"290.696 442 OFFCURVE",
"256.338 474 OFFCURVE",
"265.683 527 CURVE",
"275.558 583 OFFCURVE",
"319.024 614 OFFCURVE"
);
},
{
closed = 1;
nodes = (
"314.713 323 CURVE SMOOTH",
"381.713 323 OFFCURVE",
"406.131 280 OFFCURVE",
"396.609 226 CURVE SMOOTH",
"386.911 171 OFFCURVE",
"345.976 126 OFFCURVE",
"279.976 126 CURVE SMOOTH",
"212.976 126 OFFCURVE",
"183.558 169 OFFCURVE",
"193.433 225 CURVE",
"204.365 287 OFFCURVE",
"252.713 323 OFFCURVE"
);
}
);
width = 648;
}
);
unicode = 0038;
userData = {
public.markColor = "0.97,1,0,1";
};
},
{
color = 3;
glyphname = nine;
lastChange = "2017-08-08 23:18:27 +0000";
layers = (
{
layerId = "C0ED9D5D-A651-429A-8F5D-D93A2EDA2DC0";
paths = (
{
closed = 1;
nodes = (
"109 177 LINE",
"124 82 OFFCURVE",
"197 1 OFFCURVE",
"332 1 CURVE SMOOTH",
"507 1 OFFCURVE",
"562 131 OFFCURVE",
"562 383 CURVE SMOOTH",
"562 630 OFFCURVE",
"491 747 OFFCURVE",
"323 747 CURVE SMOOTH",
"173 747 OFFCURVE",
"88 650 OFFCURVE",
"88 508 CURVE SMOOTH",
"88 362 OFFCURVE",
"195 274 OFFCURVE",
"320 274 CURVE SMOOTH",
"393 274 OFFCURVE",
"464 301 OFFCURVE",
"504 366 CURVE",
"504 131 OFFCURVE",
"446 61 OFFCURVE",
"335 61 CURVE SMOOTH",
"243 61 OFFCURVE",
"189 102 OFFCURVE",
"172 177 CURVE"
);
},
{
closed = 1;
nodes = (
"333 335 CURVE SMOOTH",
"207 335 OFFCURVE",
"153 411 OFFCURVE",
"153 509 CURVE SMOOTH",
"153 618 OFFCURVE",
"219 687 OFFCURVE",
"324 687 CURVE SMOOTH",
"427 687 OFFCURVE",
"491 618 OFFCURVE",
"491 505 CURVE SMOOTH",
"491 405 OFFCURVE",
"434 335 OFFCURVE"
);
}
);
width = 634;
},
{
layerId = "22D14058-393A-410A-BECB-F56B411A01B2";
paths = (
{
closed = 1;
nodes = (
"82 224 LINE",
"84 109 OFFCURVE",
"149 0 OFFCURVE",
"320 0 CURVE SMOOTH",
"532 0 OFFCURVE",
"580 133 OFFCURVE",
"580 372 CURVE",
"580 600 OFFCURVE",
"528 745 OFFCURVE",
"314 745 CURVE SMOOTH",
"158 745 OFFCURVE",
"64 649 OFFCURVE",
"64 501 CURVE SMOOTH",
"64 337 OFFCURVE",
"163 270 OFFCURVE",
"295 270 CURVE SMOOTH",
"352 270 OFFCURVE",
"405 291 OFFCURVE",
"429 314 CURVE",
"429 189 OFFCURVE",
"399 140 OFFCURVE",
"332 140 CURVE SMOOTH",
"277 140 OFFCURVE",
"248 173 OFFCURVE",
"241 224 CURVE"
);
},
{
closed = 1;
nodes = (
"323 410 CURVE SMOOTH",
"254 410 OFFCURVE",
"228 461 OFFCURVE",
"228 506 CURVE SMOOTH",
"228 560 OFFCURVE",
"260 605 OFFCURVE",
"320 605 CURVE SMOOTH",
"378 605 OFFCURVE",
"415 573 OFFCURVE",
"415 504 CURVE",
"415 447 OFFCURVE",
"380 410 OFFCURVE"
);
}
);
width = 637;
},
{
layerId = "3C02C8EC-C43C-4762-8B99-FE4CB64E6532";
paths = (
{
closed = 1;
nodes = (
"74.264 177 LINE",
"72.512 81.999 OFFCURVE",
"137.922 1 OFFCURVE",
"273 1 CURVE SMOOTH",
"443.48 1 OFFCURVE",
"517.029 121.161 OFFCURVE",
"563.587 383 CURVE SMOOTH",
"605 618 OFFCURVE",
"556.857 747 OFFCURVE",
"375 747 CURVE SMOOTH",
"232.172 747 OFFCURVE",
"135.849 654.46 OFFCURVE",
"112 519 CURVE SMOOTH",
"84.815 366.343 OFFCURVE",
"177.367 274 OFFCURVE",
"302.367 274 CURVE SMOOTH",
"375.367 274 OFFCURVE",
"451.128 301 OFFCURVE",
"502.589 366 CURVE",
"461.186 131.189 OFFCURVE",
"394.008 61 OFFCURVE",
"286 61 CURVE SMOOTH",
"190.133 61 OFFCURVE",
"141.039 101.992 OFFCURVE",
"137.264 177 CURVE"
);
},
{
closed = 1;
nodes = (
"326.123 335 CURVE SMOOTH",
"200.123 335 OFFCURVE",
"158.956 415.98 OFFCURVE",
"177 520 CURVE SMOOTH",
"194.828 622.276 OFFCURVE",
"267.562 687 OFFCURVE",
"366 687 CURVE SMOOTH",
"476.298 687 OFFCURVE",
"531.064 614.014 OFFCURVE",
"510 495 CURVE SMOOTH",
"493.037 400.762 OFFCURVE",
"424.973 335 OFFCURVE"
);
}
);
width = 634;
},
{
layerId = "AD4288EF-621A-4539-AF14-1A70F42B46A9";
paths = (
{
closed = 1;
nodes = (
"55.815 224 LINE",
"46.997 116.959 OFFCURVE",
"108.76 0 OFFCURVE",
"286 0 CURVE SMOOTH",
"477.196 0 OFFCURVE",
"539.142 129.498 OFFCURVE",
"580 362 CURVE",
"621.041 596.96 OFFCURVE",
"585 745 OFFCURVE",
"360 745 CURVE SMOOTH",
"215 745 OFFCURVE",
"111 656 OFFCURVE",
"87 519 CURVE SMOOTH",
"58 353 OFFCURVE",
"144.926 270 OFFCURVE",
"276.926 270 CURVE SMOOTH",
"333.926 270 OFFCURVE",
"390.629 291 OFFCURVE",
"418.685 314 CURVE",
"396.644 189 OFFCURVE",
"358.004 140 OFFCURVE",
"291.004 140 CURVE SMOOTH",
"236.004 140 OFFCURVE",
"212.823 173 OFFCURVE",
"214.815 224 CURVE"
);
},
{
closed = 1;
nodes = (
"330 410 CURVE SMOOTH",
"261 410 OFFCURVE",
"244 461 OFFCURVE",
"252 506 CURVE SMOOTH",
"261 560 OFFCURVE",
"301 605 OFFCURVE",
"361 605 CURVE SMOOTH",
"419 605 OFFCURVE",
"450 573 OFFCURVE",
"438 504 CURVE",
"428 447 OFFCURVE",
"387 410 OFFCURVE"
);
}
);
width = 637;
}
);
unicode = 0039;
userData = {
public.markColor = "0.97,1,0,1";
};
},
{
color = 3;
glyphname = colon;
lastChange = "2017-08-08 23:18:27 +0000";
layers = (
{
layerId = "C0ED9D5D-A651-429A-8F5D-D93A2EDA2DC0";
paths = (
{
closed = 1;
nodes = (
"90 0 LINE",
"189 0 LINE",
"189 98 LINE",
"90 98 LINE"
);
},
{
closed = 1;
nodes = (
"90 434 LINE",
"189 434 LINE",
"189 532 LINE",
"90 532 LINE"
);
}
);
width = 297;
},
{
layerId = "22D14058-393A-410A-BECB-F56B411A01B2";
paths = (
{
closed = 1;
nodes = (
"45 0 LINE",
"212 0 LINE",
"212 176 LINE",
"45 176 LINE"
);
},
{
closed = 1;
nodes = (
"45 399 LINE",
"212 399 LINE",
"212 575 LINE",
"45 575 LINE"
);
}
);
width = 257;
},
{
layerId = "3C02C8EC-C43C-4762-8B99-FE4CB64E6532";
paths = (
{
closed = 1;
nodes = (
"43.097 0 LINE",
"142.097 0 LINE",
"159.377 98 LINE",
"60.377 98 LINE"
);
},
{
closed = 1;
nodes = (
"119.623 434 LINE",
"218.623 434 LINE",
"235.903 532 LINE",
"136.903 532 LINE"
);
}
);
width = 297;
},
{
layerId = "AD4288EF-621A-4539-AF14-1A70F42B46A9";
paths = (
{
closed = 1;
nodes = (
"-5.694 0 LINE",
"161.306 0 LINE",
"192.34 176 LINE",
"25.34 176 LINE"
);
},
{
closed = 1;
nodes = (
"64.66 399 LINE",
"231.66 399 LINE",
"262.694 575 LINE",
"95.694 575 LINE"
);
}
);
width = 257;
}
);
unicode = 003A;
userData = {
public.markColor = "0.97,1,0,1";
};
},
{
color = 3;
glyphname = less;
lastChange = "2017-08-08 23:18:27 +0000";
layers = (
{
layerId = "C0ED9D5D-A651-429A-8F5D-D93A2EDA2DC0";
paths = (
{
closed = 1;
nodes = (
"212 370 LINE",
"464 602 LINE",
"376 602 LINE",
"124 370 LINE",
"376 138 LINE",
"464 138 LINE"
);
}
);
width = 658;
},
{
layerId = "22D14058-393A-410A-BECB-F56B411A01B2";
paths = (
{
closed = 1;
nodes = (
"278 350 LINE",
"482 571 LINE",
"268 571 LINE",
"64 350 LINE",
"268 129 LINE",
"482 129 LINE"
);
}
);
width = 553;
},
{
layerId = "3C02C8EC-C43C-4762-8B99-FE4CB64E6532";
paths = (
{
closed = 1;
nodes = (
"212 370 LINE",
"504.908 602 LINE",
"416.908 602 LINE",
"124 370 LINE",
"335.092 138 LINE",
"423.092 138 LINE"
);
}
);
width = 658;
},
{
layerId = "AD4288EF-621A-4539-AF14-1A70F42B46A9";
paths = (
{
closed = 1;
nodes = (
"278 350 LINE",
"520.968 571 LINE",
"306.968 571 LINE",
"64 350 LINE",
"229.032 129 LINE",
"443.032 129 LINE"
);
}
);
width = 553;
}
);
unicode = 003C;
userData = {
public.markColor = "0.97,1,0,1";
};
},
{
color = 3;
glyphname = equal;
lastChange = "2017-08-08 23:18:27 +0000";
layers = (
{
layerId = "C0ED9D5D-A651-429A-8F5D-D93A2EDA2DC0";
paths = (
{
closed = 1;
nodes = (
"130 237 LINE",
"639 237 LINE",
"639 297 LINE",
"130 297 LINE"
);
},
{
closed = 1;
nodes = (
"130 443 LINE",
"639 443 LINE",
"639 503 LINE",
"130 503 LINE"
);
}
);
width = 769;
},
{
layerId = "22D14058-393A-410A-BECB-F56B411A01B2";
paths = (
{
closed = 1;
nodes = (
"110 145 LINE",
"670 145 LINE",
"670 299 LINE",
"110 299 LINE"
);
},
{
closed = 1;
nodes = (
"110 400 LINE",
"670 400 LINE",
"670 554 LINE",
"110 554 LINE"
);
}
);
width = 780;
},
{
layerId = "3C02C8EC-C43C-4762-8B99-FE4CB64E6532";
paths = (
{
closed = 1;
nodes = (
"106.549 237 LINE",
"615.549 237 LINE",
"626.128 297 LINE",
"117.128 297 LINE"
);
},
{
closed = 1;
nodes = (
"142.872 443 LINE",
"651.872 443 LINE",
"662.451 503 LINE",
"153.451 503 LINE"
);
}
);
width = 769;
},
{
layerId = "AD4288EF-621A-4539-AF14-1A70F42B46A9";
paths = (
{
closed = 1;
nodes = (
"73.941 145 LINE",
"633.941 145 LINE",
"661.095 299 LINE",
"101.095 299 LINE"
);
},
{
closed = 1;
nodes = (
"118.905 400 LINE",
"678.905 400 LINE",
"706.059 554 LINE",
"146.059 554 LINE"
);
}
);
width = 780;
}
);
unicode = 003D;
userData = {
public.markColor = "0.97,1,0,1";
};
},
{
color = 3;
glyphname = greater;
lastChange = "2017-08-08 23:18:27 +0000";
layers = (
{
layerId = "C0ED9D5D-A651-429A-8F5D-D93A2EDA2DC0";
paths = (
{
closed = 1;
nodes = (
"150 138 LINE",
"238 138 LINE",
"490 370 LINE",
"238 602 LINE",
"150 602 LINE",
"402 370 LINE"
);
}
);
width = 614;
},
{
layerId = "22D14058-393A-410A-BECB-F56B411A01B2";
paths = (
{
closed = 1;
nodes = (
"64 129 LINE",
"278 129 LINE",
"482 350 LINE",
"278 571 LINE",
"64 571 LINE",
"268 350 LINE"
);
}
);
width = 560;
},
{
layerId = "3C02C8EC-C43C-4762-8B99-FE4CB64E6532";
paths = (
{
closed = 1;
nodes = (
"109.092 138 LINE",
"197.092 138 LINE",
"490 370 LINE",
"278.908 602 LINE",
"190.908 602 LINE",
"402 370 LINE"
);
}
);
width = 614;
},
{
layerId = "AD4288EF-621A-4539-AF14-1A70F42B46A9";
paths = (
{
closed = 1;
nodes = (
"25.032 129 LINE",
"239.032 129 LINE",
"482 350 LINE",
"316.968 571 LINE",
"102.968 571 LINE",
"268 350 LINE"
);
}
);
width = 560;
}
);
unicode = 003E;
userData = {
public.markColor = "0.97,1,0,1";
};
},
{
color = 3;
glyphname = question;
lastChange = "2017-08-08 23:18:27 +0000";
layers = (
{
layerId = "C0ED9D5D-A651-429A-8F5D-D93A2EDA2DC0";
paths = (
{
closed = 1;
nodes = (
"101 539 CURVE",
"166 539 LINE",
"166 629 OFFCURVE",
"225 677 OFFCURVE",
"314 677 CURVE SMOOTH",
"408 677 OFFCURVE",
"462 624 OFFCURVE",
"462 534 CURVE SMOOTH",
"462 401 OFFCURVE",
"379 378 OFFCURVE",
"251 379 CURVE SMOOTH",
"218 379 LINE",
"218 185 LINE",
"218 185 OFFCURVE",
"284 185 OFFCURVE",
"284 185 CURVE",
"284 327 LINE",
"442 328 OFFCURVE",
"527 381 OFFCURVE",
"527 535 CURVE SMOOTH",
"527 659 OFFCURVE",
"444 737 OFFCURVE",
"314 737 CURVE SMOOTH",
"191 737 OFFCURVE",
"101 662 OFFCURVE"
);
},
{
closed = 1;
nodes = (
"203 0 LINE",
"302 0 LINE",
"302 98 LINE",
"203 98 LINE"
);
}
);
width = 619;
},
{
layerId = "22D14058-393A-410A-BECB-F56B411A01B2";
paths = (
{
closed = 1;
nodes = (
"90 545 CURVE",
"251 545 LINE",
"251 591 OFFCURVE",
"278 621 OFFCURVE",
"326 621 CURVE SMOOTH",
"370 621 OFFCURVE",
"398 590 OFFCURVE",
"398 545 CURVE SMOOTH",
"398 472 OFFCURVE",
"340 458 OFFCURVE",
"246 458 CURVE SMOOTH",
"179 458 LINE",
"179 252 LINE",
"179 252 OFFCURVE",
"340 252 OFFCURVE",
"340 252 CURVE",
"340 347 LINE",
"477 349 OFFCURVE",
"564 399 OFFCURVE",
"564 543 CURVE SMOOTH",
"564 682 OFFCURVE",
"462 761 OFFCURVE",
"324 761 CURVE SMOOTH",
"170 761 OFFCURVE",
"87 665 OFFCURVE"
);
},
{
closed = 1;
nodes = (
"178 0 LINE",
"345 0 LINE",
"345 176 LINE",
"178 176 LINE"
);
}
);
width = 651;
},
{
layerId = "3C02C8EC-C43C-4762-8B99-FE4CB64E6532";
paths = (
{
closed = 1;
nodes = (
"131.064 539 CURVE",
"196.064 539 LINE",
"211.933 629 OFFCURVE",
"279.397 677 OFFCURVE",
"368.397 677 CURVE SMOOTH",
"462.397 677 OFFCURVE",
"507.052 624 OFFCURVE",
"491.182 534 CURVE SMOOTH",
"467.731 401 OFFCURVE",
"380.675 378 OFFCURVE",
"252.851 379 CURVE SMOOTH",
"219.851 379 LINE",
"185.644 185 LINE",
"185.644 185 OFFCURVE",
"251.644 185 OFFCURVE",
"251.644 185 CURVE",
"276.682 327 LINE",
"434.859 328 OFFCURVE",
"529.204 381 OFFCURVE",
"556.358 535 CURVE SMOOTH",
"578.223 659 OFFCURVE",
"508.977 737 OFFCURVE",
"378.977 737 CURVE SMOOTH",
"255.976 737 OFFCURVE",
"152.752 662 OFFCURVE"
);
},
{
closed = 1;
nodes = (
"138.024 0 LINE",
"237.024 0 LINE",
"254.304 98 LINE",
"155.304 98 LINE"
);
}
);
width = 619;
},
{
layerId = "AD4288EF-621A-4539-AF14-1A70F42B46A9";
paths = (
{
closed = 1;
nodes = (
"119.006 545 CURVE",
"280.006 545 LINE",
"288.117 591 OFFCURVE",
"320.407 621 OFFCURVE",
"368.407 621 CURVE SMOOTH",
"412.407 621 OFFCURVE",
"434.94 590 OFFCURVE",
"427.006 545 CURVE SMOOTH",
"414.134 472 OFFCURVE",
"353.665 458 OFFCURVE",
"259.665 458 CURVE SMOOTH",
"192.665 458 LINE",
"156.342 252 LINE",
"156.342 252 OFFCURVE",
"317.342 252 OFFCURVE",
"317.342 252 CURVE",
"334.093 347 LINE",
"471.446 349 OFFCURVE",
"568 409 OFFCURVE",
"592.653 543 CURVE SMOOTH",
"618 682 OFFCURVE",
"529.092 761 OFFCURVE",
"391.092 761 CURVE SMOOTH",
"237.092 761 OFFCURVE",
"137.165 665 OFFCURVE"
);
},
{
closed = 1;
nodes = (
"110.908 0 LINE",
"277.908 0 LINE",
"308.941 176 LINE",
"141.941 176 LINE"
);
}
);
width = 651;
}
);
unicode = 003F;
userData = {
public.markColor = "0.97,1,0,1";
};
},
{
color = 4;
glyphname = at;
lastChange = "2017-08-08 23:18:27 +0000";
layers = (
{
layerId = "C0ED9D5D-A651-429A-8F5D-D93A2EDA2DC0";
paths = (
{
closed = 1;
nodes = (
"735 273 CURVE SMOOTH",
"716 149 OFFCURVE",
"618 49 OFFCURVE",
"515 49 CURVE SMOOTH",
"413 49 OFFCURVE",
"345 149 OFFCURVE",
"364 273 CURVE SMOOTH",
"383 396 OFFCURVE",
"481 496 OFFCURVE",
"583 496 CURVE SMOOTH",
"686 496 OFFCURVE",
"754 396 OFFCURVE"
);
},
{
closed = 1;
nodes = (
"291 279 CURVE SMOOTH",
"266 109 OFFCURVE",
"366 -10 OFFCURVE",
"505 -10 CURVE SMOOTH",
"609 -10 OFFCURVE",
"679 50 OFFCURVE",
"722 121 CURVE",
"718 118 LINE",
"708 62 OFFCURVE",
"730 -10 OFFCURVE",
"814 -10 CURVE SMOOTH",
"934 -10 OFFCURVE",
"1065 146 OFFCURVE",
"1065 360 CURVE SMOOTH",
"1065 606 OFFCURVE",
"890 777 OFFCURVE",
"626 777 CURVE SMOOTH",
"290 777 OFFCURVE",
"60 515 OFFCURVE",
"60 199 CURVE SMOOTH",
"60 -90 OFFCURVE",
"266 -239 OFFCURVE",
"529 -248 CURVE",
"544 -188 LINE",
"310 -179 OFFCURVE",
"133 -57 OFFCURVE",
"133 199 CURVE SMOOTH",
"133 488 OFFCURVE",
"332 717 OFFCURVE",
"616 717 CURVE SMOOTH",
"857 717 OFFCURVE",
"992 572 OFFCURVE",
"992 360 CURVE SMOOTH",
"992 177 OFFCURVE",
"898 49 OFFCURVE",
"821 49 CURVE SMOOTH",
"791 49 OFFCURVE",
"775 67 OFFCURVE",
"781 107 CURVE SMOOTH",
"808 278 LINE SMOOTH",
"833 428 OFFCURVE",
"745 556 OFFCURVE",
"593 556 CURVE SMOOTH",
"453 556 OFFCURVE",
"317 448 OFFCURVE"
);
}
);
width = 1125;
},
{
layerId = "22D14058-393A-410A-BECB-F56B411A01B2";
paths = (
{
closed = 1;
nodes = (
"746 279 CURVE SMOOTH",
"734 185 OFFCURVE",
"667 141 OFFCURVE",
"612 141 CURVE SMOOTH",
"556 141 OFFCURVE",
"501 184 OFFCURVE",
"514 278 CURVE SMOOTH",
"526 372 OFFCURVE",
"593 416 OFFCURVE",
"648 416 CURVE SMOOTH",
"703 416 OFFCURVE",
"759 373 OFFCURVE"
);
},
{
closed = 1;
nodes = (
"348 278 CURVE SMOOTH",
"325 108 OFFCURVE",
"434 -7 OFFCURVE",
"562 -7 CURVE SMOOTH",
"671 -7 OFFCURVE",
"739 65 OFFCURVE",
"779 166 CURVE",
"753 166 LINE",
"749 57 OFFCURVE",
"800 -7 OFFCURVE",
"918 -7 CURVE SMOOTH",
"1084 -7 OFFCURVE",
"1242 148 OFFCURVE",
"1242 358 CURVE SMOOTH",
"1242 647 OFFCURVE",
"1032 814 OFFCURVE",
"723 814 CURVE SMOOTH",
"348 814 OFFCURVE",
"35 590 OFFCURVE",
"35 231 CURVE SMOOTH",
"35 -65 OFFCURVE",
"250 -266 OFFCURVE",
"588 -266 CURVE",
"621 -133 LINE",
"345 -133 OFFCURVE",
"209 19 OFFCURVE",
"209 231 CURVE SMOOTH",
"209 481 OFFCURVE",
"415 681 OFFCURVE",
"703 681 CURVE SMOOTH",
"927 681 OFFCURVE",
"1068 552 OFFCURVE",
"1068 359 CURVE SMOOTH",
"1068 216 OFFCURVE",
"979 141 OFFCURVE",
"930 141 CURVE SMOOTH",
"905 141 OFFCURVE",
"893 158 OFFCURVE",
"897 188 CURVE SMOOTH",
"913 310 LINE SMOOTH",
"934 472 OFFCURVE",
"827 563 OFFCURVE",
"678 563 CURVE SMOOTH",
"509 563 OFFCURVE",
"370 448 OFFCURVE"
);
}
);
width = 1277;
},
{
layerId = "3C02C8EC-C43C-4762-8B99-FE4CB64E6532";
paths = (
{
closed = 1;
nodes = (
"736.499 273 CURVE SMOOTH",
"695.634 149 OFFCURVE",
"590 49 OFFCURVE",
"477.002 49 CURVE SMOOTH",
"365 49 OFFCURVE",
"324.634 149 OFFCURVE",
"365.499 273 CURVE SMOOTH",
"406.187 396 OFFCURVE",
"512 496 OFFCURVE",
"623.82 496 CURVE SMOOTH",
"747 496 OFFCURVE",
"777 396 OFFCURVE"
);
},
{
closed = 1;
nodes = (
"293.557 279 CURVE SMOOTH",
"238.254 107.988 OFFCURVE",
"319.496 -10 OFFCURVE",
"467 -10 CURVE SMOOTH",
"566.661 -10 OFFCURVE",
"642.045 51.109 OFFCURVE",
"696.697 121 CURVE",
"692.168 118 LINE",
"671.975 61.101 OFFCURVE",
"681 -10 OFFCURVE",
"776 -10 CURVE SMOOTH",
"912 -10 OFFCURVE",
"1045.99 137.204 OFFCURVE",
"1082 340 CURVE SMOOTH",
"1127.003 597.457 OFFCURVE",
"1000 777 OFFCURVE",
"716.368 777 CURVE SMOOTH",
"360 777 OFFCURVE",
"104.17 515 OFFCURVE",
"48.451 199 CURVE SMOOTH",
"-2.508 -90 OFFCURVE",
"177.219 -239 OFFCURVE",
"438.632 -248 CURVE",
"464.212 -188 LINE",
"231.799 -179 OFFCURVE",
"76.311 -57 OFFCURVE",
"121.451 199 CURVE SMOOTH",
"172.409 488 OFFCURVE",
"412 717 OFFCURVE",
"696 717 CURVE SMOOTH",
"957 717 OFFCURVE",
"1048.013 563.535 OFFCURVE",
"1009 340 CURVE SMOOTH",
"978.995 168.408 OFFCURVE",
"866.591 49 OFFCURVE",
"793 49 CURVE SMOOTH",
"752.923 49 OFFCURVE",
"739.397 65.615 OFFCURVE",
"753.229 107 CURVE SMOOTH",
"810.38 278 LINE SMOOTH",
"861.829 428 OFFCURVE",
"796 556 OFFCURVE",
"644.399 556 CURVE SMOOTH",
"494 556 OFFCURVE",
"349.356 448 OFFCURVE"
);
}
);
width = 1125;
},
{
layerId = "AD4288EF-621A-4539-AF14-1A70F42B46A9";
paths = (
{
closed = 1;
nodes = (
"746.882 279 CURVE SMOOTH",
"718.307 185 OFFCURVE",
"643.549 141 OFFCURVE",
"588.549 141 CURVE SMOOTH",
"532.549 141 OFFCURVE",
"485.131 184 OFFCURVE",
"514.705 278 CURVE SMOOTH",
"543.28 372 OFFCURVE",
"618.038 416 OFFCURVE",
"673.038 416 CURVE SMOOTH",
"728.038 416 OFFCURVE",
"776.456 373 OFFCURVE"
);
},
{
closed = 1;
nodes = (
"348.705 278 CURVE SMOOTH",
"295.73 108 OFFCURVE",
"384.452 -7 OFFCURVE",
"512.452 -7 CURVE SMOOTH",
"621.452 -7 OFFCURVE",
"702.148 65 OFFCURVE",
"759.957 166 CURVE",
"733.957 166 LINE",
"710.737 57 OFFCURVE",
"750.452 -7 OFFCURVE",
"868.452 -7 CURVE SMOOTH",
"1034.452 -7 OFFCURVE",
"1218 118 OFFCURVE",
"1256.812 358 CURVE SMOOTH",
"1304 647 OFFCURVE",
"1125 814 OFFCURVE",
"816 814 CURVE SMOOTH",
"411 814 OFFCURVE",
"90.719 590 OFFCURVE",
"27.418 231 CURVE SMOOTH",
"-24.775 -65 OFFCURVE",
"154.783 -266 OFFCURVE",
"492.783 -266 CURVE",
"549.235 -133 LINE",
"273.235 -133 OFFCURVE",
"164.037 19 OFFCURVE",
"201.418 231 CURVE SMOOTH",
"245.5 481 OFFCURVE",
"486.765 681 OFFCURVE",
"774.765 681 CURVE SMOOTH",
"998.765 681 OFFCURVE",
"1117.019 552 OFFCURVE",
"1082.988 359 CURVE SMOOTH",
"1057.773 216 OFFCURVE",
"955.549 141 OFFCURVE",
"906.549 141 CURVE SMOOTH",
"881.549 141 OFFCURVE",
"872.546 158 OFFCURVE",
"881.836 188 CURVE SMOOTH",
"919.348 310 LINE SMOOTH",
"968.913 472 OFFCURVE",
"877.958 563 OFFCURVE",
"728.958 563 CURVE SMOOTH",
"559.958 563 OFFCURVE",
"400.681 448 OFFCURVE"
);
}
);
width = 1277;
}
);
unicode = 0040;
userData = {
public.markColor = "0.67,0.95,0.38,1";
};
},
{
color = 4;
glyphname = A;
lastChange = "2017-08-08 23:18:27 +0000";
layers = (
{
anchors = (
{
name = ogonek;
position = "{632, 0}";
},
{
name = top;
position = "{343, 690}";
}
);
layerId = "C0ED9D5D-A651-429A-8F5D-D93A2EDA2DC0";
paths = (
{
closed = 1;
nodes = (
"307 690 LINE",
"53 0 LINE",
"123 0 LINE",
"360 650 LINE",
"326 650 LINE",
"562 0 LINE",
"632 0 LINE",
"379 690 LINE"
);
},
{
closed = 1;
nodes = (
"157 161 LINE",
"530 161 LINE",
"511 217 LINE",
"175 217 LINE"
);
}
);
width = 685;
},
{
anchors = (
{
name = ogonek;
position = "{704, 0}";
},
{
name = top;
position = "{357, 704}";
}
);
layerId = "22D14058-393A-410A-BECB-F56B411A01B2";
paths = (
{
closed = 1;
nodes = (
"253 704 LINE",
"9 0 LINE",
"191 0 LINE",
"395 614 LINE",
"318 614 LINE",
"521 0 LINE",
"704 0 LINE",
"461 704 LINE"
);
},
{
closed = 1;
nodes = (
"113 118 LINE",
"584 118 LINE",
"541 248 LINE",
"156 248 LINE"
);
}
);
width = 713;
},
{
anchors = (
{
name = ogonek;
position = "{571.167, 0}";
},
{
name = top;
position = "{403.833, 690}";
}
);
layerId = "3C02C8EC-C43C-4762-8B99-FE4CB64E6532";
paths = (
{
closed = 1;
nodes = (
"367.833 690 LINE",
"-7.833 0 LINE",
"62.167 0 LINE",
"413.78 650 LINE",
"379.78 650 LINE",
"501.167 0 LINE",
"571.167 0 LINE",
"439.833 690 LINE"
);
},
{
closed = 1;
nodes = (
"124.556 161 LINE",
"497.556 161 LINE",
"488.43 217 LINE",
"152.43 217 LINE"
);
}
);
width = 685;
},
{
anchors = (
{
name = ogonek;
position = "{641.933, 0}";
},
{
name = top;
position = "{419.067, 704}";
}
);
layerId = "AD4288EF-621A-4539-AF14-1A70F42B46A9";
paths = (
{
closed = 1;
nodes = (
"315.067 704 LINE",
"-53.067 0 LINE",
"128.933 0 LINE",
"441.198 614 LINE",
"364.198 614 LINE",
"458.933 0 LINE",
"641.933 0 LINE",
"523.067 704 LINE"
);
},
{
closed = 1;
nodes = (
"71.739 118 LINE",
"542.74 118 LINE",
"522.662 248 LINE",
"137.662 248 LINE"
);
}
);
width = 713;
}
);
unicode = 0041;
userData = {
public.markColor = "0.67,0.95,0.38,1";
};
},
{
color = 4;
glyphname = B;
lastChange = "2017-08-08 23:18:27 +0000";
layers = (
{
layerId = "C0ED9D5D-A651-429A-8F5D-D93A2EDA2DC0";
paths = (
{
closed = 1;
nodes = (
"456 508 CURVE SMOOTH",
"456 434 OFFCURVE",
"403 384 OFFCURVE",
"308 384 CURVE SMOOTH",
"145 384 LINE",
"145 633 LINE",
"308 633 LINE SMOOTH",
"403 633 OFFCURVE",
"456 582 OFFCURVE"
);
},
{
closed = 1;
nodes = (
"543 183 CURVE SMOOTH",
"543 275 OFFCURVE",
"470 357 OFFCURVE",
"365 359 CURVE",
"348 347 LINE",
"457 361 OFFCURVE",
"527 412 OFFCURVE",
"527 506 CURVE SMOOTH",
"527 609 OFFCURVE",
"455 690 OFFCURVE",
"308 690 CURVE SMOOTH",
"75 690 LINE",
"75 0 LINE",
"319 0 LINE SMOOTH",
"456 0 OFFCURVE",
"543 84 OFFCURVE"
);
},
{
closed = 1;
nodes = (
"475 192 CURVE SMOOTH",
"475 108 OFFCURVE",
"419 56 OFFCURVE",
"318 56 CURVE SMOOTH",
"145 56 LINE",
"145 327 LINE",
"309 327 LINE SMOOTH",
"409 327 OFFCURVE",
"475 275 OFFCURVE"
);
}
);
width = 595;
},
{
layerId = "22D14058-393A-410A-BECB-F56B411A01B2";
paths = (
{
closed = 1;
nodes = (
"440 495 CURVE SMOOTH",
"440 443 OFFCURVE",
"405 420 OFFCURVE",
"358 420 CURVE SMOOTH",
"246 420 LINE",
"246 572 LINE",
"358 572 LINE SMOOTH",
"405 572 OFFCURVE",
"440 547 OFFCURVE"
);
},
{
closed = 1;
nodes = (
"630 183 CURVE SMOOTH",
"630 275 OFFCURVE",
"563 355 OFFCURVE",
"452 359 CURVE",
"435 347 LINE",
"544 368 OFFCURVE",
"614 424 OFFCURVE",
"614 518 CURVE SMOOTH",
"614 621 OFFCURVE",
"527 702 OFFCURVE",
"380 702 CURVE SMOOTH",
"75 702 LINE",
"75 0 LINE",
"397 0 LINE SMOOTH",
"545 0 OFFCURVE",
"630 72 OFFCURVE"
);
},
{
closed = 1;
nodes = (
"456 209 CURVE SMOOTH",
"456 159 OFFCURVE",
"421 130 OFFCURVE",
"375 130 CURVE SMOOTH",
"246 130 LINE",
"246 290 LINE",
"377 290 LINE SMOOTH",
"422 290 OFFCURVE",
"456 260 OFFCURVE"
);
}
);
width = 674;
},
{
layerId = "3C02C8EC-C43C-4762-8B99-FE4CB64E6532";
paths = (
{
closed = 1;
nodes = (
"484.741 508 CURVE SMOOTH",
"471.693 434 OFFCURVE",
"409.877 384 OFFCURVE",
"314.877 384 CURVE SMOOTH",
"151.877 384 LINE",
"195.782 633 LINE",
"358.782 633 LINE SMOOTH",
"453.782 633 OFFCURVE",
"497.789 582 OFFCURVE"
);
},
{
closed = 1;
nodes = (
"514.435 183 CURVE SMOOTH",
"530.657 275 OFFCURVE",
"472.116 357 OFFCURVE",
"367.469 359 CURVE",
"348.353 347 LINE",
"459.821 361 OFFCURVE",
"538.814 412 OFFCURVE",
"555.389 506 CURVE SMOOTH",
"573.55 609 OFFCURVE",
"515.833 690 OFFCURVE",
"368.833 690 CURVE SMOOTH",
"135.833 690 LINE",
"14.167 0 LINE",
"258.167 0 LINE SMOOTH",
"395.167 0 OFFCURVE",
"496.979 84 OFFCURVE"
);
},
{
closed = 1;
nodes = (
"448.022 192 CURVE SMOOTH",
"433.211 108 OFFCURVE",
"368.042 56 OFFCURVE",
"267.042 56 CURVE SMOOTH",
"94.042 56 LINE",
"141.826 327 LINE",
"305.826 327 LINE SMOOTH",
"405.826 327 OFFCURVE",
"462.657 275 OFFCURVE"
);
}
);
width = 595;
},
{
layerId = "AD4288EF-621A-4539-AF14-1A70F42B46A9";
paths = (
{
closed = 1;
nodes = (
"465.391 495 CURVE SMOOTH",
"456.222 443 OFFCURVE",
"417.167 420 OFFCURVE",
"370.167 420 CURVE SMOOTH",
"258.167 420 LINE",
"284.968 572 LINE",
"396.968 572 LINE SMOOTH",
"443.968 572 OFFCURVE",
"474.56 547 OFFCURVE"
);
},
{
closed = 1;
nodes = (
"600.377 183 CURVE SMOOTH",
"616.599 275 OFFCURVE",
"563.705 355 OFFCURVE",
"453.411 359 CURVE",
"434.295 347 LINE",
"546.998 368 OFFCURVE",
"626.872 424 OFFCURVE",
"643.447 518 CURVE SMOOTH",
"661.608 621 OFFCURVE",
"588.891 702 OFFCURVE",
"441.891 702 CURVE SMOOTH",
"136.891 702 LINE",
"13.109 0 LINE",
"335.109 0 LINE SMOOTH",
"483.109 0 OFFCURVE",
"580.805 72 OFFCURVE"
);
},
{
closed = 1;
nodes = (
"430.962 209 CURVE SMOOTH",
"422.145 159 OFFCURVE",
"382.032 130 OFFCURVE",
"336.032 130 CURVE SMOOTH",
"207.032 130 LINE",
"235.244 290 LINE",
"366.244 290 LINE SMOOTH",
"411.244 290 OFFCURVE",
"439.954 260 OFFCURVE"
);
}
);
width = 674;
}
);
unicode = 0042;
userData = {
public.markColor = "0.67,0.95,0.38,1";
};
},
{
color = 4;
glyphname = C;
lastChange = "2017-08-08 23:18:27 +0000";
layers = (
{
anchors = (
{
name = bottom;
position = "{390, 0}";
},
{
name = top;
position = "{390, 690}";
}
);
layerId = "C0ED9D5D-A651-429A-8F5D-D93A2EDA2DC0";
paths = (
{
closed = 1;
nodes = (
"40 345 CURVE SMOOTH",
"40 139 OFFCURVE",
"196 -6 OFFCURVE",
"391 -6 CURVE SMOOTH",
"529 -6 OFFCURVE",
"647 57 OFFCURVE",
"704 182 CURVE",
"619 182 LINE",
"576 101 OFFCURVE",
"492 54 OFFCURVE",
"391 54 CURVE SMOOTH",
"233 54 OFFCURVE",
"112 168 OFFCURVE",
"112 345 CURVE SMOOTH",
"112 523 OFFCURVE",
"233 636 OFFCURVE",
"391 636 CURVE SMOOTH",
"492 636 OFFCURVE",
"576 590 OFFCURVE",
"619 509 CURVE",
"704 509 LINE",
"647 634 OFFCURVE",
"529 697 OFFCURVE",
"391 697 CURVE SMOOTH",
"196 697 OFFCURVE",
"40 552 OFFCURVE"
);
}
);
width = 780;
},
{
anchors = (
{
name = bottom;
position = "{382, 0}";
},
{
name = top;
position = "{382, 704}";
}
);
layerId = "22D14058-393A-410A-BECB-F56B411A01B2";
paths = (
{
closed = 1;
nodes = (
"34 353 CURVE SMOOTH",
"34 142 OFFCURVE",
"195 -6 OFFCURVE",
"394 -6 CURVE SMOOTH",
"547 -6 OFFCURVE",
"680 78 OFFCURVE",
"729 228 CURVE",
"525 228 LINE",
"496 172 OFFCURVE",
"454 151 OFFCURVE",
"394 151 CURVE SMOOTH",
"281 151 OFFCURVE",
"208 231 OFFCURVE",
"208 353 CURVE SMOOTH",
"208 476 OFFCURVE",
"281 555 OFFCURVE",
"394 555 CURVE SMOOTH",
"454 555 OFFCURVE",
"496 534 OFFCURVE",
"525 478 CURVE",
"729 478 LINE",
"680 628 OFFCURVE",
"547 712 OFFCURVE",
"394 712 CURVE SMOOTH",
"195 712 OFFCURVE",
"34 564 OFFCURVE"
);
}
);
width = 764;
},
{
anchors = (
{
name = bottom;
position = "{329.079, 0}";
},
{
name = top;
position = "{450.745, 690}";
}
);
layerId = "3C02C8EC-C43C-4762-8B99-FE4CB64E6532";
paths = (
{
closed = 1;
nodes = (
"39.912 345 CURVE SMOOTH",
"3.588 139 OFFCURVE",
"134.021 -6 OFFCURVE",
"329.021 -6 CURVE SMOOTH",
"467.021 -6 OFFCURVE",
"596.13 57 OFFCURVE",
"675.171 182 CURVE",
"590.171 182 LINE",
"532.888 101 OFFCURVE",
"440.601 54 OFFCURVE",
"339.601 54 CURVE SMOOTH",
"181.601 54 OFFCURVE",
"80.702 168 OFFCURVE",
"111.912 345 CURVE SMOOTH",
"143.298 523 OFFCURVE",
"284.223 636 OFFCURVE",
"442.223 636 CURVE SMOOTH",
"543.223 636 OFFCURVE",
"619.112 590 OFFCURVE",
"647.829 509 CURVE",
"732.829 509 LINE",
"697.87 634 OFFCURVE",
"590.979 697 OFFCURVE",
"452.979 697 CURVE SMOOTH",
"257.979 697 OFFCURVE",
"76.412 552 OFFCURVE"
);
}
);
width = 780;
},
{
anchors = (
{
name = bottom;
position = "{319.757, 0}";
},
{
name = top;
position = "{443.891, 704}";
}
);
layerId = "AD4288EF-621A-4539-AF14-1A70F42B46A9";
paths = (
{
closed = 1;
nodes = (
"34 363 CURVE SMOOTH",
"2.022 148.149 OFFCURVE",
"122.036 -6 OFFCURVE",
"331 -6 CURVE SMOOTH",
"514.891 -6 OFFCURVE",
"631 88 OFFCURVE",
"706.959 228 CURVE",
"502.959 228 LINE",
"464.085 172 OFFCURVE",
"418.382 151 OFFCURVE",
"358.382 151 CURVE SMOOTH",
"245.382 151 OFFCURVE",
"191 237 OFFCURVE",
"208 363 CURVE SMOOTH",
"224.987 486.903 OFFCURVE",
"305.565 555 OFFCURVE",
"406 555 CURVE SMOOTH",
"469.021 555 OFFCURVE",
"519.454 536.151 OFFCURVE",
"547.041 478 CURVE",
"751.041 478 LINE",
"727.98 618.123 OFFCURVE",
"600.197 712 OFFCURVE",
"437 712 CURVE SMOOTH",
"218.424 712 OFFCURVE",
"65.983 574.887 OFFCURVE"
);
}
);
width = 764;
}
);
unicode = 0043;
userData = {
public.markColor = "0.67,0.95,0.38,1";
};
},
{
color = 4;
glyphname = D;
lastChange = "2017-08-08 23:18:27 +0000";
layers = (
{
anchors = (
{
name = top;
position = "{343, 690}";
}
);
layerId = "C0ED9D5D-A651-429A-8F5D-D93A2EDA2DC0";
paths = (
{
closed = 1;
nodes = (
"287 690 CURVE SMOOTH",
"75 690 LINE",
"75 0 LINE",
"287 0 LINE SMOOTH",
"510 0 OFFCURVE",
"643 121 OFFCURVE",
"643 341 CURVE SMOOTH",
"643 560 OFFCURVE",
"510 690 OFFCURVE"
);
},
{
closed = 1;
nodes = (
"145 54 LINE",
"145 628 LINE",
"287 628 LINE SMOOTH",
"475 628 OFFCURVE",
"571 519 OFFCURVE",
"571 341 CURVE SMOOTH",
"571 163 OFFCURVE",
"475 54 OFFCURVE",
"287 54 CURVE SMOOTH"
);
}
);
width = 685;
},
{
anchors = (
{
name = top;
position = "{370, 704}";
}
);
layerId = "22D14058-393A-410A-BECB-F56B411A01B2";
paths = (
{
closed = 1;
nodes = (
"322 702 CURVE SMOOTH",
"75 702 LINE",
"75 0 LINE",
"322 0 LINE SMOOTH",
"545 0 OFFCURVE",
"706 143 OFFCURVE",
"706 351 CURVE SMOOTH",
"706 560 OFFCURVE",
"545 702 OFFCURVE"
);
},
{
closed = 1;
nodes = (
"246 130 LINE",
"246 572 LINE",
"322 572 LINE SMOOTH",
"454 572 OFFCURVE",
"532 485 OFFCURVE",
"532 351 CURVE SMOOTH",
"532 217 OFFCURVE",
"454 130 OFFCURVE",
"322 130 CURVE SMOOTH"
);
}
);
width = 739;
},
{
anchors = (
{
name = top;
position = "{403.833, 690}";
}
);
layerId = "3C02C8EC-C43C-4762-8B99-FE4CB64E6532";
paths = (
{
closed = 1;
nodes = (
"347.833 690 CURVE SMOOTH",
"135.833 690 LINE",
"14.167 0 LINE",
"226.167 0 LINE SMOOTH",
"449.167 0 OFFCURVE",
"603.503 121 OFFCURVE",
"642.295 341 CURVE SMOOTH",
"680.91 560 OFFCURVE",
"570.833 690 OFFCURVE"
);
},
{
closed = 1;
nodes = (
"93.689 54 LINE",
"194.901 628 LINE",
"336.901 628 LINE SMOOTH",
"524.901 628 OFFCURVE",
"601.681 519 OFFCURVE",
"570.295 341 CURVE SMOOTH",
"538.909 163 OFFCURVE",
"423.689 54 OFFCURVE",
"235.689 54 CURVE SMOOTH"
);
}
);
width = 685;
},
{
anchors = (
{
name = top;
position = "{432.243, 704}";
}
);
layerId = "AD4288EF-621A-4539-AF14-1A70F42B46A9";
paths = (
{
closed = 1;
nodes = (
"404 702 CURVE SMOOTH",
"136.891 702 LINE",
"13.109 0 LINE",
"290 0 LINE SMOOTH",
"498 0 OFFCURVE",
"667 99 OFFCURVE",
"706 341 CURVE SMOOTH",
"741 556 OFFCURVE",
"613.149 702 OFFCURVE"
);
},
{
closed = 1;
nodes = (
"207.032 130 LINE",
"284.968 572 LINE",
"360.968 572 LINE SMOOTH",
"492.968 572 OFFCURVE",
"554.97 480.908 OFFCURVE",
"532 341 CURVE SMOOTH",
"509.056 203.336 OFFCURVE",
"415.032 130 OFFCURVE",
"283.032 130 CURVE SMOOTH"
);
}
);
width = 739;
}
);
unicode = 0044;
userData = {
public.markColor = "0.67,0.95,0.38,1";
};
},
{
color = 4;
glyphname = E;
lastChange = "2017-08-08 23:18:27 +0000";
layers = (
{
anchors = (
{
name = bottom;
position = "{244, 0}";
},
{
name = ogonek;
position = "{426, 0}";
},
{
name = top;
position = "{244, 690}";
}
);
layerId = "C0ED9D5D-A651-429A-8F5D-D93A2EDA2DC0";
paths = (
{
closed = 1;
nodes = (
"426 690 LINE",
"75 690 LINE",
"75 0 LINE",
"426 0 LINE",
"426 56 LINE",
"145 56 LINE",
"145 319 LINE",
"396 319 LINE",
"396 375 LINE",
"145 375 LINE",
"145 633 LINE",
"426 633 LINE"
);
}
);
width = 487;
},
{
anchors = (
{
name = bottom;
position = "{286, 0}";
},
{
name = ogonek;
position = "{500, 0}";
},
{
name = top;
position = "{286, 704}";
}
);
layerId = "22D14058-393A-410A-BECB-F56B411A01B2";
paths = (
{
closed = 1;
nodes = (
"500 704 LINE",
"75 704 LINE",
"75 0 LINE",
"500 0 LINE",
"500 130 LINE",
"246 130 LINE",
"246 293 LINE",
"470 293 LINE",
"470 423 LINE",
"246 423 LINE",
"246 574 LINE",
"500 574 LINE"
);
}
);
width = 572;
},
{
anchors = (
{
name = bottom;
position = "{183.167, 0}";
},
{
name = ogonek;
position = "{365.167, 0}";
},
{
name = top;
position = "{304.833, 690}";
}
);
layerId = "3C02C8EC-C43C-4762-8B99-FE4CB64E6532";
paths = (
{
closed = 1;
nodes = (
"486.833 690 LINE",
"135.833 690 LINE",
"14.167 0 LINE",
"365.167 0 LINE",
"375.042 56 LINE",
"94.042 56 LINE",
"140.415 319 LINE",
"391.415 319 LINE",
"401.29 375 LINE",
"150.29 375 LINE",
"195.782 633 LINE",
"476.782 633 LINE"
);
}
);
width = 487;
},
{
anchors = (
{
name = bottom;
position = "{223.933, 0}";
},
{
name = ogonek;
position = "{437.933, 0}";
},
{
name = top;
position = "{348.067, 704}";
}
);
layerId = "AD4288EF-621A-4539-AF14-1A70F42B46A9";
paths = (
{
closed = 1;
nodes = (
"562.067 704 LINE",
"137.067 704 LINE",
"12.933 0 LINE",
"437.933 0 LINE",
"460.855 130 LINE",
"206.855 130 LINE",
"235.597 293 LINE",
"459.597 293 LINE",
"482.519 423 LINE",
"258.519 423 LINE",
"285.145 574 LINE",
"539.145 574 LINE"
);
}
);
width = 572;
}
);
unicode = 0045;
userData = {
public.markColor = "0.67,0.95,0.38,1";
};
},
{
color = 4;
glyphname = F;
lastChange = "2017-08-08 23:18:27 +0000";
layers = (
{
layerId = "C0ED9D5D-A651-429A-8F5D-D93A2EDA2DC0";
paths = (
{
closed = 1;
nodes = (
"75 0 LINE",
"145 0 LINE",
"145 319 LINE",
"386 319 LINE",
"386 375 LINE",
"145 375 LINE",
"145 633 LINE",
"447 633 LINE",
"447 690 LINE",
"75 690 LINE"
);
}
);
width = 468;
},
{
layerId = "22D14058-393A-410A-BECB-F56B411A01B2";
paths = (
{
closed = 1;
nodes = (
"75 0 LINE",
"246 0 LINE",
"246 291 LINE",
"460 291 LINE",
"460 421 LINE",
"246 421 LINE",
"246 572 LINE",
"532 572 LINE",
"532 702 LINE",
"75 702 LINE"
);
}
);
width = 575;
},
{
layerId = "3C02C8EC-C43C-4762-8B99-FE4CB64E6532";
paths = (
{
closed = 1;
nodes = (
"14.167 0 LINE",
"84.167 0 LINE",
"140.415 319 LINE",
"381.415 319 LINE",
"391.29 375 LINE",
"150.29 375 LINE",
"195.782 633 LINE",
"497.782 633 LINE",
"507.833 690 LINE",
"135.833 690 LINE"
);
}
);
width = 468;
},
{
layerId = "AD4288EF-621A-4539-AF14-1A70F42B46A9";
paths = (
{
closed = 1;
nodes = (
"13.109 0 LINE",
"184.109 0 LINE",
"235.42 291 LINE",
"449.42 291 LINE",
"472.343 421 LINE",
"258.343 421 LINE",
"284.968 572 LINE",
"570.968 572 LINE",
"593.891 702 LINE",
"136.891 702 LINE"
);
}
);
width = 575;
}
);
unicode = 0046;
userData = {
public.markColor = "0.67,0.95,0.38,1";
};
},
{
color = 4;
glyphname = G;
lastChange = "2017-08-08 23:18:27 +0000";
layers = (
{
anchors = (
{
name = bottom;
position = "{390, 0}";
},
{
name = top;
position = "{390, 690}";
}
);
layerId = "C0ED9D5D-A651-429A-8F5D-D93A2EDA2DC0";
paths = (
{
closed = 1;
nodes = (
"40 345 CURVE SMOOTH",
"40 139 OFFCURVE",
"196 -6 OFFCURVE",
"391 -6 CURVE SMOOTH",
"576 -6 OFFCURVE",
"722 121 OFFCURVE",
"741 315 CURVE",
"741 371 LINE",
"358 371 LINE",
"358 315 LINE",
"668 315 LINE",
"653 154 OFFCURVE",
"548 54 OFFCURVE",
"391 54 CURVE SMOOTH",
"233 54 OFFCURVE",
"112 168 OFFCURVE",
"112 345 CURVE SMOOTH",
"112 523 OFFCURVE",
"233 636 OFFCURVE",
"391 636 CURVE SMOOTH",
"492 636 OFFCURVE",
"576 590 OFFCURVE",
"619 509 CURVE",
"704 509 LINE",
"647 634 OFFCURVE",
"529 697 OFFCURVE",
"391 697 CURVE SMOOTH",
"196 697 OFFCURVE",
"40 552 OFFCURVE"
);
}
);
width = 780;
},
{
anchors = (
{
name = bottom;
position = "{382, 0}";
},
{
name = top;
position = "{382, 704}";
}
);
layerId = "22D14058-393A-410A-BECB-F56B411A01B2";
paths = (
{
closed = 1;
nodes = (
"34 353 CURVE SMOOTH",
"34 142 OFFCURVE",
"195 -6 OFFCURVE",
"394 -6 CURVE SMOOTH",
"583 -6 OFFCURVE",
"706 144 OFFCURVE",
"729 263 CURVE",
"729 393 LINE",
"347 393 LINE",
"347 263 LINE",
"545 263 LINE",
"528 199 OFFCURVE",
"479 151 OFFCURVE",
"394 151 CURVE SMOOTH",
"281 151 OFFCURVE",
"208 231 OFFCURVE",
"208 353 CURVE SMOOTH",
"208 476 OFFCURVE",
"281 555 OFFCURVE",
"394 555 CURVE SMOOTH",
"454 555 OFFCURVE",
"496 534 OFFCURVE",
"525 478 CURVE",
"729 478 LINE",
"680 628 OFFCURVE",
"547 712 OFFCURVE",
"394 712 CURVE SMOOTH",
"195 712 OFFCURVE",
"34 564 OFFCURVE"
);
}
);
width = 764;
},
{
anchors = (
{
name = bottom;
position = "{329.079, 0}";
},
{
name = top;
position = "{450.745, 690}";
}
);
layerId = "3C02C8EC-C43C-4762-8B99-FE4CB64E6532";
paths = (
{
closed = 1;
nodes = (
"39.912 345 CURVE SMOOTH",
"3.588 139 OFFCURVE",
"134 -6 OFFCURVE",
"329 -6 CURVE SMOOTH",
"514 -6 OFFCURVE",
"682.415 121 OFFCURVE",
"735.622 315 CURVE",
"745.496 371 LINE",
"362.496 371 LINE",
"352.622 315 LINE",
"662.622 315 LINE",
"619.233 154 OFFCURVE",
"497 54 OFFCURVE",
"340 54 CURVE SMOOTH",
"182 54 OFFCURVE",
"80.702 168 OFFCURVE",
"111.912 345 CURVE SMOOTH",
"143.298 523 OFFCURVE",
"274 636 OFFCURVE",
"442.223 636 CURVE SMOOTH",
"543 636 OFFCURVE",
"619.112 590 OFFCURVE",
"647.829 509 CURVE",
"732.829 509 LINE",
"697.87 634 OFFCURVE",
"591 697 OFFCURVE",
"452.979 697 CURVE SMOOTH",
"248 697 OFFCURVE",
"76.412 552 OFFCURVE"
);
}
);
width = 780;
},
{
anchors = (
{
name = bottom;
position = "{319.757, 0}";
},
{
name = top;
position = "{443.891, 704}";
}
);
layerId = "AD4288EF-621A-4539-AF14-1A70F42B46A9";
paths = (
{
closed = 1;
nodes = (
"35 363 CURVE SMOOTH",
"-1 145 OFFCURVE",
"113 -6 OFFCURVE",
"321 -6 CURVE SMOOTH",
"550 -6 OFFCURVE",
"670 134 OFFCURVE",
"713.131 263 CURVE",
"736.053 393 LINE",
"354.053 393 LINE",
"331.131 263 LINE",
"529.131 263 LINE",
"500.846 199 OFFCURVE",
"443.382 151 OFFCURVE",
"358.382 151 CURVE SMOOTH",
"246.133 151 OFFCURVE",
"191.92 230.418 OFFCURVE",
"209 354 CURVE SMOOTH",
"224.921 466.441 OFFCURVE",
"303 555 OFFCURVE",
"417 555 CURVE",
"483 555 OFFCURVE",
"527 530 OFFCURVE",
"547.041 478 CURVE",
"751.041 478 LINE",
"728 614 OFFCURVE",
"601 712 OFFCURVE",
"441 712 CURVE",
"220 712 OFFCURVE",
"69 569 OFFCURVE"
);
}
);
width = 764;
}
);
unicode = 0047;
userData = {
public.markColor = "0.67,0.95,0.38,1";
};
},
{
color = 4;
glyphname = H;
lastChange = "2017-08-08 23:18:27 +0000";
layers = (
{
layerId = "C0ED9D5D-A651-429A-8F5D-D93A2EDA2DC0";
paths = (
{
closed = 1;
nodes = (
"75 0 LINE",
"145 0 LINE",
"145 690 LINE",
"75 690 LINE"
);
},
{
closed = 1;
nodes = (
"515 0 LINE",
"585 0 LINE",
"585 690 LINE",
"515 690 LINE"
);
},
{
closed = 1;
nodes = (
"125 319 LINE",
"544 319 LINE",
"544 375 LINE",
"125 375 LINE"
);
}
);
width = 660;
},
{
layerId = "22D14058-393A-410A-BECB-F56B411A01B2";
paths = (
{
closed = 1;
nodes = (
"75 0 LINE",
"246 0 LINE",
"246 702 LINE",
"75 702 LINE"
);
},
{
closed = 1;
nodes = (
"517 0 LINE",
"688 0 LINE",
"688 702 LINE",
"517 702 LINE"
);
},
{
closed = 1;
nodes = (
"226 291 LINE",
"541 291 LINE",
"541 421 LINE",
"226 421 LINE"
);
}
);
width = 763;
},
{
layerId = "3C02C8EC-C43C-4762-8B99-FE4CB64E6532";
paths = (
{
closed = 1;
nodes = (
"14.167 0 LINE",
"84.167 0 LINE",
"205.833 690 LINE",
"135.833 690 LINE"
);
},
{
closed = 1;
nodes = (
"454.167 0 LINE",
"524.167 0 LINE",
"645.833 690 LINE",
"575.833 690 LINE"
);
},
{
closed = 1;
nodes = (
"120.415 319 LINE",
"539.416 319 LINE",
"549.29 375 LINE",
"130.29 375 LINE"
);
}
);
width = 660;
},
{
layerId = "AD4288EF-621A-4539-AF14-1A70F42B46A9";
paths = (
{
closed = 1;
nodes = (
"13.109 0 LINE",
"184.109 0 LINE",
"307.891 702 LINE",
"136.891 702 LINE"
);
},
{
closed = 1;
nodes = (
"455.109 0 LINE",
"626.109 0 LINE",
"749.891 702 LINE",
"578.891 702 LINE"
);
},
{
closed = 1;
nodes = (
"215.42 291 LINE",
"530.42 291 LINE",
"553.343 421 LINE",
"238.343 421 LINE"
);
}
);
width = 763;
}
);
unicode = 0048;
userData = {
public.markColor = "0.67,0.95,0.38,1";
};
},
{
color = 4;
glyphname = I;
lastChange = "2017-08-08 23:18:27 +0000";
layers = (
{
anchors = (
{
name = ogonek;
position = "{145, 1}";
},
{
name = top;
position = "{110, 690}";
}
);
layerId = "C0ED9D5D-A651-429A-8F5D-D93A2EDA2DC0";
paths = (
{
closed = 1;
nodes = (
"75 0 LINE",
"145 0 LINE",
"145 690 LINE",
"75 690 LINE"
);
}
);
width = 220;
},
{
anchors = (
{
name = ogonek;
position = "{246, 0}";
},
{
name = top;
position = "{161, 704}";
}
);
layerId = "22D14058-393A-410A-BECB-F56B411A01B2";
paths = (
{
closed = 1;
nodes = (
"75 0 LINE",
"246 0 LINE",
"246 702 LINE",
"75 702 LINE"
);
}
);
width = 321;
},
{
anchors = (
{
name = ogonek;
position = "{84.344, 1}";
},
{
name = top;
position = "{170.833, 690}";
}
);
layerId = "3C02C8EC-C43C-4762-8B99-FE4CB64E6532";
paths = (
{
closed = 1;
nodes = (
"14.167 0 LINE",
"84.167 0 LINE",
"205.833 690 LINE",
"135.833 690 LINE"
);
}
);
width = 220;
},
{
anchors = (
{
name = ogonek;
position = "{184.109, 0}";
},
{
name = top;
position = "{223.243, 704}";
}
);
layerId = "AD4288EF-621A-4539-AF14-1A70F42B46A9";
paths = (
{
closed = 1;
nodes = (
"13.109 0 LINE",
"184.109 0 LINE",
"307.891 702 LINE",
"136.891 702 LINE"
);
}
);
width = 321;
}
);
unicode = 0049;
userData = {
public.markColor = "0.67,0.95,0.38,1";
};
},
{
color = 4;
glyphname = J;
lastChange = "2017-08-08 23:18:27 +0000";
layers = (
{
layerId = "C0ED9D5D-A651-429A-8F5D-D93A2EDA2DC0";
paths = (
{
closed = 1;
nodes = (
"352 170 LINE SMOOTH",
"352 111 OFFCURVE",
"323 53 OFFCURVE",
"240 53 CURVE SMOOTH",
"157 53 OFFCURVE",
"129 111 OFFCURVE",
"128 170 CURVE",
"56 170 LINE",
"56 64 OFFCURVE",
"128 -7 OFFCURVE",
"240 -7 CURVE SMOOTH",
"351 -7 OFFCURVE",
"422 64 OFFCURVE",
"422 170 CURVE SMOOTH",
"422 690 LINE",
"352 690 LINE"
);
}
);
width = 541;
},
{
layerId = "22D14058-393A-410A-BECB-F56B411A01B2";
paths = (
{
closed = 1;
nodes = (
"323 224 LINE SMOOTH",
"323 167 OFFCURVE",
"294 146 OFFCURVE",
"261 146 CURVE SMOOTH",
"228 146 OFFCURVE",
"200 167 OFFCURVE",
"199 224 CURVE",
"29 224 LINE",
"29 73 OFFCURVE",
"131 -7 OFFCURVE",
"261 -7 CURVE SMOOTH",
"391 -7 OFFCURVE",
"494 73 OFFCURVE",
"494 224 CURVE SMOOTH",
"494 702 LINE",
"323 702 LINE"
);
}
);
width = 594;
},
{
layerId = "3C02C8EC-C43C-4762-8B99-FE4CB64E6532";
paths = (
{
closed = 1;
nodes = (
"302 170 LINE SMOOTH",
"291 111 OFFCURVE",
"252 53 OFFCURVE",
"169 53 CURVE SMOOTH",
"86 53 OFFCURVE",
"68 111 OFFCURVE",
"78 170 CURVE",
"6 170 LINE",
"-13 64 OFFCURVE",
"47 -7 OFFCURVE",
"159 -7 CURVE SMOOTH",
"270 -7 OFFCURVE",
"353 64 OFFCURVE",
"372 170 CURVE SMOOTH",
"463 690 LINE",
"393 690 LINE"
);
}
);
width = 471;
},
{
layerId = "AD4288EF-621A-4539-AF14-1A70F42B46A9";
paths = (
{
closed = 1;
nodes = (
"301.224 224 LINE SMOOTH",
"291.173 167 OFFCURVE",
"262 146 OFFCURVE",
"225.47 146 CURVE SMOOTH",
"192 146 OFFCURVE",
"171 170 OFFCURVE",
"177.224 224 CURVE",
"7.224 224 LINE",
"-9.019 88.846 OFFCURVE",
"73.782 -7 OFFCURVE",
"216 -7 CURVE SMOOTH",
"355.815 -7 OFFCURVE",
"445.65 73.295 OFFCURVE",
"472.224 224 CURVE SMOOTH",
"556.508 702 LINE",
"385.508 702 LINE"
);
}
);
width = 570;
}
);
unicode = 004A;
userData = {
public.markColor = "0.67,0.95,0.38,1";
};
},
{
color = 4;
glyphname = K;
lastChange = "2017-08-08 23:18:27 +0000";
layers = (
{
anchors = (
{
name = bottom;
position = "{283, 0}";
},
{
name = top;
position = "{283, 690}";
}
);
layerId = "C0ED9D5D-A651-429A-8F5D-D93A2EDA2DC0";
paths = (
{
closed = 1;
nodes = (
"75 0 LINE",
"145 0 LINE",
"145 690 LINE",
"75 690 LINE"
);
},
{
closed = 1;
nodes = (
"118 338 LINE",
"440 0 LINE",
"535 0 LINE",
"186 355 LINE",
"179 318 LINE",
"535 690 LINE",
"444 690 LINE"
);
}
);
width = 565;
},
{
anchors = (
{
name = bottom;
position = "{360, 0}";
},
{
name = top;
position = "{360, 704}";
}
);
layerId = "22D14058-393A-410A-BECB-F56B411A01B2";
paths = (
{
closed = 1;
nodes = (
"75 0 LINE",
"246 0 LINE",
"246 702 LINE",
"75 702 LINE"
);
},
{
closed = 1;
nodes = (
"214 352 LINE",
"482 0 LINE",
"702 0 LINE",
"399 368 LINE",
"391 325 LINE",
"702 702 LINE",
"478 702 LINE"
);
}
);
width = 720;
},
{
anchors = (
{
name = bottom;
position = "{222.167, 0}";
},
{
name = top;
position = "{343.833, 690}";
}
);
layerId = "3C02C8EC-C43C-4762-8B99-FE4CB64E6532";
paths = (
{
closed = 1;
nodes = (
"14.167 0 LINE",
"84.167 0 LINE",
"205.833 690 LINE",
"135.833 690 LINE"
);
},
{
closed = 1;
nodes = (
"117 348 LINE",
"379.167 0 LINE",
"474.167 0 LINE",
"188 365 LINE",
"189 328 LINE",
"595.833 690 LINE",
"504.833 690 LINE"
);
}
);
width = 565;
},
{
anchors = (
{
name = bottom;
position = "{298.109, 0}";
},
{
name = top;
position = "{422.243, 704}";
}
);
layerId = "AD4288EF-621A-4539-AF14-1A70F42B46A9";
paths = (
{
closed = 1;
nodes = (
"13.109 0 LINE",
"184.109 0 LINE",
"307.891 702 LINE",
"136.891 702 LINE"
);
},
{
closed = 1;
nodes = (
"214.176 352 LINE",
"420.109 0 LINE",
"640.109 0 LINE",
"401.998 368 LINE",
"386.415 325 LINE",
"763.891 702 LINE",
"539.891 702 LINE"
);
}
);
width = 720;
}
);
unicode = 004B;
userData = {
public.markColor = "0.67,0.95,0.38,1";
};
},
{
color = 4;
glyphname = L;
lastChange = "2017-08-08 23:18:27 +0000";
layers = (
{
anchors = (
{
name = bottom;
position = "{230, 0}";
},
{
name = commaaccent;
position = "{230, 10}";
},
{
name = top;
position = "{208, 690}";
},
{
name = topright;
position = "{396, 690}";
}
);
layerId = "C0ED9D5D-A651-429A-8F5D-D93A2EDA2DC0";
paths = (
{
closed = 1;
nodes = (
"75 690 LINE",
"75 0 LINE",
"396 0 LINE",
"396 54 LINE",
"145 54 LINE",
"145 690 LINE"
);
}
);
width = 416;
},
{
anchors = (
{
name = bottom;
position = "{270, 0}";
},
{
name = commaaccent;
position = "{270, 10}";
},
{
name = top;
position = "{240, 704}";
},
{
name = topright;
position = "{459, 704}";
}
);
layerId = "22D14058-393A-410A-BECB-F56B411A01B2";
paths = (
{
closed = 1;
nodes = (
"75 702 LINE",
"75 0 LINE",
"459 0 LINE",
"459 130 LINE",
"246 130 LINE",
"246 702 LINE"
);
}
);
width = 479;
},
{
anchors = (
{
name = bottom;
position = "{169.167, 0}";
},
{
name = commaaccent;
position = "{170.93, 10}";
},
{
name = top;
position = "{268.833, 690}";
},
{
name = topright;
position = "{456.833, 690}";
}
);
layerId = "3C02C8EC-C43C-4762-8B99-FE4CB64E6532";
paths = (
{
closed = 1;
nodes = (
"135.833 690 LINE",
"14.167 0 LINE",
"335.167 0 LINE",
"344.689 54 LINE",
"93.689 54 LINE",
"205.833 690 LINE"
);
}
);
width = 416;
},
{
anchors = (
{
name = bottom;
position = "{208.109, 0}";
},
{
name = commaaccent;
position = "{209.872, 10}";
},
{
name = top;
position = "{302.243, 704}";
},
{
name = topright;
position = "{521.243, 704}";
}
);
layerId = "AD4288EF-621A-4539-AF14-1A70F42B46A9";
paths = (
{
closed = 1;
nodes = (
"136.891 702 LINE",
"13.109 0 LINE",
"397.109 0 LINE",
"420.032 130 LINE",
"207.032 130 LINE",
"307.891 702 LINE"
);
}
);
width = 479;
}
);
unicode = 004C;
userData = {
public.markColor = "0.67,0.95,0.38,1";
};
},
{
color = 4;
glyphname = M;
lastChange = "2017-08-08 23:18:27 +0000";
layers = (
{
layerId = "C0ED9D5D-A651-429A-8F5D-D93A2EDA2DC0";
paths = (
{
closed = 1;
nodes = (
"75 0 LINE",
"145 0 LINE",
"145 586 LINE",
"118 586 LINE",
"396 0 LINE",
"437 0 LINE",
"714 586 LINE",
"688 586 LINE",
"688 0 LINE",
"758 0 LINE",
"758 690 LINE",
"693 690 LINE",
"408 82 LINE",
"426 82 LINE",
"140 690 LINE",
"75 690 LINE"
);
}
);
width = 833;
},
{
layerId = "22D14058-393A-410A-BECB-F56B411A01B2";
paths = (
{
closed = 1;
nodes = (
"75 0 LINE",
"246 0 LINE",
"246 581 LINE",
"174 571 LINE",
"409 0 LINE",
"536 0 LINE",
"771 571 LINE",
"699 581 LINE",
"699 0 LINE",
"870 0 LINE",
"870 702 LINE",
"674 702 LINE",
"437 133 LINE",
"508 133 LINE",
"271 702 LINE",
"75 702 LINE"
);
}
);
width = 945;
},
{
layerId = "3C02C8EC-C43C-4762-8B99-FE4CB64E6532";
paths = (
{
closed = 1;
nodes = (
"14.167 0 LINE",
"84.167 0 LINE",
"187.495 586 LINE",
"160.495 586 LINE",
"335.167 0 LINE",
"376.167 0 LINE",
"756.495 586 LINE",
"730.495 586 LINE",
"627.167 0 LINE",
"697.167 0 LINE",
"818.833 690 LINE",
"753.833 690 LINE",
"361.626 82 LINE",
"379.626 82 LINE",
"200.833 690 LINE",
"135.833 690 LINE"
);
}
);
width = 833;
},
{
layerId = "AD4288EF-621A-4539-AF14-1A70F42B46A9";
paths = (
{
closed = 1;
nodes = (
"13.109 0 LINE",
"184.109 0 LINE",
"286.555 581 LINE",
"212.792 571 LINE",
"347.109 0 LINE",
"474.109 0 LINE",
"809.792 571 LINE",
"739.555 581 LINE",
"637.109 0 LINE",
"808.109 0 LINE",
"931.891 702 LINE",
"735.891 702 LINE",
"398.561 133 LINE",
"469.561 133 LINE",
"332.891 702 LINE",
"136.891 702 LINE"
);
}
);
width = 945;
}
);
unicode = 004D;
userData = {
public.markColor = "0.67,0.95,0.38,1";
};
},
{
color = 4;
glyphname = N;
lastChange = "2017-08-08 23:18:27 +0000";
layers = (
{
anchors = (
{
name = bottom;
position = "{339, 0}";
},
{
name = top;
position = "{339, 690}";
}
);
layerId = "C0ED9D5D-A651-429A-8F5D-D93A2EDA2DC0";
paths = (
{
closed = 1;
nodes = (
"532 690 LINE",
"532 112 LINE",
"145 690 LINE",
"75 690 LINE",
"75 0 LINE",
"145 0 LINE",
"145 578 LINE",
"532 0 LINE",
"602 0 LINE",
"602 690 LINE"
);
}
);
width = 677;
},
{
anchors = (
{
name = bottom;
position = "{389, 0}";
},
{
name = top;
position = "{389, 704}";
}
);
layerId = "22D14058-393A-410A-BECB-F56B411A01B2";
paths = (
{
closed = 1;
nodes = (
"532 704 LINE",
"532 261 LINE",
"246 704 LINE",
"75 704 LINE",
"75 0 LINE",
"246 0 LINE",
"246 443 LINE",
"532 0 LINE",
"703 0 LINE",
"703 704 LINE"
);
}
);
width = 778;
},
{
anchors = (
{
name = bottom;
position = "{278.167, 0}";
},
{
name = top;
position = "{399.833, 690}";
}
);
layerId = "3C02C8EC-C43C-4762-8B99-FE4CB64E6532";
paths = (
{
closed = 1;
nodes = (
"592.833 690 LINE",
"490.916 112 LINE",
"205.833 690 LINE",
"135.833 690 LINE",
"14.167 0 LINE",
"84.167 0 LINE",
"186.084 578 LINE",
"471.167 0 LINE",
"541.167 0 LINE",
"662.833 690 LINE"
);
}
);
width = 677;
},
{
anchors = (
{
name = bottom;
position = "{326.933, 0}";
},
{
name = top;
position = "{451.067, 704}";
}
);
layerId = "AD4288EF-621A-4539-AF14-1A70F42B46A9";
paths = (
{
closed = 1;
nodes = (
"594.067 704 LINE",
"515.954 261 LINE",
"308.067 704 LINE",
"137.067 704 LINE",
"12.933 0 LINE",
"183.933 0 LINE",
"262.046 443 LINE",
"469.933 0 LINE",
"640.933 0 LINE",
"765.067 704 LINE"
);
}
);
width = 778;
}
);
unicode = 004E;
userData = {
public.markColor = "0.67,0.95,0.38,1";
};
},
{
color = 4;
glyphname = O;
lastChange = "2017-08-08 23:18:27 +0000";
layers = (
{
anchors = (
{
name = top;
position = "{391, 690}";
}
);
layerId = "C0ED9D5D-A651-429A-8F5D-D93A2EDA2DC0";
paths = (
{
closed = 1;
nodes = (
"40 345 CURVE SMOOTH",
"40 139 OFFCURVE",
"196 -7 OFFCURVE",
"391 -7 CURVE SMOOTH",
"587 -7 OFFCURVE",
"742 139 OFFCURVE",
"742 345 CURVE SMOOTH",
"742 552 OFFCURVE",
"587 697 OFFCURVE",
"391 697 CURVE SMOOTH",
"196 697 OFFCURVE",
"40 552 OFFCURVE"
);
},
{
closed = 1;
nodes = (
"670 345 CURVE SMOOTH",
"670 168 OFFCURVE",
"549 53 OFFCURVE",
"391 53 CURVE SMOOTH",
"233 53 OFFCURVE",
"111 168 OFFCURVE",
"111 345 CURVE SMOOTH",
"111 523 OFFCURVE",
"233 636 OFFCURVE",
"391 636 CURVE SMOOTH",
"549 636 OFFCURVE",
"670 523 OFFCURVE"
);
}
);
width = 781;
},
{
anchors = (
{
name = top;
position = "{394, 704}";
}
);
layerId = "22D14058-393A-410A-BECB-F56B411A01B2";
paths = (
{
closed = 1;
nodes = (
"34 353 CURVE SMOOTH",
"34 142 OFFCURVE",
"195 -7 OFFCURVE",
"394 -7 CURVE SMOOTH",
"593 -7 OFFCURVE",
"753 142 OFFCURVE",
"753 353 CURVE SMOOTH",
"753 564 OFFCURVE",
"594 712 OFFCURVE",
"394 712 CURVE SMOOTH",
"195 712 OFFCURVE",
"34 564 OFFCURVE"
);
},
{
closed = 1;
nodes = (
"579 353 CURVE SMOOTH",
"579 231 OFFCURVE",
"506 151 OFFCURVE",
"394 151 CURVE SMOOTH",
"281 151 OFFCURVE",
"208 231 OFFCURVE",
"208 353 CURVE SMOOTH",
"208 476 OFFCURVE",
"281 555 OFFCURVE",
"394 555 CURVE SMOOTH",
"506 555 OFFCURVE",
"579 476 OFFCURVE"
);
}
);
width = 788;
},
{
anchors = (
{
name = top;
position = "{451.833, 690}";
}
);
layerId = "3C02C8EC-C43C-4762-8B99-FE4CB64E6532";
paths = (
{
closed = 1;
nodes = (
"40 345 CURVE SMOOTH",
"3.677 139 OFFCURVE",
"133.933 -7 OFFCURVE",
"328.933 -7 CURVE SMOOTH",
"524.933 -7 OFFCURVE",
"705.677 139 OFFCURVE",
"742 345 CURVE SMOOTH",
"778.5 552 OFFCURVE",
"649.067 697 OFFCURVE",
"453.067 697 CURVE SMOOTH",
"258.067 697 OFFCURVE",
"76.5 552 OFFCURVE"
);
},
{
closed = 1;
nodes = (
"670 345 CURVE SMOOTH",
"638.79 168 OFFCURVE",
"497.513 53 OFFCURVE",
"339.513 53 CURVE SMOOTH",
"181.513 53 OFFCURVE",
"79.79 168 OFFCURVE",
"111 345 CURVE SMOOTH",
"142.386 523 OFFCURVE",
"284.311 636 OFFCURVE",
"442.311 636 CURVE SMOOTH",
"600.311 636 OFFCURVE",
"701.386 523 OFFCURVE"
);
}
);
width = 781;
},
{
anchors = (
{
name = top;
position = "{455.979, 704}";
}
);
layerId = "AD4288EF-621A-4539-AF14-1A70F42B46A9";
paths = (
{
closed = 1;
nodes = (
"34.088 353 CURVE SMOOTH",
"4 152 OFFCURVE",
"122 -7 OFFCURVE",
"331 -7 CURVE SMOOTH",
"530 -7 OFFCURVE",
"715 122 OFFCURVE",
"753.088 353 CURVE SMOOTH",
"786.009 554.053 OFFCURVE",
"666.128 712 OFFCURVE",
"454 712 CURVE SMOOTH",
"256.412 712 OFFCURVE",
"68.994 583.964 OFFCURVE"
);
},
{
closed = 1;
nodes = (
"579.088 353 CURVE SMOOTH",
"557.576 231 OFFCURVE",
"470.47 151 OFFCURVE",
"358.47 151 CURVE SMOOTH",
"245.47 151 OFFCURVE",
"186.576 231 OFFCURVE",
"208.088 353 CURVE SMOOTH",
"229.776 476 OFFCURVE",
"317 555 OFFCURVE",
"430 555 CURVE SMOOTH",
"542 555 OFFCURVE",
"600.776 476 OFFCURVE"
);
}
);
width = 788;
}
);
unicode = 004F;
userData = {
public.markColor = "0.67,0.95,0.38,1";
};
},
{
color = 4;
glyphname = P;
lastChange = "2017-08-08 23:18:27 +0000";
layers = (
{
layerId = "C0ED9D5D-A651-429A-8F5D-D93A2EDA2DC0";
paths = (
{
closed = 1;
nodes = (
"145 346 LINE",
"145 633 LINE",
"286 633 LINE SMOOTH",
"404 633 OFFCURVE",
"451 578 OFFCURVE",
"451 489 CURVE SMOOTH",
"451 403 OFFCURVE",
"404 346 OFFCURVE",
"286 346 CURVE SMOOTH"
);
},
{
closed = 1;
nodes = (
"522 489 CURVE SMOOTH",
"522 604 OFFCURVE",
"446 690 OFFCURVE",
"286 690 CURVE SMOOTH",
"75 690 LINE",
"75 0 LINE",
"145 0 LINE",
"145 289 LINE",
"286 289 LINE SMOOTH",
"448 289 OFFCURVE",
"522 375 OFFCURVE"
);
}
);
width = 562;
},
{
layerId = "22D14058-393A-410A-BECB-F56B411A01B2";
paths = (
{
closed = 1;
nodes = (
"246 403 LINE",
"246 572 LINE",
"352 572 LINE SMOOTH",
"404 572 OFFCURVE",
"436 536 OFFCURVE",
"436 487 CURVE SMOOTH",
"436 437 OFFCURVE",
"404 403 OFFCURVE",
"352 403 CURVE SMOOTH"
);
},
{
closed = 1;
nodes = (
"610 487 CURVE SMOOTH",
"610 598 OFFCURVE",
"524 702 OFFCURVE",
"352 702 CURVE SMOOTH",
"75 702 LINE",
"75 0 LINE",
"246 0 LINE",
"246 273 LINE",
"352 273 LINE SMOOTH",
"558 273 OFFCURVE",
"610 406 OFFCURVE"
);
}
);
width = 638;
},
{
layerId = "3C02C8EC-C43C-4762-8B99-FE4CB64E6532";
paths = (
{
closed = 1;
nodes = (
"145.176 346 LINE",
"195.782 633 LINE",
"336.782 633 LINE SMOOTH",
"454.782 633 OFFCURVE",
"492.084 578 OFFCURVE",
"476.391 489 CURVE SMOOTH",
"461.227 403 OFFCURVE",
"404.176 346 OFFCURVE",
"286.176 346 CURVE SMOOTH"
);
},
{
closed = 1;
nodes = (
"547.391 489 CURVE SMOOTH",
"567.669 604 OFFCURVE",
"506.833 690 OFFCURVE",
"346.833 690 CURVE SMOOTH",
"135.833 690 LINE",
"14.167 0 LINE",
"84.167 0 LINE",
"135.126 289 LINE",
"276.126 289 LINE SMOOTH",
"438.126 289 OFFCURVE",
"527.29 375 OFFCURVE"
);
}
);
width = 562;
},
{
layerId = "AD4288EF-621A-4539-AF14-1A70F42B46A9";
paths = (
{
closed = 1;
nodes = (
"255.169 403 LINE",
"284.968 572 LINE",
"381 572 LINE SMOOTH",
"440.538 572 OFFCURVE",
"469.039 540.231 OFFCURVE",
"459.98 487 CURVE SMOOTH",
"450.97 436.834 OFFCURVE",
"418 403 OFFCURVE",
"351 403 CURVE SMOOTH"
);
},
{
closed = 1;
nodes = (
"630 472 CURVE SMOOTH",
"652.288 597.624 OFFCURVE",
"587.497 702 OFFCURVE",
"413.891 702 CURVE SMOOTH",
"136.891 702 LINE",
"13.109 0 LINE",
"184.109 0 LINE",
"232.246 273 LINE",
"338.246 273 LINE SMOOTH",
"545.668 273 OFFCURVE",
"614.227 384.261 OFFCURVE"
);
}
);
width = 638;
}
);
unicode = 0050;
userData = {
public.markColor = "0.67,0.95,0.38,1";
};
},
{
color = 4;
glyphname = Q;
lastChange = "2017-08-08 23:18:27 +0000";
layers = (
{
components = (
{
name = O;
}
);
layerId = "C0ED9D5D-A651-429A-8F5D-D93A2EDA2DC0";
paths = (
{
closed = 1;
nodes = (
"478 30 LINE",
"657 -135 LINE",
"754 -135 LINE",
"535 68 LINE"
);
}
);
width = 782;
},
{
components = (
{
name = O;
}
);
layerId = "22D14058-393A-410A-BECB-F56B411A01B2";
paths = (
{
closed = 1;
nodes = (
"417 75 LINE",
"556 -115 LINE",
"763 -115 LINE",
"590 107 LINE"
);
}
);
width = 794;
},
{
components = (
{
name = O;
}
);
layerId = "3C02C8EC-C43C-4762-8B99-FE4CB64E6532";
paths = (
{
closed = 1;
nodes = (
"433.742 30 LINE",
"583.648 -135 LINE",
"680.648 -135 LINE",
"497.442 68 LINE"
);
}
);
width = 782;
},
{
components = (
{
name = O;
transform = "{1, 0, 0, 1, 7, 0}";
}
);
layerId = "AD4288EF-621A-4539-AF14-1A70F42B46A9";
paths = (
{
closed = 1;
nodes = (
"438 75 LINE",
"543 -115 LINE",
"750 -115 LINE",
"616 107 LINE"
);
}
);
width = 794;
}
);
unicode = 0051;
userData = {
public.markColor = "0.67,0.95,0.38,1";
};
},
{
color = 4;
glyphname = R;
lastChange = "2017-08-08 23:18:27 +0000";
layers = (
{
anchors = (
{
name = bottom;
position = "{302, 0}";
},
{
name = top;
position = "{302, 690}";
}
);
layerId = "C0ED9D5D-A651-429A-8F5D-D93A2EDA2DC0";
paths = (
{
closed = 1;
nodes = (
"451 489 CURVE SMOOTH",
"451 403 OFFCURVE",
"404 346 OFFCURVE",
"286 346 CURVE SMOOTH",
"145 346 LINE",
"145 633 LINE",
"286 633 LINE SMOOTH",
"404 633 OFFCURVE",
"451 578 OFFCURVE"
);
},
{
closed = 1;
nodes = (
"75 690 LINE",
"75 0 LINE",
"145 0 LINE",
"145 289 LINE",
"286 289 LINE SMOOTH",
"448 289 OFFCURVE",
"522 375 OFFCURVE",
"522 489 CURVE SMOOTH",
"522 604 OFFCURVE",
"446 690 OFFCURVE",
"286 690 CURVE SMOOTH"
);
},
{
closed = 1;
nodes = (
"236 315 LINE",
"440 0 LINE",
"531 0 LINE",
"320 315 LINE"
);
}
);
width = 603;
},
{
anchors = (
{
name = bottom;
position = "{334, 0}";
},
{
name = top;
position = "{334, 704}";
}
);
layerId = "22D14058-393A-410A-BECB-F56B411A01B2";
paths = (
{
closed = 1;
nodes = (
"436 487 CURVE SMOOTH",
"436 437 OFFCURVE",
"404 403 OFFCURVE",
"352 403 CURVE SMOOTH",
"246 403 LINE",
"246 572 LINE",
"352 572 LINE SMOOTH",
"404 572 OFFCURVE",
"436 536 OFFCURVE"
);
},
{
closed = 1;
nodes = (
"75 702 LINE",
"75 0 LINE",
"246 0 LINE",
"246 273 LINE",
"352 273 LINE SMOOTH",
"558 273 OFFCURVE",
"610 406 OFFCURVE",
"610 487 CURVE SMOOTH",
"610 598 OFFCURVE",
"524 702 OFFCURVE",
"352 702 CURVE SMOOTH"
);
},
{
closed = 1;
nodes = (
"242 315 LINE",
"424 0 LINE",
"624 0 LINE",
"435 315 LINE"
);
}
);
width = 668;
},
{
anchors = (
{
name = bottom;
position = "{241.167, 0}";
},
{
name = top;
position = "{362.833, 690}";
}
);
layerId = "3C02C8EC-C43C-4762-8B99-FE4CB64E6532";
paths = (
{
closed = 1;
nodes = (
"476.391 489 CURVE SMOOTH",
"461.227 403 OFFCURVE",
"404.176 346 OFFCURVE",
"286.176 346 CURVE SMOOTH",
"145.176 346 LINE",
"195.782 633 LINE",
"336.782 633 LINE SMOOTH",
"454.782 633 OFFCURVE",
"492.084 578 OFFCURVE"
);
},
{
closed = 1;
nodes = (
"135.833 690 LINE",
"14.167 0 LINE",
"84.167 0 LINE",
"135.126 289 LINE",
"276.126 289 LINE SMOOTH",
"438.126 289 OFFCURVE",
"527.29 375 OFFCURVE",
"547.391 489 CURVE SMOOTH",
"567.669 604 OFFCURVE",
"506.833 690 OFFCURVE",
"346.833 690 CURVE SMOOTH"
);
},
{
closed = 1;
nodes = (
"230.71 315 LINE",
"379.167 0 LINE",
"470.167 0 LINE",
"314.71 315 LINE"
);
}
);
width = 603;
},
{
anchors = (
{
name = bottom;
position = "{272.109, 0}";
},
{
name = top;
position = "{396.243, 704}";
}
);
layerId = "AD4288EF-621A-4539-AF14-1A70F42B46A9";
paths = (
{
closed = 1;
nodes = (
"459 480 CURVE SMOOTH",
"449 427 OFFCURVE",
"408.254 403 OFFCURVE",
"351 403 CURVE SMOOTH",
"255.169 403 LINE",
"284.968 572 LINE",
"381 572 LINE SMOOTH",
"440.538 572 OFFCURVE",
"469 536 OFFCURVE"
);
},
{
closed = 1;
nodes = (
"136.891 702 LINE",
"13.109 0 LINE",
"184.109 0 LINE",
"232.246 273 LINE",
"338.246 273 LINE SMOOTH",
"516 273 OFFCURVE",
"613 370 OFFCURVE",
"634 477 CURVE SMOOTH",
"657 597 OFFCURVE",
"585.891 702 OFFCURVE",
"413.891 702 CURVE SMOOTH"
);
},
{
closed = 1;
nodes = (
"235.652 315 LINE",
"362.109 0 LINE",
"562.109 0 LINE",
"428.652 315 LINE"
);
}
);
width = 668;
}
);
unicode = 0052;
userData = {
public.markColor = "0.67,0.95,0.38,1";
};
},
{
color = 4;
glyphname = S;
lastChange = "2017-08-08 23:18:27 +0000";
layers = (
{
anchors = (
{
name = bottom;
position = "{286, 0}";
},
{
name = top;
position = "{286, 690}";
}
);
layerId = "C0ED9D5D-A651-429A-8F5D-D93A2EDA2DC0";
paths = (
{
closed = 1;
nodes = (
"125 508 CURVE SMOOTH",
"125 595 OFFCURVE",
"189 637 OFFCURVE",
"274 637 CURVE SMOOTH",
"367 637 OFFCURVE",
"414 582 OFFCURVE",
"419 532 CURVE",
"498 532 LINE",
"483 629 OFFCURVE",
"406 697 OFFCURVE",
"284 697 CURVE SMOOTH",
"142 697 OFFCURVE",
"60 619 OFFCURVE",
"60 507 CURVE SMOOTH",
"60 238 OFFCURVE",
"446 386 OFFCURVE",
"446 186 CURVE SMOOTH",
"446 112 OFFCURVE",
"387 52 OFFCURVE",
"284 52 CURVE SMOOTH",
"181 52 OFFCURVE",
"139 105 OFFCURVE",
"134 163 CURVE",
"60 163 LINE",
"60 56 OFFCURVE",
"160 -7 OFFCURVE",
"284 -7 CURVE SMOOTH",
"439 -7 OFFCURVE",
"511 94 OFFCURVE",
"511 190 CURVE SMOOTH",
"511 452 OFFCURVE",
"125 306 OFFCURVE"
);
}
);
width = 571;
},
{
anchors = (
{
name = bottom;
position = "{324, 0}";
},
{
name = top;
position = "{324, 704}";
}
);
layerId = "22D14058-393A-410A-BECB-F56B411A01B2";
paths = (
{
closed = 1;
nodes = (
"240 508 CURVE SMOOTH",
"240 558 OFFCURVE",
"274 577 OFFCURVE",
"314 577 CURVE SMOOTH",
"354 577 OFFCURVE",
"385 550 OFFCURVE",
"390 498 CURVE",
"576 498 LINE",
"572 654 OFFCURVE",
"462 712 OFFCURVE",
"316 712 CURVE SMOOTH",
"174 712 OFFCURVE",
"60 630 OFFCURVE",
"60 496 CURVE SMOOTH",
"60 250 OFFCURVE",
"407 338 OFFCURVE",
"407 199 CURVE SMOOTH",
"407 156 OFFCURVE",
"377 128 OFFCURVE",
"328 128 CURVE SMOOTH",
"279 128 OFFCURVE",
"247 152 OFFCURVE",
"242 212 CURVE",
"60 212 LINE",
"60 69 OFFCURVE",
"168 -7 OFFCURVE",
"328 -7 CURVE SMOOTH",
"483 -7 OFFCURVE",
"587 93 OFFCURVE",
"587 209 CURVE SMOOTH",
"587 460 OFFCURVE",
"240 364 OFFCURVE"
);
}
);
width = 647;
},
{
anchors = (
{
name = bottom;
position = "{225.167, 0}";
},
{
name = top;
position = "{346.833, 690}";
}
);
layerId = "3C02C8EC-C43C-4762-8B99-FE4CB64E6532";
paths = (
{
closed = 1;
nodes = (
"154 548 CURVE SMOOTH",
"168 612 OFFCURVE",
"230 637 OFFCURVE",
"300 637 CURVE SMOOTH",
"400 637 OFFCURVE",
"446 582 OFFCURVE",
"451.973 532 CURVE",
"530.973 532 LINE",
"520 614 OFFCURVE",
"450 697 OFFCURVE",
"311 697 CURVE",
"185 697 OFFCURVE",
"111 638 OFFCURVE",
"93 553 CURVE SMOOTH",
"40.008 301.527 OFFCURVE",
"448.954 368.764 OFFCURVE",
"408 161 CURVE SMOOTH",
"395 96 OFFCURVE",
"334 52 OFFCURVE",
"252 52 CURVE",
"154 52 OFFCURVE",
"95 105 OFFCURVE",
"92 163 CURVE",
"18 163 LINE",
"24 66 OFFCURVE",
"112 -7 OFFCURVE",
"242 -7 CURVE",
"376 -7 OFFCURVE",
"458 71 OFFCURVE",
"474 150 CURVE SMOOTH",
"526.939 413.695 OFFCURVE",
"113.052 354.248 OFFCURVE"
);
}
);
width = 571;
},
{
anchors = (
{
name = bottom;
position = "{261.845, 0}";
},
{
name = top;
position = "{385.979, 704}";
}
);
layerId = "AD4288EF-621A-4539-AF14-1A70F42B46A9";
paths = (
{
closed = 1;
nodes = (
"266 524 CURVE SMOOTH",
"270 558 OFFCURVE",
"295 577 OFFCURVE",
"337 577 CURVE SMOOTH",
"383 577 OFFCURVE",
"420.004 550.053 OFFCURVE",
"416 498 CURVE",
"602 498 LINE",
"615 624 OFFCURVE",
"512 712 OFFCURVE",
"349 712 CURVE",
"198 712 OFFCURVE",
"85 635 OFFCURVE",
"82 503 CURVE SMOOTH",
"77 280 OFFCURVE",
"407 324 OFFCURVE",
"380 187 CURVE SMOOTH",
"372 144 OFFCURVE",
"339 128 OFFCURVE",
"296 128 CURVE",
"248 128 OFFCURVE",
"217 152 OFFCURVE",
"217 212 CURVE",
"35 212 LINE",
"25 89 OFFCURVE",
"127 -7 OFFCURVE",
"286 -7 CURVE",
"452 -7 OFFCURVE",
"535 73 OFFCURVE",
"555 169 CURVE SMOOTH",
"608 431 OFFCURVE",
"253 411 OFFCURVE"
);
}
);
width = 647;
}
);
unicode = 0053;
userData = {
public.markColor = "0.67,0.95,0.38,1";
};
},
{
color = 4;
glyphname = T;
lastChange = "2017-08-08 23:18:27 +0000";
layers = (
{
anchors = (
{
name = bottom;
position = "{265, 0}";
},
{
name = top;
position = "{265, 690}";
}
);
layerId = "C0ED9D5D-A651-429A-8F5D-D93A2EDA2DC0";
paths = (
{
closed = 1;
nodes = (
"49 633 LINE",
"230 633 LINE",
"230 0 LINE",
"299 0 LINE",
"299 633 LINE",
"480 633 LINE",
"480 690 LINE",
"49 690 LINE"
);
}
);
width = 529;
},
{
anchors = (
{
name = bottom;
position = "{304, 0}";
},
{
name = top;
position = "{304, 704}";
}
);
layerId = "22D14058-393A-410A-BECB-F56B411A01B2";
paths = (
{
closed = 1;
nodes = (
"27 572 LINE",
"218 572 LINE",
"218 0 LINE",
"389 0 LINE",
"389 572 LINE",
"581 572 LINE",
"581 702 LINE",
"27 702 LINE"
);
}
);
width = 608;
},
{
anchors = (
{
name = bottom;
position = "{204.167, 0}";
},
{
name = top;
position = "{325.833, 690}";
}
);
layerId = "3C02C8EC-C43C-4762-8B99-FE4CB64E6532";
paths = (
{
closed = 1;
nodes = (
"99.782 633 LINE",
"280.782 633 LINE",
"169.167 0 LINE",
"238.167 0 LINE",
"349.782 633 LINE",
"530.782 633 LINE",
"540.833 690 LINE",
"109.833 690 LINE"
);
}
);
width = 529;
},
{
anchors = (
{
name = bottom;
position = "{242.109, 0}";
},
{
name = top;
position = "{366.243, 704}";
}
);
layerId = "AD4288EF-621A-4539-AF14-1A70F42B46A9";
paths = (
{
closed = 1;
nodes = (
"65.968 572 LINE",
"256.968 572 LINE",
"156.109 0 LINE",
"327.109 0 LINE",
"427.968 572 LINE",
"619.968 572 LINE",
"642.891 702 LINE",
"88.891 702 LINE"
);
}
);
width = 608;
}
);
unicode = 0054;
userData = {
public.markColor = "0.67,0.95,0.38,1";
};
},
{
color = 4;
glyphname = U;
lastChange = "2017-08-08 23:18:27 +0000";
layers = (
{
anchors = (
{
name = ogonek;
position = "{452, 0}";
},
{
name = top;
position = "{329, 690}";
}
);
layerId = "C0ED9D5D-A651-429A-8F5D-D93A2EDA2DC0";
paths = (
{
closed = 1;
nodes = (
"75 232 LINE SMOOTH",
"75 67 OFFCURVE",
"189 -7 OFFCURVE",
"330 -7 CURVE SMOOTH",
"470 -7 OFFCURVE",
"584 67 OFFCURVE",
"584 232 CURVE SMOOTH",
"584 690 LINE",
"514 690 LINE",
"514 232 LINE SMOOTH",
"514 104 OFFCURVE",
"439 51 OFFCURVE",
"330 51 CURVE SMOOTH",
"221 51 OFFCURVE",
"145 104 OFFCURVE",
"145 232 CURVE SMOOTH",
"145 690 LINE",
"75 690 LINE"
);
}
);
width = 658;
},
{
anchors = (
{
name = ogonek;
position = "{528, 0}";
},
{
name = top;
position = "{366, 704}";
}
);
layerId = "22D14058-393A-410A-BECB-F56B411A01B2";
paths = (
{
closed = 1;
nodes = (
"72 283 LINE SMOOTH",
"72 89 OFFCURVE",
"210 -7 OFFCURVE",
"362 -7 CURVE SMOOTH",
"513 -7 OFFCURVE",
"660 89 OFFCURVE",
"660 283 CURVE SMOOTH",
"660 702 LINE",
"489 702 LINE",
"489 283 LINE SMOOTH",
"489 200 OFFCURVE",
"446 152 OFFCURVE",
"365 152 CURVE SMOOTH",
"284 152 OFFCURVE",
"243 200 OFFCURVE",
"243 283 CURVE SMOOTH",
"243 702 LINE",
"72 702 LINE"
);
}
);
width = 731;
},
{
anchors = (
{
name = ogonek;
position = "{391.784, 0}";
},
{
name = top;
position = "{390.45, 690}";
}
);
layerId = "3C02C8EC-C43C-4762-8B99-FE4CB64E6532";
paths = (
{
closed = 1;
nodes = (
"55.692 232 LINE SMOOTH",
"26.598 67 OFFCURVE",
"127.55 -7 OFFCURVE",
"268.55 -7 CURVE SMOOTH",
"408.55 -7 OFFCURVE",
"535.598 67 OFFCURVE",
"564.692 232 CURVE SMOOTH",
"645.45 690 LINE",
"575.45 690 LINE",
"494.692 232 LINE SMOOTH",
"472.122 104 OFFCURVE",
"387.777 51 OFFCURVE",
"278.777 51 CURVE SMOOTH",
"169.777 51 OFFCURVE",
"103.122 104 OFFCURVE",
"125.692 232 CURVE SMOOTH",
"206.45 690 LINE",
"136.45 690 LINE"
);
}
);
width = 658;
},
{
anchors = (
{
name = ogonek;
position = "{466.726, 0}";
},
{
name = top;
position = "{428.861, 704}";
}
);
layerId = "AD4288EF-621A-4539-AF14-1A70F42B46A9";
paths = (
{
closed = 1;
nodes = (
"60.627 283 LINE SMOOTH",
"26.419 89 OFFCURVE",
"147.492 -7 OFFCURVE",
"299.492 -7 CURVE SMOOTH",
"450.492 -7 OFFCURVE",
"614.419 89 OFFCURVE",
"648.627 283 CURVE SMOOTH",
"722.508 702 LINE",
"551.508 702 LINE",
"477.627 283 LINE SMOOTH",
"462.992 200 OFFCURVE",
"411.528 152 OFFCURVE",
"330.528 152 CURVE SMOOTH",
"249.528 152 OFFCURVE",
"216.992 200 OFFCURVE",
"231.627 283 CURVE SMOOTH",
"305.508 702 LINE",
"134.508 702 LINE"
);
}
);
width = 731;
}
);
unicode = 0055;
userData = {
public.markColor = "0.67,0.95,0.38,1";
};
},
{
color = 4;
glyphname = V;
lastChange = "2017-08-08 23:18:27 +0000";
layers = (
{
layerId = "C0ED9D5D-A651-429A-8F5D-D93A2EDA2DC0";
paths = (
{
closed = 1;
nodes = (
"300 0 LINE",
"368 0 LINE",
"639 690 LINE",
"565 690 LINE",
"333 79 LINE",
"103 690 LINE",
"29 690 LINE"
);
}
);
width = 668;
},
{
layerId = "22D14058-393A-410A-BECB-F56B411A01B2";
paths = (
{
closed = 1;
nodes = (
"256 0 LINE",
"470 0 LINE",
"719 702 LINE",
"537 702 LINE",
"363 167 LINE",
"189 702 LINE",
"7 702 LINE"
);
}
);
width = 726;
},
{
layerId = "3C02C8EC-C43C-4762-8B99-FE4CB64E6532";
paths = (
{
closed = 1;
nodes = (
"239.167 0 LINE",
"307.167 0 LINE",
"699.833 690 LINE",
"625.833 690 LINE",
"286.097 79 LINE",
"163.833 690 LINE",
"89.833 690 LINE"
);
}
);
width = 668;
},
{
layerId = "AD4288EF-621A-4539-AF14-1A70F42B46A9";
paths = (
{
closed = 1;
nodes = (
"194.109 0 LINE",
"408.109 0 LINE",
"780.891 702 LINE",
"598.891 702 LINE",
"330.556 167 LINE",
"250.891 702 LINE",
"68.891 702 LINE"
);
}
);
width = 726;
}
);
unicode = 0056;
userData = {
public.markColor = "0.67,0.95,0.38,1";
};
},
{
color = 4;
glyphname = W;
lastChange = "2017-08-08 23:18:27 +0000";
layers = (
{
layerId = "C0ED9D5D-A651-429A-8F5D-D93A2EDA2DC0";
paths = (
{
closed = 1;
nodes = (
"224 -1 LINE",
"300 0 LINE",
"497 648 LINE",
"463 648 LINE",
"644 0 LINE",
"720 0 LINE",
"934 690 LINE",
"861 690 LINE",
"670 38 LINE",
"695 37 LINE",
"519 690 LINE",
"443 690 LINE",
"252 40 LINE",
"274 40 LINE",
"102 690 LINE",
"29 690 LINE"
);
}
);
width = 963;
},
{
layerId = "22D14058-393A-410A-BECB-F56B411A01B2";
paths = (
{
closed = 1;
nodes = (
"205 0 LINE",
"401 0 LINE",
"535 490 LINE",
"510 490 LINE",
"646 0 LINE",
"842 0 LINE",
"1038 702 LINE",
"854 702 LINE",
"728 101 LINE",
"775 101 LINE",
"630 702 LINE",
"436 702 LINE",
"287 101 LINE",
"334 101 LINE",
"189 702 LINE",
"6 702 LINE"
);
}
);
width = 1045;
},
{
layerId = "3C02C8EC-C43C-4762-8B99-FE4CB64E6532";
paths = (
{
closed = 1;
nodes = (
"163.079 -1 LINE",
"239.255 0 LINE",
"550.515 648 LINE",
"516.515 648 LINE",
"583.255 0 LINE",
"659.255 0 LINE",
"994.921 690 LINE",
"921.921 690 LINE",
"615.956 38 LINE",
"640.779 37 LINE",
"579.921 690 LINE",
"503.921 690 LINE",
"198.308 40 LINE",
"220.308 40 LINE",
"162.921 690 LINE",
"89.921 690 LINE"
);
}
);
width = 963;
},
{
layerId = "AD4288EF-621A-4539-AF14-1A70F42B46A9";
paths = (
{
closed = 1;
nodes = (
"143.109 0 LINE",
"339.109 0 LINE",
"559.509 490 LINE",
"534.509 490 LINE",
"584.109 0 LINE",
"780.109 0 LINE",
"1099.891 702 LINE",
"915.891 702 LINE",
"683.918 101 LINE",
"730.918 101 LINE",
"691.891 702 LINE",
"497.891 702 LINE",
"242.918 101 LINE",
"289.918 101 LINE",
"250.891 702 LINE",
"67.891 702 LINE"
);
}
);
width = 1045;
}
);
unicode = 0057;
userData = {
public.markColor = "0.67,0.95,0.38,1";
};
},
{
color = 4;
glyphname = X;
lastChange = "2017-08-08 23:18:27 +0000";
layers = (
{
layerId = "C0ED9D5D-A651-429A-8F5D-D93A2EDA2DC0";
paths = (
{
closed = 1;
nodes = (
"475 0 LINE",
"551 0 LINE",
"126 690 LINE",
"50 690 LINE"
);
},
{
closed = 1;
nodes = (
"273 363 LINE",
"50 0 LINE",
"126 0 LINE",
"306 310 LINE"
);
},
{
closed = 1;
nodes = (
"328 327 LINE",
"551 690 LINE",
"475 690 LINE",
"295 380 LINE"
);
}
);
width = 601;
},
{
layerId = "22D14058-393A-410A-BECB-F56B411A01B2";
paths = (
{
closed = 1;
nodes = (
"492 0 LINE",
"686 0 LINE",
"244 702 LINE",
"50 702 LINE"
);
},
{
closed = 1;
nodes = (
"301 398 LINE",
"50 0 LINE",
"244 0 LINE",
"399 265 LINE"
);
},
{
closed = 1;
nodes = (
"436 304 LINE",
"687 702 LINE",
"493 702 LINE",
"338 437 LINE"
);
}
);
width = 736;
},
{
layerId = "3C02C8EC-C43C-4762-8B99-FE4CB64E6532";
paths = (
{
closed = 1;
nodes = (
"414.167 0 LINE",
"490.167 0 LINE",
"186.833 690 LINE",
"110.833 690 LINE"
);
},
{
closed = 1;
nodes = (
"276.174 363 LINE",
"-10.833 0 LINE",
"65.167 0 LINE",
"299.829 310 LINE"
);
},
{
closed = 1;
nodes = (
"324.826 327 LINE",
"611.833 690 LINE",
"535.833 690 LINE",
"301.171 380 LINE"
);
}
);
width = 601;
},
{
layerId = "AD4288EF-621A-4539-AF14-1A70F42B46A9";
paths = (
{
closed = 1;
nodes = (
"430.109 0 LINE",
"624.109 0 LINE",
"305.891 702 LINE",
"111.891 702 LINE"
);
},
{
closed = 1;
nodes = (
"309.287 398 LINE",
"-11.891 0 LINE",
"182.109 0 LINE",
"383.836 265 LINE"
);
},
{
closed = 1;
nodes = (
"427.713 304 LINE",
"748.891 702 LINE",
"554.891 702 LINE",
"353.164 437 LINE"
);
}
);
width = 736;
}
);
unicode = 0058;
userData = {
public.markColor = "0.67,0.95,0.38,1";
};
},
{
color = 4;
glyphname = Y;
lastChange = "2017-08-08 23:18:27 +0000";
layers = (
{
anchors = (
{
name = top;
position = "{271, 690}";
}
);
layerId = "C0ED9D5D-A651-429A-8F5D-D93A2EDA2DC0";
paths = (
{
closed = 1;
nodes = (
"236 272 LINE",
"236 0 LINE",
"306 0 LINE",
"306 272 LINE",
"526 690 LINE",
"450 690 LINE",
"250 296 LINE",
"291 296 LINE",
"90 690 LINE",
"15 690 LINE"
);
}
);
width = 541;
},
{
anchors = (
{
name = top;
position = "{344, 704}";
}
);
layerId = "22D14058-393A-410A-BECB-F56B411A01B2";
paths = (
{
closed = 1;
nodes = (
"258 226 LINE",
"258 0 LINE",
"429 0 LINE",
"429 226 LINE",
"672 702 LINE",
"478 702 LINE",
"309 304 LINE",
"378 304 LINE",
"209 702 LINE",
"15 702 LINE"
);
}
);
width = 687;
},
{
anchors = (
{
name = top;
position = "{331.833, 690}";
}
);
layerId = "3C02C8EC-C43C-4762-8B99-FE4CB64E6532";
paths = (
{
closed = 1;
nodes = (
"223.128 272 LINE",
"175.167 0 LINE",
"245.167 0 LINE",
"293.128 272 LINE",
"586.833 690 LINE",
"510.833 690 LINE",
"241.36 296 LINE",
"282.36 296 LINE",
"150.833 690 LINE",
"75.833 690 LINE"
);
}
);
width = 541;
},
{
anchors = (
{
name = top;
position = "{406.243, 704}";
}
);
layerId = "AD4288EF-621A-4539-AF14-1A70F42B46A9";
paths = (
{
closed = 1;
nodes = (
"235.959 226 LINE",
"196.109 0 LINE",
"367.109 0 LINE",
"406.959 226 LINE",
"733.891 702 LINE",
"539.891 702 LINE",
"300.713 304 LINE",
"369.713 304 LINE",
"270.891 702 LINE",
"76.891 702 LINE"
);
}
);
width = 687;
}
);
unicode = 0059;
userData = {
public.markColor = "0.67,0.95,0.38,1";
};
},
{
color = 4;
glyphname = Z;
lastChange = "2017-08-08 23:18:27 +0000";
layers = (
{
anchors = (
{
name = top;
position = "{264, 690}";
}
);
layerId = "C0ED9D5D-A651-429A-8F5D-D93A2EDA2DC0";
paths = (
{
closed = 1;
nodes = (
"478 690 LINE",
"50 690 LINE",
"50 633 LINE",
"398 633 LINE",
"50 56 LINE",
"50 0 LINE",
"478 0 LINE",
"478 56 LINE",
"130 56 LINE",
"478 633 LINE"
);
}
);
width = 528;
},
{
anchors = (
{
name = top;
position = "{298, 704}";
}
);
layerId = "22D14058-393A-410A-BECB-F56B411A01B2";
paths = (
{
closed = 1;
nodes = (
"546 702 LINE",
"50 702 LINE",
"50 572 LINE",
"349 572 LINE",
"50 130 LINE",
"50 0 LINE",
"546 0 LINE",
"546 130 LINE",
"247 130 LINE",
"546 572 LINE"
);
}
);
width = 596;
},
{
anchors = (
{
name = top;
position = "{324.833, 690}";
}
);
layerId = "3C02C8EC-C43C-4762-8B99-FE4CB64E6532";
paths = (
{
closed = 1;
nodes = (
"538.833 690 LINE",
"110.833 690 LINE",
"100.782 633 LINE",
"448.782 633 LINE",
"-0.958 56 LINE",
"-10.833 0 LINE",
"417.167 0 LINE",
"427.042 56 LINE",
"79.042 56 LINE",
"528.782 633 LINE"
);
}
);
width = 528;
},
{
anchors = (
{
name = top;
position = "{360.243, 704}";
}
);
layerId = "AD4288EF-621A-4539-AF14-1A70F42B46A9";
paths = (
{
closed = 1;
nodes = (
"607.891 702 LINE",
"111.891 702 LINE",
"88.968 572 LINE",
"387.968 572 LINE",
"11.032 130 LINE",
"-11.891 0 LINE",
"484.109 0 LINE",
"507.032 130 LINE",
"208.032 130 LINE",
"584.968 572 LINE"
);
}
);
width = 596;
}
);
unicode = 005A;
userData = {
public.markColor = "0.67,0.95,0.38,1";
};
},
{
color = 3;
glyphname = bracketleft;
lastChange = "2017-08-08 23:18:27 +0000";
layers = (
{
layerId = "C0ED9D5D-A651-429A-8F5D-D93A2EDA2DC0";
paths = (
{
closed = 1;
nodes = (
"170 -166 LINE",
"306 -166 LINE",
"306 -106 LINE",
"235 -106 LINE",
"235 880 LINE",
"306 880 LINE",
"306 940 LINE",
"170 940 LINE"
);
}
);
width = 465;
},
{
layerId = "22D14058-393A-410A-BECB-F56B411A01B2";
paths = (
{
closed = 1;
nodes = (
"120 -188 LINE",
"420 -188 LINE",
"420 -49 LINE",
"280 -49 LINE",
"280 811 LINE",
"420 811 LINE",
"420 950 LINE",
"120 950 LINE"
);
}
);
width = 510;
},
{
layerId = "3C02C8EC-C43C-4762-8B99-FE4CB64E6532";
paths = (
{
closed = 1;
nodes = (
"72.491 -166 LINE",
"208.491 -166 LINE",
"219.071 -106 LINE",
"148.071 -106 LINE",
"321.929 880 LINE",
"392.929 880 LINE",
"403.509 940 LINE",
"267.509 940 LINE"
);
}
);
width = 465;
},
{
layerId = "AD4288EF-621A-4539-AF14-1A70F42B46A9";
paths = (
{
closed = 1;
nodes = (
"19.67 -188 LINE",
"319.67 -188 LINE",
"344.179 -49 LINE",
"204.179 -49 LINE",
"355.821 811 LINE",
"495.821 811 LINE",
"520.33 950 LINE",
"220.33 950 LINE"
);
}
);
width = 510;
}
);
unicode = 005B;
userData = {
public.markColor = "0.97,1,0,1";
};
},
{
color = 3;
glyphname = backslash;
lastChange = "2017-08-08 23:18:27 +0000";
layers = (
{
layerId = "C0ED9D5D-A651-429A-8F5D-D93A2EDA2DC0";
paths = (
{
closed = 1;
nodes = (
"220 940 LINE",
"220 940 OFFCURVE",
"149 940 OFFCURVE",
"149 940 CURVE",
"474 -166 LINE",
"474 -166 OFFCURVE",
"544 -166 OFFCURVE",
"544 -166 CURVE"
);
}
);
width = 651;
},
{
layerId = "22D14058-393A-410A-BECB-F56B411A01B2";
paths = (
{
closed = 1;
nodes = (
"348 950 LINE",
"348 950 OFFCURVE",
"183 950 OFFCURVE",
"183 950 CURVE",
"451 -187 LINE",
"451 -187 OFFCURVE",
"616 -187 OFFCURVE",
"616 -187 CURVE"
);
}
);
width = 802;
},
{
layerId = "3C02C8EC-C43C-4762-8B99-FE4CB64E6532";
paths = (
{
closed = 1;
nodes = (
"317.509 940 LINE",
"317.509 940 OFFCURVE",
"246.509 940 OFFCURVE",
"246.509 940 CURVE",
"376.491 -166 LINE",
"376.491 -166 OFFCURVE",
"446.491 -166 OFFCURVE",
"446.491 -166 CURVE"
);
}
);
width = 651;
},
{
layerId = "AD4288EF-621A-4539-AF14-1A70F42B46A9";
paths = (
{
closed = 1;
nodes = (
"448.242 950 LINE",
"448.242 950 OFFCURVE",
"283.242 950 OFFCURVE",
"283.242 950 CURVE",
"350.758 -187 LINE",
"350.758 -187 OFFCURVE",
"515.758 -187 OFFCURVE",
"515.758 -187 CURVE"
);
}
);
width = 802;
}
);
unicode = 005C;
userData = {
public.markColor = "0.97,1,0,1";
};
},
{
color = 3;
glyphname = bracketright;
lastChange = "2017-08-08 23:18:27 +0000";
layers = (
{
layerId = "C0ED9D5D-A651-429A-8F5D-D93A2EDA2DC0";
paths = (
{
closed = 1;
nodes = (
"295 940 LINE",
"159 940 LINE",
"159 880 LINE",
"230 880 LINE",
"230 -106 LINE",
"159 -106 LINE",
"159 -166 LINE",
"295 -166 LINE"
);
}
);
width = 465;
},
{
layerId = "22D14058-393A-410A-BECB-F56B411A01B2";
paths = (
{
closed = 1;
nodes = (
"389 950 LINE",
"89 950 LINE",
"89 811 LINE",
"229 811 LINE",
"229 -49 LINE",
"89 -49 LINE",
"89 -188 LINE",
"389 -188 LINE"
);
}
);
width = 508;
},
{
layerId = "3C02C8EC-C43C-4762-8B99-FE4CB64E6532";
paths = (
{
closed = 1;
nodes = (
"392.509 940 LINE",
"256.509 940 LINE",
"245.929 880 LINE",
"316.929 880 LINE",
"143.071 -106 LINE",
"72.071 -106 LINE",
"61.491 -166 LINE",
"197.491 -166 LINE"
);
}
);
width = 465;
},
{
layerId = "AD4288EF-621A-4539-AF14-1A70F42B46A9";
paths = (
{
closed = 1;
nodes = (
"489.33 950 LINE",
"189.33 950 LINE",
"164.821 811 LINE",
"304.821 811 LINE",
"153.179 -49 LINE",
"13.179 -49 LINE",
"-11.33 -188 LINE",
"288.67 -188 LINE"
);
}
);
width = 508;
}
);
unicode = 005D;
userData = {
public.markColor = "0.97,1,0,1";
};
},
{
color = 3;
glyphname = asciicircum;
lastChange = "2017-08-08 23:18:27 +0000";
layers = (
{
layerId = "C0ED9D5D-A651-429A-8F5D-D93A2EDA2DC0";
paths = (
{
closed = 1;
nodes = (
"495 171 LINE",
"571 171 LINE",
"337 690 LINE",
"274 690 LINE",
"40 171 LINE",
"116 171 LINE",
"306 599 LINE"
);
}
);
width = 611;
},
{
layerId = "22D14058-393A-410A-BECB-F56B411A01B2";
paths = (
{
closed = 1;
nodes = (
"507 165 LINE",
"679 165 LINE",
"438 704 LINE",
"272 704 LINE",
"30 165 LINE",
"202 165 LINE",
"355 506 LINE"
);
}
);
width = 709;
},
{
layerId = "3C02C8EC-C43C-4762-8B99-FE4CB64E6532";
paths = (
{
closed = 1;
nodes = (
"449.243 171 LINE",
"525.243 171 LINE",
"382.757 690 LINE",
"319.757 690 LINE",
"-5.757 171 LINE",
"70.243 171 LINE",
"335.711 599 LINE"
);
}
);
width = 611;
},
{
layerId = "AD4288EF-621A-4539-AF14-1A70F42B46A9";
paths = (
{
closed = 1;
nodes = (
"529.48 165 LINE",
"701.48 165 LINE",
"555.52 704 LINE",
"389.52 704 LINE",
"52.48 165 LINE",
"224.48 165 LINE",
"437.607 506 LINE"
);
}
);
width = 709;
}
);
unicode = 005E;
userData = {
public.markColor = "0.97,1,0,1";
};
},
{
color = 3;
glyphname = underscore;
lastChange = "2017-08-08 23:18:27 +0000";
layers = (
{
layerId = "C0ED9D5D-A651-429A-8F5D-D93A2EDA2DC0";
paths = (
{
closed = 1;
nodes = (
"158 -100 LINE",
"667 -100 LINE",
"667 -40 LINE",
"158 -40 LINE"
);
}
);
width = 813;
},
{
layerId = "22D14058-393A-410A-BECB-F56B411A01B2";
paths = (
{
closed = 1;
nodes = (
"85 -205 LINE",
"705 -205 LINE",
"705 -41 LINE",
"85 -41 LINE"
);
}
);
width = 780;
},
{
layerId = "3C02C8EC-C43C-4762-8B99-FE4CB64E6532";
paths = (
{
closed = 1;
nodes = (
"152.71 -100 LINE",
"661.71 -100 LINE",
"672.29 -40 LINE",
"163.29 -40 LINE"
);
}
);
width = 813;
},
{
layerId = "AD4288EF-621A-4539-AF14-1A70F42B46A9";
paths = (
{
closed = 1;
nodes = (
"70.541 -205 LINE",
"690.541 -205 LINE",
"719.459 -41 LINE",
"99.459 -41 LINE"
);
}
);
width = 780;
}
);
unicode = 005F;
userData = {
public.markColor = "0.97,1,0,1";
};
},
{
color = 4;
glyphname = grave;
lastChange = "2017-08-08 23:18:27 +0000";
layers = (
{
anchors = (
{
name = _top;
position = "{123, 546}";
}
);
layerId = "C0ED9D5D-A651-429A-8F5D-D93A2EDA2DC0";
paths = (
{
closed = 1;
nodes = (
"10 700 LINE",
"215 585 LINE",
"215 642 LINE",
"10 770 LINE"
);
}
);
width = 225;
},
{
anchors = (
{
name = _top;
position = "{135, 558}";
}
);
layerId = "22D14058-393A-410A-BECB-F56B411A01B2";
paths = (
{
closed = 1;
nodes = (
"10 697 LINE",
"251 596 LINE",
"251 714 LINE",
"10 830 LINE"
);
}
);
width = 291;
},
{
anchors = (
{
name = _top;
position = "{159.813, 546}";
}
);
layerId = "3C02C8EC-C43C-4762-8B99-FE4CB64E6532";
paths = (
{
closed = 1;
nodes = (
"73.967 700 LINE",
"258.69 585 LINE",
"268.74 642 LINE",
"86.31 770 LINE"
);
}
);
width = 225;
},
{
anchors = (
{
name = _top;
position = "{177.669, 558}";
}
);
layerId = "AD4288EF-621A-4539-AF14-1A70F42B46A9";
paths = (
{
closed = 1;
nodes = (
"77.179 697 LINE",
"300.37 596 LINE",
"321.176 714 LINE",
"100.63 830 LINE"
);
}
);
width = 291;
}
);
unicode = 0060;
userData = {
public.markColor = "0.67,0.95,0.38,1";
};
},
{
color = 4;
glyphname = a;
lastChange = "2017-08-08 23:18:27 +0000";
layers = (
{
anchors = (
{
name = ogonek;
position = "{587, 0}";
},
{
name = top;
position = "{331, 546}";
}
);
layerId = "C0ED9D5D-A651-429A-8F5D-D93A2EDA2DC0";
paths = (
{
closed = 1;
nodes = (
"40 278 CURVE SMOOTH",
"40 108 OFFCURVE",
"154 -10 OFFCURVE",
"304 -10 CURVE SMOOTH",
"408 -10 OFFCURVE",
"483 49 OFFCURVE",
"517 120 CURVE",
"517 0 LINE",
"587 0 LINE",
"587 546 LINE",
"517 546 LINE",
"517 427 LINE",
"483 498 OFFCURVE",
"408 556 OFFCURVE",
"304 556 CURVE SMOOTH",
"154 556 OFFCURVE",
"40 448 OFFCURVE"
);
},
{
closed = 1;
nodes = (
"517 273 CURVE SMOOTH",
"517 135 OFFCURVE",
"422 50 OFFCURVE",
"314 50 CURVE SMOOTH",
"207 50 OFFCURVE",
"112 140 OFFCURVE",
"112 278 CURVE SMOOTH",
"112 416 OFFCURVE",
"207 496 OFFCURVE",
"314 496 CURVE SMOOTH",
"422 496 OFFCURVE",
"517 411 OFFCURVE"
);
}
);
width = 662;
},
{
anchors = (
{
name = ogonek;
position = "{623, 0}";
},
{
name = top;
position = "{349, 558}";
}
);
layerId = "22D14058-393A-410A-BECB-F56B411A01B2";
paths = (
{
closed = 1;
nodes = (
"34 278 CURVE SMOOTH",
"34 108 OFFCURVE",
"149 -7 OFFCURVE",
"288 -7 CURVE SMOOTH",
"361 -7 OFFCURVE",
"414 27 OFFCURVE",
"452 81 CURVE",
"452 0 LINE",
"623 0 LINE",
"623 558 LINE",
"452 558 LINE",
"452 485 LINE",
"416 535 OFFCURVE",
"361 564 OFFCURVE",
"288 564 CURVE SMOOTH",
"149 564 OFFCURVE",
"34 448 OFFCURVE"
);
},
{
closed = 1;
nodes = (
"452 279 CURVE SMOOTH",
"452 185 OFFCURVE",
"388 141 OFFCURVE",
"330 141 CURVE SMOOTH",
"272 141 OFFCURVE",
"208 184 OFFCURVE",
"208 278 CURVE SMOOTH",
"208 372 OFFCURVE",
"272 416 OFFCURVE",
"330 416 CURVE SMOOTH",
"388 416 OFFCURVE",
"452 373 OFFCURVE"
);
}
);
width = 698;
},
{
anchors = (
{
name = ogonek;
position = "{538, 0}";
},
{
name = top;
position = "{379, 546}";
}
);
layerId = "3C02C8EC-C43C-4762-8B99-FE4CB64E6532";
paths = (
{
closed = 1;
nodes = (
"40 278 CURVE SMOOTH",
"11 98 OFFCURVE",
"103 -10 OFFCURVE",
"253 -10 CURVE SMOOTH",
"357 -10 OFFCURVE",
"443 49 OFFCURVE",
"489 120 CURVE",
"468 0 LINE",
"538 0 LINE",
"635 546 LINE",
"565 546 LINE",
"544 427 LINE",
"522 498 OFFCURVE",
"451 556 OFFCURVE",
"347 556 CURVE SMOOTH",
"197 556 OFFCURVE",
"69 458 OFFCURVE"
);
},
{
closed = 1;
nodes = (
"516 273 CURVE SMOOTH",
"492 135 OFFCURVE",
"382 50 OFFCURVE",
"274 50 CURVE SMOOTH",
"167 50 OFFCURVE",
"89 130 OFFCURVE",
"112 278 CURVE SMOOTH",
"135 426 OFFCURVE",
"239 496 OFFCURVE",
"346 496 CURVE SMOOTH",
"454 496 OFFCURVE",
"541 411 OFFCURVE"
);
}
);
width = 661;
},
{
anchors = (
{
name = ogonek;
position = "{573, 0}";
},
{
name = top;
position = "{398, 558}";
}
);
layerId = "AD4288EF-621A-4539-AF14-1A70F42B46A9";
paths = (
{
closed = 1;
nodes = (
"39 314 CURVE SMOOTH",
"-3 112 OFFCURVE",
"108 -7 OFFCURVE",
"242 -7 CURVE SMOOTH",
"325 -7 OFFCURVE",
"377 27 OFFCURVE",
"416 81 CURVE",
"402 0 LINE",
"573 0 LINE",
"672 558 LINE",
"501 558 LINE",
"487 485 LINE",
"459 528 OFFCURVE",
"403 564 OFFCURVE",
"313 564 CURVE",
"168 564 OFFCURVE",
"70 462 OFFCURVE"
);
},
{
closed = 1;
nodes = (
"449 267 CURVE SMOOTH",
"433 182 OFFCURVE",
"385 141 OFFCURVE",
"319 141 CURVE",
"251 141 OFFCURVE",
"189 187 OFFCURVE",
"213 303 CURVE SMOOTH",
"228 375 OFFCURVE",
"276 416 OFFCURVE",
"341 416 CURVE SMOOTH",
"414 416 OFFCURVE",
"467 362 OFFCURVE"
);
}
);
width = 675;
}
);
unicode = 0061;
userData = {
public.markColor = "0.67,0.95,0.38,1";
};
},
{
color = 4;
glyphname = b;
lastChange = "2017-08-08 23:18:27 +0000";
layers = (
{
layerId = "C0ED9D5D-A651-429A-8F5D-D93A2EDA2DC0";
paths = (
{
closed = 1;
nodes = (
"145 427 CURVE",
"145 740 LINE",
"75 740 LINE",
"75 0 LINE",
"145 0 LINE",
"145 120 LINE",
"179 49 OFFCURVE",
"254 -10 OFFCURVE",
"358 -10 CURVE SMOOTH",
"508 -10 OFFCURVE",
"622 108 OFFCURVE",
"622 278 CURVE SMOOTH",
"622 448 OFFCURVE",
"508 556 OFFCURVE",
"358 556 CURVE SMOOTH",
"254 556 OFFCURVE",
"179 498 OFFCURVE"
);
},
{
closed = 1;
nodes = (
"550 278 CURVE SMOOTH",
"550 140 OFFCURVE",
"455 50 OFFCURVE",
"347 50 CURVE SMOOTH",
"240 50 OFFCURVE",
"145 135 OFFCURVE",
"145 273 CURVE SMOOTH",
"145 411 OFFCURVE",
"240 496 OFFCURVE",
"347 496 CURVE SMOOTH",
"455 496 OFFCURVE",
"550 416 OFFCURVE"
);
}
);
width = 662;
},
{
layerId = "22D14058-393A-410A-BECB-F56B411A01B2";
paths = (
{
closed = 1;
nodes = (
"246 485 CURVE",
"246 740 LINE",
"75 740 LINE",
"75 0 LINE",
"246 0 LINE",
"246 81 LINE",
"283 27 OFFCURVE",
"336 -7 OFFCURVE",
"410 -7 CURVE SMOOTH",
"549 -7 OFFCURVE",
"664 108 OFFCURVE",
"664 278 CURVE SMOOTH",
"664 448 OFFCURVE",
"549 564 OFFCURVE",
"410 564 CURVE SMOOTH",
"336 564 OFFCURVE",
"282 535 OFFCURVE"
);
},
{
closed = 1;
nodes = (
"490 278 CURVE SMOOTH",
"490 184 OFFCURVE",
"426 141 OFFCURVE",
"368 141 CURVE SMOOTH",
"310 141 OFFCURVE",
"246 185 OFFCURVE",
"246 279 CURVE SMOOTH",
"246 373 OFFCURVE",
"310 416 OFFCURVE",
"368 416 CURVE SMOOTH",
"426 416 OFFCURVE",
"490 372 OFFCURVE"
);
}
);
width = 698;
},
{
layerId = "3C02C8EC-C43C-4762-8B99-FE4CB64E6532";
paths = (
{
closed = 1;
nodes = (
"117 120 LINE",
"139 49 OFFCURVE",
"208 -10 OFFCURVE",
"317 -10 CURVE SMOOTH",
"482 -10 OFFCURVE",
"593 104 OFFCURVE",
"622 268 CURVE SMOOTH",
"653 444 OFFCURVE",
"557 556 OFFCURVE",
"407 556 CURVE SMOOTH",
"293 556 OFFCURVE",
"218 498 OFFCURVE",
"171 427 CURVE",
"226 740 LINE",
"156 740 LINE",
"26 0 LINE",
"96 0 LINE"
);
},
{
closed = 1;
nodes = (
"144 273 CURVE SMOOTH",
"168 411 OFFCURVE",
"278 496 OFFCURVE",
"385 496 CURVE SMOOTH",
"493 496 OFFCURVE",
"575 412 OFFCURVE",
"550 268 CURVE SMOOTH",
"526 136 OFFCURVE",
"440 50 OFFCURVE",
"316 50 CURVE SMOOTH",
"202 50 OFFCURVE",
"120 135 OFFCURVE"
);
}
);
width = 663;
},
{
layerId = "AD4288EF-621A-4539-AF14-1A70F42B46A9";
paths = (
{
closed = 1;
nodes = (
"211 81 LINE",
"241 35 OFFCURVE",
"294 -7 OFFCURVE",
"383 -7 CURVE",
"528 -7 OFFCURVE",
"626 99 OFFCURVE",
"657 247 CURVE SMOOTH",
"699 449 OFFCURVE",
"594 564 OFFCURVE",
"460 564 CURVE SMOOTH",
"378 564 OFFCURVE",
"318 535 OFFCURVE",
"282 485 CURVE",
"326 740 LINE",
"155 740 LINE",
"25 0 LINE",
"196 0 LINE"
);
},
{
closed = 1;
nodes = (
"247 290 CURVE SMOOTH",
"263 375 OFFCURVE",
"311 416 OFFCURVE",
"377 416 CURVE",
"445 416 OFFCURVE",
"507 370 OFFCURVE",
"483 254 CURVE SMOOTH",
"468 182 OFFCURVE",
"421 141 OFFCURVE",
"354 141 CURVE SMOOTH",
"281 141 OFFCURVE",
"229 195 OFFCURVE"
);
}
);
width = 696;
}
);
unicode = 0062;
userData = {
public.markColor = "0.67,0.95,0.38,1";
};
},
{
color = 4;
glyphname = c;
lastChange = "2017-08-08 23:18:27 +0000";
layers = (
{
anchors = (
{
name = bottom;
position = "{300, 0}";
},
{
name = top;
position = "{300, 546}";
}
);
layerId = "C0ED9D5D-A651-429A-8F5D-D93A2EDA2DC0";
paths = (
{
closed = 1;
nodes = (
"40 273 CURVE SMOOTH",
"40 103 OFFCURVE",
"148 -10 OFFCURVE",
"303 -10 CURVE SMOOTH",
"438 -10 OFFCURVE",
"515 64 OFFCURVE",
"547 162 CURVE",
"472 162 LINE",
"450 89 OFFCURVE",
"391 46 OFFCURVE",
"303 46 CURVE SMOOTH",
"194 46 OFFCURVE",
"112 122 OFFCURVE",
"112 273 CURVE SMOOTH",
"112 425 OFFCURVE",
"194 500 OFFCURVE",
"303 500 CURVE SMOOTH",
"391 500 OFFCURVE",
"450 456 OFFCURVE",
"472 384 CURVE",
"547 384 LINE",
"515 490 OFFCURVE",
"438 556 OFFCURVE",
"303 556 CURVE SMOOTH",
"148 556 OFFCURVE",
"40 443 OFFCURVE"
);
}
);
width = 600;
},
{
anchors = (
{
name = bottom;
position = "{300, 0}";
},
{
name = top;
position = "{300, 558}";
}
);
layerId = "22D14058-393A-410A-BECB-F56B411A01B2";
paths = (
{
closed = 1;
nodes = (
"34 279 CURVE",
"34 103 OFFCURVE",
"151 -7 OFFCURVE",
"312 -7 CURVE SMOOTH",
"446 -7 OFFCURVE",
"548 69 OFFCURVE",
"579 189 CURVE",
"394 189 LINE",
"375 152 OFFCURVE",
"355 139 OFFCURVE",
"312 139 CURVE SMOOTH",
"242 139 OFFCURVE",
"208 198 OFFCURVE",
"208 279 CURVE SMOOTH",
"208 359 OFFCURVE",
"242 419 OFFCURVE",
"312 419 CURVE SMOOTH",
"355 419 OFFCURVE",
"380 398 OFFCURVE",
"394 369 CURVE",
"579 369 LINE",
"548 496 OFFCURVE",
"446 564 OFFCURVE",
"312 564 CURVE SMOOTH",
"151 564 OFFCURVE",
"34 455 OFFCURVE"
);
}
);
width = 600;
},
{
anchors = (
{
name = bottom;
position = "{253, 0}";
},
{
name = top;
position = "{349, 546}";
}
);
layerId = "3C02C8EC-C43C-4762-8B99-FE4CB64E6532";
paths = (
{
closed = 1;
nodes = (
"41 273 CURVE SMOOTH",
"11 103 OFFCURVE",
"99 -10 OFFCURVE",
"254 -10 CURVE SMOOTH",
"389 -10 OFFCURVE",
"479 64 OFFCURVE",
"528 162 CURVE",
"453 162 LINE",
"418 89 OFFCURVE",
"352 46 OFFCURVE",
"264 46 CURVE SMOOTH",
"155 46 OFFCURVE",
"86 122 OFFCURVE",
"113 273 CURVE SMOOTH",
"140 425 OFFCURVE",
"235 500 OFFCURVE",
"344 500 CURVE SMOOTH",
"422 500 OFFCURVE",
"483 456 OFFCURVE",
"492 384 CURVE",
"567 384 LINE",
"554 490 OFFCURVE",
"472 556 OFFCURVE",
"354 556 CURVE SMOOTH",
"199 556 OFFCURVE",
"71 443 OFFCURVE"
);
}
);
width = 602;
},
{
anchors = (
{
name = bottom;
position = "{252, 0}";
},
{
name = top;
position = "{351, 558}";
}
);
layerId = "AD4288EF-621A-4539-AF14-1A70F42B46A9";
paths = (
{
closed = 1;
nodes = (
"36 279 CURVE",
"5 103 OFFCURVE",
"106 -7 OFFCURVE",
"274 -7 CURVE SMOOTH",
"403 -7 OFFCURVE",
"523 69 OFFCURVE",
"565 189 CURVE",
"380 189 LINE",
"354 152 OFFCURVE",
"332 139 OFFCURVE",
"289 139 CURVE SMOOTH",
"219 139 OFFCURVE",
"195 198 OFFCURVE",
"210 279 CURVE SMOOTH",
"224 359 OFFCURVE",
"268 419 OFFCURVE",
"338 419 CURVE SMOOTH",
"381 419 OFFCURVE",
"403 398 OFFCURVE",
"412 369 CURVE",
"597 369 LINE",
"588 496 OFFCURVE",
"493 564 OFFCURVE",
"354 564 CURVE SMOOTH",
"188 564 OFFCURVE",
"67 455 OFFCURVE"
);
}
);
width = 617;
}
);
unicode = 0063;
userData = {
public.markColor = "0.67,0.95,0.38,1";
};
},
{
color = 4;
glyphname = d;
lastChange = "2017-08-08 23:18:27 +0000";
layers = (
{
anchors = (
{
name = topright;
position = "{587, 740}";
}
);
layerId = "C0ED9D5D-A651-429A-8F5D-D93A2EDA2DC0";
paths = (
{
closed = 1;
nodes = (
"40 278 CURVE SMOOTH",
"40 108 OFFCURVE",
"154 -10 OFFCURVE",
"304 -10 CURVE SMOOTH",
"408 -10 OFFCURVE",
"483 49 OFFCURVE",
"517 120 CURVE",
"517 0 LINE",
"587 0 LINE",
"587 740 LINE",
"517 740 LINE",
"517 427 LINE",
"483 498 OFFCURVE",
"408 556 OFFCURVE",
"304 556 CURVE SMOOTH",
"154 556 OFFCURVE",
"40 448 OFFCURVE"
);
},
{
closed = 1;
nodes = (
"517 273 CURVE SMOOTH",
"517 135 OFFCURVE",
"422 50 OFFCURVE",
"314 50 CURVE SMOOTH",
"207 50 OFFCURVE",
"112 140 OFFCURVE",
"112 278 CURVE SMOOTH",
"112 416 OFFCURVE",
"207 496 OFFCURVE",
"314 496 CURVE SMOOTH",
"422 496 OFFCURVE",
"517 411 OFFCURVE"
);
}
);
width = 662;
},
{
anchors = (
{
name = topright;
position = "{623, 740}";
}
);
layerId = "22D14058-393A-410A-BECB-F56B411A01B2";
paths = (
{
closed = 1;
nodes = (
"34 278 CURVE SMOOTH",
"34 108 OFFCURVE",
"149 -7 OFFCURVE",
"288 -7 CURVE SMOOTH",
"361 -7 OFFCURVE",
"414 27 OFFCURVE",
"452 81 CURVE",
"452 0 LINE",
"623 0 LINE",
"623 740 LINE",
"452 740 LINE",
"452 485 LINE",
"416 535 OFFCURVE",
"361 564 OFFCURVE",
"288 564 CURVE SMOOTH",
"149 564 OFFCURVE",
"34 448 OFFCURVE"
);
},
{
closed = 1;
nodes = (
"452 279 CURVE SMOOTH",
"452 185 OFFCURVE",
"388 141 OFFCURVE",
"330 141 CURVE SMOOTH",
"272 141 OFFCURVE",
"208 184 OFFCURVE",
"208 278 CURVE SMOOTH",
"208 372 OFFCURVE",
"272 416 OFFCURVE",
"330 416 CURVE SMOOTH",
"388 416 OFFCURVE",
"452 373 OFFCURVE"
);
}
);
width = 698;
},
{
anchors = (
{
name = topright;
position = "{669, 740}";
}
);
layerId = "3C02C8EC-C43C-4762-8B99-FE4CB64E6532";
paths = (
{
closed = 1;
nodes = (
"544 427 LINE",
"522 498 OFFCURVE",
"453 556 OFFCURVE",
"344 556 CURVE SMOOTH",
"199 556 OFFCURVE",
"71 448 OFFCURVE",
"41 278 CURVE SMOOTH",
"11 108 OFFCURVE",
"104 -10 OFFCURVE",
"254 -10 CURVE SMOOTH",
"358 -10 OFFCURVE",
"443 49 OFFCURVE",
"490 120 CURVE",
"469 0 LINE",
"539 0 LINE",
"669 740 LINE",
"599 740 LINE"
);
},
{
closed = 1;
nodes = (
"517 273 CURVE SMOOTH",
"492 135 OFFCURVE",
"382 50 OFFCURVE",
"274 50 CURVE SMOOTH",
"167 50 OFFCURVE",
"88 140 OFFCURVE",
"113 278 CURVE SMOOTH",
"137 416 OFFCURVE",
"240 496 OFFCURVE",
"343 496 CURVE SMOOTH",
"458 496 OFFCURVE",
"541 411 OFFCURVE"
);
}
);
width = 678;
},
{
anchors = (
{
name = topright;
position = "{703, 740}";
}
);
layerId = "AD4288EF-621A-4539-AF14-1A70F42B46A9";
paths = (
{
closed = 1;
nodes = (
"487 485 LINE",
"459 528 OFFCURVE",
"403 564 OFFCURVE",
"313 564 CURVE",
"168 564 OFFCURVE",
"70 458 OFFCURVE",
"39 310 CURVE SMOOTH",
"-3 108 OFFCURVE",
"102 -7 OFFCURVE",
"236 -7 CURVE SMOOTH",
"319 -7 OFFCURVE",
"377 27 OFFCURVE",
"416 81 CURVE",
"402 0 LINE",
"573 0 LINE",
"703 740 LINE",
"532 740 LINE"
);
},
{
closed = 1;
nodes = (
"449 267 CURVE SMOOTH",
"433 182 OFFCURVE",
"385 141 OFFCURVE",
"319 141 CURVE",
"251 141 OFFCURVE",
"189 187 OFFCURVE",
"213 303 CURVE SMOOTH",
"228 375 OFFCURVE",
"275 416 OFFCURVE",
"342 416 CURVE SMOOTH",
"415 416 OFFCURVE",
"467 362 OFFCURVE"
);
}
);
width = 673;
}
);
unicode = 0064;
userData = {
public.markColor = "0.67,0.95,0.38,1";
};
},
{
color = 4;
glyphname = e;
lastChange = "2017-08-08 23:18:27 +0000";
layers = (
{
anchors = (
{
name = bottom;
position = "{303, 0}";
},
{
name = ogonek;
position = "{453, 56}";
},
{
name = top;
position = "{303, 546}";
}
);
layerId = "C0ED9D5D-A651-429A-8F5D-D93A2EDA2DC0";
paths = (
{
closed = 1;
nodes = (
"89 248 LINE",
"562 248 LINE",
"565 267 OFFCURVE",
"566 285 OFFCURVE",
"566 302 CURVE SMOOTH",
"566 443 OFFCURVE",
"467 556 OFFCURVE",
"312 556 CURVE SMOOTH",
"148 556 OFFCURVE",
"40 444 OFFCURVE",
"40 273 CURVE SMOOTH",
"40 103 OFFCURVE",
"148 -10 OFFCURVE",
"303 -10 CURVE SMOOTH",
"438 -10 OFFCURVE",
"515 67 OFFCURVE",
"547 151 CURVE",
"472 151 LINE",
"450 92 OFFCURVE",
"391 46 OFFCURVE",
"303 46 CURVE SMOOTH",
"195 46 OFFCURVE",
"112 123 OFFCURVE",
"112 259 CURVE SMOOTH",
"112 285 LINE SMOOTH",
"112 422 OFFCURVE",
"195 500 OFFCURVE",
"303 500 CURVE SMOOTH",
"410 500 OFFCURVE",
"494 426 OFFCURVE",
"494 303 CURVE",
"89 303 LINE"
);
}
);
width = 605;
},
{
anchors = (
{
name = bottom;
position = "{316, 0}";
},
{
name = ogonek;
position = "{509, 78}";
},
{
name = top;
position = "{316, 558}";
}
);
layerId = "22D14058-393A-410A-BECB-F56B411A01B2";
paths = (
{
closed = 1;
nodes = (
"194 223 LINE",
"593 223 LINE",
"596 242 OFFCURVE",
"597 260 OFFCURVE",
"597 277 CURVE SMOOTH",
"597 462 OFFCURVE",
"471 564 OFFCURVE",
"311 564 CURVE SMOOTH",
"151 564 OFFCURVE",
"34 456 OFFCURVE",
"34 280 CURVE SMOOTH",
"34 104 OFFCURVE",
"151 -7 OFFCURVE",
"312 -7 CURVE SMOOTH",
"446 -7 OFFCURVE",
"548 70 OFFCURVE",
"579 180 CURVE",
"394 180 LINE",
"375 157 OFFCURVE",
"360 139 OFFCURVE",
"312 139 CURVE SMOOTH",
"247 139 OFFCURVE",
"208 184 OFFCURVE",
"208 240 CURVE SMOOTH",
"208 308 LINE SMOOTH",
"208 372 OFFCURVE",
"253 418 OFFCURVE",
"311 418 CURVE SMOOTH",
"369 418 OFFCURVE",
"414 383 OFFCURVE",
"419 330 CURVE",
"196 330 LINE"
);
}
);
width = 632;
},
{
anchors = (
{
name = bottom;
position = "{256, 0}";
},
{
name = ogonek;
position = "{416, 56}";
},
{
name = top;
position = "{352, 546}";
}
);
layerId = "3C02C8EC-C43C-4762-8B99-FE4CB64E6532";
paths = (
{
closed = 1;
nodes = (
"86 248 LINE",
"559 248 LINE",
"565 267 OFFCURVE",
"569 285 OFFCURVE",
"572 302 CURVE SMOOTH",
"597 443 OFFCURVE",
"518 556 OFFCURVE",
"363 556 CURVE SMOOTH",
"199 556 OFFCURVE",
"71 444 OFFCURVE",
"41 273 CURVE SMOOTH",
"11 103 OFFCURVE",
"99 -10 OFFCURVE",
"254 -10 CURVE SMOOTH",
"389 -10 OFFCURVE",
"485 67 OFFCURVE",
"526 151 CURVE",
"451 151 LINE",
"417 92 OFFCURVE",
"352 46 OFFCURVE",
"264 46 CURVE SMOOTH",
"156 46 OFFCURVE",
"87 123 OFFCURVE",
"111 259 CURVE SMOOTH",
"115 285 LINE SMOOTH",
"139 422 OFFCURVE",
"236 500 OFFCURVE",
"344 500 CURVE SMOOTH",
"451 500 OFFCURVE",
"522 426 OFFCURVE",
"500 303 CURVE",
"95 303 LINE"
);
}
);
width = 612;
},
{
anchors = (
{
name = bottom;
position = "{268, 0}";
},
{
name = ogonek;
position = "{475, 78}";
},
{
name = top;
position = "{367, 558}";
}
);
layerId = "AD4288EF-621A-4539-AF14-1A70F42B46A9";
paths = (
{
closed = 1;
nodes = (
"186 223 LINE",
"585 223 LINE",
"591 242 OFFCURVE",
"595 260 OFFCURVE",
"598 277 CURVE SMOOTH",
"631 462 OFFCURVE",
"523 564 OFFCURVE",
"363 564 CURVE SMOOTH",
"203 564 OFFCURVE",
"67 456 OFFCURVE",
"36 280 CURVE SMOOTH",
"5 104 OFFCURVE",
"102 -7 OFFCURVE",
"263 -7 CURVE SMOOTH",
"397 -7 OFFCURVE",
"513 70 OFFCURVE",
"563 180 CURVE",
"378 180 LINE",
"355 157 OFFCURVE",
"337 139 OFFCURVE",
"289 139 CURVE SMOOTH",
"224 139 OFFCURVE",
"193 184 OFFCURVE",
"203 240 CURVE SMOOTH",
"215 308 LINE SMOOTH",
"226 372 OFFCURVE",
"279 418 OFFCURVE",
"337 418 CURVE SMOOTH",
"395 418 OFFCURVE",
"434 383 OFFCURVE",
"430 330 CURVE",
"207 330 LINE"
);
}
);
width = 624;
}
);
unicode = 0065;
userData = {
public.markColor = "0.67,0.95,0.38,1";
};
},
{
color = 4;
glyphname = f;
lastChange = "2017-08-08 23:18:27 +0000";
layers = (
{
layerId = "C0ED9D5D-A651-429A-8F5D-D93A2EDA2DC0";
paths = (
{
closed = 1;
nodes = (
"99 0 LINE",
"169 0 LINE",
"169 599 LINE SMOOTH",
"169 675 OFFCURVE",
"198 707 OFFCURVE",
"288 707 CURVE",
"288 763 LINE",
"157 763 OFFCURVE",
"99 714 OFFCURVE",
"99 599 CURVE SMOOTH"
);
},
{
closed = 1;
nodes = (
"23 491 LINE",
"296 491 LINE",
"296 546 LINE",
"23 546 LINE"
);
}
);
width = 328;
},
{
layerId = "22D14058-393A-410A-BECB-F56B411A01B2";
paths = (
{
closed = 1;
nodes = (
"77 0 LINE",
"248 0 LINE",
"248 579 LINE SMOOTH",
"248 624 OFFCURVE",
"266 638 OFFCURVE",
"311 638 CURVE",
"311 783 LINE",
"151 783 OFFCURVE",
"77 721 OFFCURVE",
"77 579 CURVE SMOOTH"
);
},
{
closed = 1;
nodes = (
"25 416 LINE",
"319 416 LINE",
"319 558 LINE",
"25 558 LINE"
);
}
);
width = 336;
},
{
layerId = "3C02C8EC-C43C-4762-8B99-FE4CB64E6532";
paths = (
{
closed = 1;
nodes = (
"31.731 0 LINE",
"101.731 0 LINE",
"207.351 599 LINE SMOOTH",
"220.752 675 OFFCURVE",
"255.394 707 OFFCURVE",
"345.394 707 CURVE",
"355.269 763 LINE",
"224.269 763 OFFCURVE",
"157.629 714 OFFCURVE",
"137.351 599 CURVE SMOOTH"
);
},
{
closed = 1;
nodes = (
"42.308 491 LINE",
"315.308 491 LINE",
"325.006 546 LINE",
"52.006 546 LINE"
);
}
);
width = 328;
},
{
layerId = "AD4288EF-621A-4539-AF14-1A70F42B46A9";
paths = (
{
closed = 1;
nodes = (
"28 0 LINE",
"199 0 LINE",
"301 579 LINE SMOOTH",
"309 624 OFFCURVE",
"329 638 OFFCURVE",
"374 638 CURVE",
"400 783 LINE",
"240 783 OFFCURVE",
"155 721 OFFCURVE",
"130 579 CURVE SMOOTH"
);
},
{
closed = 1;
nodes = (
"29 416 LINE",
"343 416 LINE",
"368 558 LINE",
"54 558 LINE"
);
}
);
width = 346;
}
);
unicode = 0066;
userData = {
public.markColor = "0.67,0.95,0.38,1";
};
},
{
color = 4;
glyphname = g;
lastChange = "2017-08-08 23:18:27 +0000";
layers = (
{
anchors = (
{
name = top;
position = "{331, 546}";
}
);
layerId = "C0ED9D5D-A651-429A-8F5D-D93A2EDA2DC0";
paths = (
{
closed = 1;
nodes = (
"517 273 CURVE SMOOTH",
"517 135 OFFCURVE",
"422 50 OFFCURVE",
"314 50 CURVE SMOOTH",
"207 50 OFFCURVE",
"112 140 OFFCURVE",
"112 278 CURVE SMOOTH",
"112 416 OFFCURVE",
"207 496 OFFCURVE",
"314 496 CURVE SMOOTH",
"422 496 OFFCURVE",
"517 411 OFFCURVE"
);
},
{
closed = 1;
nodes = (
"40 278 CURVE SMOOTH",
"40 108 OFFCURVE",
"154 -10 OFFCURVE",
"304 -10 CURVE SMOOTH",
"408 -10 OFFCURVE",
"483 49 OFFCURVE",
"517 120 CURVE",
"517 -19 LINE SMOOTH",
"517 -138 OFFCURVE",
"440 -208 OFFCURVE",
"327 -208 CURVE SMOOTH",
"234 -208 OFFCURVE",
"157 -153 OFFCURVE",
"140 -87 CURVE",
"71 -87 LINE",
"85 -189 OFFCURVE",
"195 -268 OFFCURVE",
"327 -268 CURVE SMOOTH",
"475 -268 OFFCURVE",
"587 -169 OFFCURVE",
"587 -19 CURVE SMOOTH",
"587 546 LINE",
"517 546 LINE",
"517 427 LINE",
"483 498 OFFCURVE",
"408 556 OFFCURVE",
"304 556 CURVE SMOOTH",
"154 556 OFFCURVE",
"40 448 OFFCURVE"
);
}
);
width = 662;
},
{
anchors = (
{
name = top;
position = "{349, 558}";
}
);
layerId = "22D14058-393A-410A-BECB-F56B411A01B2";
paths = (
{
closed = 1;
nodes = (
"452 279 CURVE SMOOTH",
"452 185 OFFCURVE",
"388 141 OFFCURVE",
"330 141 CURVE SMOOTH",
"272 141 OFFCURVE",
"208 184 OFFCURVE",
"208 278 CURVE SMOOTH",
"208 372 OFFCURVE",
"272 416 OFFCURVE",
"330 416 CURVE SMOOTH",
"388 416 OFFCURVE",
"452 373 OFFCURVE"
);
},
{
closed = 1;
nodes = (
"34 278 CURVE SMOOTH",
"34 108 OFFCURVE",
"149 -7 OFFCURVE",
"288 -7 CURVE SMOOTH",
"361 -7 OFFCURVE",
"414 27 OFFCURVE",
"452 81 CURVE",
"452 3 LINE SMOOTH",
"452 -94 OFFCURVE",
"400 -128 OFFCURVE",
"343 -128 CURVE SMOOTH",
"282 -128 OFFCURVE",
"240 -109 OFFCURVE",
"223 -65 CURVE",
"55 -65 LINE",
"69 -211 OFFCURVE",
"177 -276 OFFCURVE",
"343 -276 CURVE SMOOTH",
"545 -276 OFFCURVE",
"623 -147 OFFCURVE",
"623 3 CURVE SMOOTH",
"623 558 LINE",
"452 558 LINE",
"452 485 LINE",
"416 535 OFFCURVE",
"361 564 OFFCURVE",
"288 564 CURVE SMOOTH",
"149 564 OFFCURVE",
"34 448 OFFCURVE"
);
}
);
width = 698;
},
{
anchors = (
{
name = top;
position = "{402, 546}";
}
);
layerId = "3C02C8EC-C43C-4762-8B99-FE4CB64E6532";
paths = (
{
closed = 1;
nodes = (
"490 120 CURVE",
"465 -19 LINE SMOOTH",
"444 -138 OFFCURVE",
"355 -208 OFFCURVE",
"243 -208 CURVE SMOOTH",
"149 -208 OFFCURVE",
"81 -153 OFFCURVE",
"76 -87 CURVE",
"7 -87 LINE",
"13 -189 OFFCURVE",
"103 -268 OFFCURVE",
"241 -268 CURVE SMOOTH",
"394 -268 OFFCURVE",
"509 -169 OFFCURVE",
"535 -19 CURVE SMOOTH",
"635 546 LINE",
"565 546 LINE",
"544 427 LINE",
"522 498 OFFCURVE",
"453 556 OFFCURVE",
"344 556 CURVE SMOOTH",
"199 556 OFFCURVE",
"71 448 OFFCURVE",
"41 278 CURVE SMOOTH",
"11 108 OFFCURVE",
"104 -10 OFFCURVE",
"254 -10 CURVE SMOOTH",
"368 -10 OFFCURVE",
"443 49 OFFCURVE"
);
},
{
closed = 1;
nodes = (
"517 273 CURVE SMOOTH",
"492 135 OFFCURVE",
"382 50 OFFCURVE",
"274 50 CURVE SMOOTH",
"167 50 OFFCURVE",
"88 140 OFFCURVE",
"113 278 CURVE SMOOTH",
"137 416 OFFCURVE",
"240 496 OFFCURVE",
"343 496 CURVE SMOOTH",
"458 496 OFFCURVE",
"541 411 OFFCURVE"
);
}
);
width = 662;
},
{
anchors = (
{
name = top;
position = "{421.999, 558}";
}
);
layerId = "AD4288EF-621A-4539-AF14-1A70F42B46A9";
paths = (
{
closed = 1;
nodes = (
"416 81 CURVE",
"402 3 LINE SMOOTH",
"385 -94 OFFCURVE",
"315 -128 OFFCURVE",
"250 -128 CURVE SMOOTH",
"201 -128 OFFCURVE",
"160 -109 OFFCURVE",
"161 -65 CURVE",
"-7 -65 LINE",
"-9 -191 OFFCURVE",
"92 -276 OFFCURVE",
"254 -276 CURVE SMOOTH",
"450 -276 OFFCURVE",
"547 -147 OFFCURVE",
"573 3 CURVE SMOOTH",
"671 558 LINE",
"500 558 LINE",
"487 485 LINE",
"459 528 OFFCURVE",
"403 564 OFFCURVE",
"313 564 CURVE",
"168 564 OFFCURVE",
"70 458 OFFCURVE",
"39 310 CURVE SMOOTH",
"-3 108 OFFCURVE",
"102 -7 OFFCURVE",
"236 -7 CURVE SMOOTH",
"319 -7 OFFCURVE",
"377 27 OFFCURVE"
);
},
{
closed = 1;
nodes = (
"449 267 CURVE SMOOTH",
"433 182 OFFCURVE",
"385 141 OFFCURVE",
"319 141 CURVE",
"251 141 OFFCURVE",
"189 187 OFFCURVE",
"213 303 CURVE SMOOTH",
"228 375 OFFCURVE",
"275 416 OFFCURVE",
"342 416 CURVE SMOOTH",
"415 416 OFFCURVE",
"467 362 OFFCURVE"
);
}
);
width = 674;
}
);
unicode = 0067;
userData = {
public.markColor = "0.67,0.95,0.38,1";
};
},
{
color = 4;
glyphname = h;
lastChange = "2017-08-08 23:18:27 +0000";
layers = (
{
layerId = "C0ED9D5D-A651-429A-8F5D-D93A2EDA2DC0";
paths = (
{
closed = 1;
nodes = (
"75 0 LINE",
"145 0 LINE",
"145 740 LINE",
"75 740 LINE"
);
},
{
closed = 1;
nodes = (
"470 0 LINE",
"539 0 LINE",
"539 325 LINE SMOOTH",
"539 482 OFFCURVE",
"439 556 OFFCURVE",
"326 556 CURVE SMOOTH",
"225 556 OFFCURVE",
"137 499 OFFCURVE",
"117 374 CURVE",
"145 312 LINE",
"145 435 OFFCURVE",
"210 496 OFFCURVE",
"308 496 CURVE SMOOTH",
"406 496 OFFCURVE",
"470 435 OFFCURVE",
"470 312 CURVE SMOOTH"
);
}
);
width = 609;
},
{
layerId = "22D14058-393A-410A-BECB-F56B411A01B2";
paths = (
{
closed = 1;
nodes = (
"75 0 LINE",
"246 0 LINE",
"246 740 LINE",
"75 740 LINE"
);
},
{
closed = 1;
nodes = (
"460 0 LINE",
"630 0 LINE",
"630 326 LINE SMOOTH",
"630 476 OFFCURVE",
"540 564 OFFCURVE",
"415 564 CURVE SMOOTH",
"318 564 OFFCURVE",
"250 510 OFFCURVE",
"227 432 CURVE",
"246 303 LINE",
"246 376 OFFCURVE",
"288 416 OFFCURVE",
"353 416 CURVE SMOOTH",
"418 416 OFFCURVE",
"460 376 OFFCURVE",
"460 303 CURVE SMOOTH"
);
}
);
width = 700;
},
{
layerId = "3C02C8EC-C43C-4762-8B99-FE4CB64E6532";
paths = (
{
closed = 1;
nodes = (
"26 0 LINE",
"96 0 LINE",
"226 740 LINE",
"156 740 LINE"
);
},
{
closed = 1;
nodes = (
"421 0 LINE",
"490 0 LINE",
"547 325 LINE SMOOTH",
"575 482 OFFCURVE",
"488 556 OFFCURVE",
"375 556 CURVE SMOOTH",
"274 556 OFFCURVE",
"176 499 OFFCURVE",
"134 374 CURVE",
"151 312 LINE",
"172 435 OFFCURVE",
"248 496 OFFCURVE",
"346 496 CURVE SMOOTH",
"444 496 OFFCURVE",
"497 435 OFFCURVE",
"476 312 CURVE SMOOTH"
);
}
);
width = 612;
},
{
layerId = "AD4288EF-621A-4539-AF14-1A70F42B46A9";
paths = (
{
closed = 1;
nodes = (
"25 0 LINE",
"196 0 LINE",
"326 740 LINE",
"155 740 LINE"
);
},
{
closed = 1;
nodes = (
"410 0 LINE",
"580 0 LINE",
"637 326 LINE SMOOTH",
"664 476 OFFCURVE",
"589 564 OFFCURVE",
"464 564 CURVE SMOOTH",
"367 564 OFFCURVE",
"290 510 OFFCURVE",
"253 432 CURVE",
"249 303 LINE",
"262 376 OFFCURVE",
"311 416 OFFCURVE",
"376 416 CURVE SMOOTH",
"441 416 OFFCURVE",
"476 376 OFFCURVE",
"463 303 CURVE SMOOTH"
);
}
);
width = 681;
}
);
unicode = 0068;
userData = {
public.markColor = "0.67,0.95,0.38,1";
};
},
{
color = 4;
glyphname = i;
lastChange = "2017-08-08 23:18:27 +0000";
layers = (
{
anchors = (
{
name = ogonek;
position = "{145, 1}";
}
);
layerId = "C0ED9D5D-A651-429A-8F5D-D93A2EDA2DC0";
paths = (
{
closed = 1;
nodes = (
"75 0 LINE",
"145 0 LINE",
"145 546 LINE",
"75 546 LINE"
);
},
{
closed = 1;
nodes = (
"111 649 CURVE SMOOTH",
"140 649 OFFCURVE",
"162 672 OFFCURVE",
"162 701 CURVE SMOOTH",
"162 729 OFFCURVE",
"140 752 OFFCURVE",
"111 752 CURVE SMOOTH",
"83 752 OFFCURVE",
"60 729 OFFCURVE",
"60 701 CURVE SMOOTH",
"60 672 OFFCURVE",
"83 649 OFFCURVE"
);
}
);
width = 220;
},
{
anchors = (
{
name = ogonek;
position = "{246, 0}";
}
);
layerId = "22D14058-393A-410A-BECB-F56B411A01B2";
paths = (
{
closed = 1;
nodes = (
"75 0 LINE",
"246 0 LINE",
"246 558 LINE",
"75 558 LINE"
);
},
{
closed = 1;
nodes = (
"160 592 CURVE SMOOTH",
"216 592 OFFCURVE",
"260 636 OFFCURVE",
"260 692 CURVE SMOOTH",
"260 749 OFFCURVE",
"216 793 OFFCURVE",
"160 793 CURVE SMOOTH",
"104 793 OFFCURVE",
"60 749 OFFCURVE",
"60 692 CURVE SMOOTH",
"60 636 OFFCURVE",
"104 592 OFFCURVE"
);
}
);
width = 321;
},
{
anchors = (
{
name = ogonek;
position = "{96, 1}";
}
);
layerId = "3C02C8EC-C43C-4762-8B99-FE4CB64E6532";
paths = (
{
closed = 1;
nodes = (
"26 0 LINE",
"96 0 LINE",
"192 546 LINE",
"122 546 LINE"
);
},
{
closed = 1;
nodes = (
"176 649 CURVE SMOOTH",
"205 649 OFFCURVE",
"231 672 OFFCURVE",
"236 701 CURVE SMOOTH",
"241 729 OFFCURVE",
"223 752 OFFCURVE",
"194 752 CURVE SMOOTH",
"166 752 OFFCURVE",
"139 729 OFFCURVE",
"134 701 CURVE SMOOTH",
"129 672 OFFCURVE",
"148 649 OFFCURVE"
);
}
);
width = 227;
},
{
anchors = (
{
name = ogonek;
position = "{166, 0}";
}
);
layerId = "AD4288EF-621A-4539-AF14-1A70F42B46A9";
paths = (
{
closed = 1;
nodes = (
"25 0 LINE",
"196 0 LINE",
"294 558 LINE",
"123 558 LINE"
);
},
{
closed = 1;
nodes = (
"214 592 CURVE SMOOTH",
"270 592 OFFCURVE",
"322 636 OFFCURVE",
"332 692 CURVE SMOOTH",
"342 749 OFFCURVE",
"306 793 OFFCURVE",
"250 793 CURVE SMOOTH",
"194 793 OFFCURVE",
"142 749 OFFCURVE",
"132 692 CURVE SMOOTH",
"122 636 OFFCURVE",
"158 592 OFFCURVE"
);
}
);
width = 301;
}
);
unicode = 0069;
userData = {
public.markColor = "0.67,0.95,0.38,1";
};
},
{
color = 4;
glyphname = j;
lastChange = "2017-08-08 23:18:27 +0000";
layers = (
{
layerId = "C0ED9D5D-A651-429A-8F5D-D93A2EDA2DC0";
paths = (
{
closed = 1;
nodes = (
"111 649 CURVE SMOOTH",
"140 649 OFFCURVE",
"162 672 OFFCURVE",
"162 701 CURVE SMOOTH",
"162 729 OFFCURVE",
"140 752 OFFCURVE",
"111 752 CURVE SMOOTH",
"83 752 OFFCURVE",
"60 729 OFFCURVE",
"60 701 CURVE SMOOTH",
"60 672 OFFCURVE",
"83 649 OFFCURVE"
);
},
{
closed = 1;
nodes = (
"75 546 LINE",
"75 -128 LINE SMOOTH",
"75 -182 OFFCURVE",
"57 -202 OFFCURVE",
"2 -202 CURVE SMOOTH",
"-36 -202 LINE",
"-36 -258 LINE",
"17 -258 LINE SMOOTH",
"101 -258 OFFCURVE",
"145 -216 OFFCURVE",
"145 -128 CURVE SMOOTH",
"145 546 LINE"
);
}
);
width = 220;
},
{
layerId = "22D14058-393A-410A-BECB-F56B411A01B2";
paths = (
{
closed = 1;
nodes = (
"160 592 CURVE SMOOTH",
"216 592 OFFCURVE",
"260 636 OFFCURVE",
"260 692 CURVE SMOOTH",
"260 749 OFFCURVE",
"216 793 OFFCURVE",
"160 793 CURVE SMOOTH",
"104 793 OFFCURVE",
"60 749 OFFCURVE",
"60 692 CURVE SMOOTH",
"60 636 OFFCURVE",
"104 592 OFFCURVE"
);
},
{
closed = 1;
nodes = (
"75 558 LINE",
"75 -82 LINE SMOOTH",
"75 -108 OFFCURVE",
"61 -121 OFFCURVE",
"23 -121 CURVE SMOOTH",
"-18 -121 LINE",
"-18 -266 LINE",
"49 -266 LINE SMOOTH",
"165 -266 OFFCURVE",
"246 -224 OFFCURVE",
"246 -82 CURVE SMOOTH",
"246 558 LINE"
);
}
);
width = 321;
},
{
layerId = "3C02C8EC-C43C-4762-8B99-FE4CB64E6532";
paths = (
{
closed = 1;
nodes = (
"181.883 649 CURVE SMOOTH",
"210.883 649 OFFCURVE",
"236.939 672 OFFCURVE",
"242.052 701 CURVE SMOOTH",
"246.99 729 OFFCURVE",
"229.045 752 OFFCURVE",
"200.045 752 CURVE SMOOTH",
"172.045 752 OFFCURVE",
"144.99 729 OFFCURVE",
"140.052 701 CURVE SMOOTH",
"134.939 672 OFFCURVE",
"153.883 649 OFFCURVE"
);
},
{
closed = 1;
nodes = (
"127.722 546 LINE",
"8.877 -128 LINE SMOOTH",
"-0.644 -182 OFFCURVE",
"-22.171 -202 OFFCURVE",
"-77.171 -202 CURVE SMOOTH",
"-115.171 -202 LINE",
"-125.045 -258 LINE",
"-72.045 -258 LINE SMOOTH",
"11.955 -258 OFFCURVE",
"63.361 -216 OFFCURVE",
"78.877 -128 CURVE SMOOTH",
"197.722 546 LINE"
);
}
);
width = 220;
},
{
layerId = "AD4288EF-621A-4539-AF14-1A70F42B46A9";
paths = (
{
closed = 1;
nodes = (
"214 592 CURVE SMOOTH",
"270 592 OFFCURVE",
"322 636 OFFCURVE",
"332 692 CURVE SMOOTH",
"342 749 OFFCURVE",
"305 793 OFFCURVE",
"249 793 CURVE SMOOTH",
"193 793 OFFCURVE",
"142 749 OFFCURVE",
"132 692 CURVE SMOOTH",
"122 636 OFFCURVE",
"158 592 OFFCURVE"
);
},
{
closed = 1;
nodes = (
"123 558 LINE",
"10 -82 LINE SMOOTH",
"5 -108 OFFCURVE",
"-11 -121 OFFCURVE",
"-49 -121 CURVE SMOOTH",
"-90 -121 LINE",
"-115 -266 LINE",
"-48 -266 LINE SMOOTH",
"68 -266 OFFCURVE",
"156 -224 OFFCURVE",
"181 -82 CURVE SMOOTH",
"294 558 LINE"
);
}
);
width = 300.63117;
}
);
unicode = 006A;
userData = {
public.markColor = "0.67,0.95,0.38,1";
};
},
{
color = 4;
glyphname = k;
lastChange = "2017-08-08 23:18:27 +0000";
layers = (
{
anchors = (
{
name = bottom;
position = "{238, 0}";
}
);
layerId = "C0ED9D5D-A651-429A-8F5D-D93A2EDA2DC0";
paths = (
{
closed = 1;
nodes = (
"75 0 LINE",
"145 0 LINE",
"145 740 LINE",
"75 740 LINE"
);
},
{
closed = 1;
nodes = (
"119 273 LINE",
"370 0 LINE",
"466 0 LINE",
"187 291 LINE",
"180 255 LINE",
"466 546 LINE",
"365 546 LINE"
);
}
);
width = 476;
},
{
anchors = (
{
name = bottom;
position = "{327, 0}";
}
);
layerId = "22D14058-393A-410A-BECB-F56B411A01B2";
paths = (
{
closed = 1;
nodes = (
"75 0 LINE",
"246 0 LINE",
"246 740 LINE",
"75 740 LINE"
);
},
{
closed = 1;
nodes = (
"207 273 LINE",
"422 0 LINE",
"649 0 LINE",
"401 284 LINE",
"394 254 LINE",
"649 558 LINE",
"419 558 LINE"
);
}
);
width = 653;
},
{
anchors = (
{
name = bottom;
position = "{189, 0}";
}
);
layerId = "3C02C8EC-C43C-4762-8B99-FE4CB64E6532";
paths = (
{
closed = 1;
nodes = (
"26 0 LINE",
"96 0 LINE",
"226 740 LINE",
"156 740 LINE"
);
},
{
closed = 1;
nodes = (
"128 293 LINE",
"321 0 LINE",
"407 0 LINE",
"199 311 LINE",
"196 275 LINE",
"498 546 LINE",
"402 546 LINE"
);
}
);
width = 452;
},
{
anchors = (
{
name = bottom;
position = "{277, 0}";
}
);
layerId = "AD4288EF-621A-4539-AF14-1A70F42B46A9";
paths = (
{
closed = 1;
nodes = (
"25 0 LINE",
"196 0 LINE",
"326 740 LINE",
"155 740 LINE"
);
},
{
closed = 1;
nodes = (
"205 286 LINE",
"382 0 LINE",
"590 0 LINE",
"395 297 LINE",
"383 267 LINE",
"692 558 LINE",
"467 558 LINE"
);
}
);
width = 648;
}
);
unicode = 006B;
userData = {
public.markColor = "0.67,0.95,0.38,1";
};
},
{
color = 4;
glyphname = l;
lastChange = "2017-08-08 23:18:27 +0000";
layers = (
{
anchors = (
{
name = bottom;
position = "{110, 0}";
},
{
name = commaaccent;
position = "{110, 10}";
},
{
name = top;
position = "{110, 740}";
},
{
name = topright;
position = "{200, 546}";
}
);
layerId = "C0ED9D5D-A651-429A-8F5D-D93A2EDA2DC0";
paths = (
{
closed = 1;
nodes = (
"75 0 LINE",
"145 0 LINE",
"145 740 LINE",
"75 740 LINE"
);
}
);
width = 220;
},
{
anchors = (
{
name = bottom;
position = "{161, 0}";
},
{
name = commaaccent;
position = "{161, 10}";
},
{
name = top;
position = "{161, 740}";
},
{
name = topright;
position = "{301, 558}";
}
);
layerId = "22D14058-393A-410A-BECB-F56B411A01B2";
paths = (
{
closed = 1;
nodes = (
"75 0 LINE",
"246 0 LINE",
"246 740 LINE",
"75 740 LINE"
);
}
);
width = 321;
},
{
anchors = (
{
name = bottom;
position = "{61, 0}";
},
{
name = commaaccent;
position = "{63, 10}";
},
{
name = top;
position = "{191, 740}";
},
{
name = topright;
position = "{247, 546}";
}
);
layerId = "3C02C8EC-C43C-4762-8B99-FE4CB64E6532";
paths = (
{
closed = 1;
nodes = (
"26 0 LINE",
"96 0 LINE",
"226 740 LINE",
"156 740 LINE"
);
}
);
width = 236;
},
{
anchors = (
{
name = bottom;
position = "{111, 0}";
},
{
name = commaaccent;
position = "{113, 10}";
},
{
name = top;
position = "{241, 740}";
},
{
name = topright;
position = "{349, 558}";
}
);
layerId = "AD4288EF-621A-4539-AF14-1A70F42B46A9";
paths = (
{
closed = 1;
nodes = (
"25 0 LINE",
"196 0 LINE",
"326 740 LINE",
"155 740 LINE"
);
}
);
width = 296;
}
);
unicode = 006C;
userData = {
public.markColor = "0.67,0.95,0.38,1";
};
},
{
color = 4;
glyphname = m;
lastChange = "2017-08-08 23:18:27 +0000";
layers = (
{
layerId = "C0ED9D5D-A651-429A-8F5D-D93A2EDA2DC0";
paths = (
{
closed = 1;
nodes = (
"75 0 LINE",
"145 0 LINE",
"145 546 LINE",
"75 546 LINE"
);
},
{
closed = 1;
nodes = (
"470 0 LINE",
"539 0 LINE",
"539 325 LINE SMOOTH",
"539 482 OFFCURVE",
"439 556 OFFCURVE",
"326 556 CURVE SMOOTH",
"225 556 OFFCURVE",
"137 499 OFFCURVE",
"117 374 CURVE",
"145 312 LINE",
"145 435 OFFCURVE",
"210 496 OFFCURVE",
"308 496 CURVE SMOOTH",
"406 496 OFFCURVE",
"470 435 OFFCURVE",
"470 312 CURVE SMOOTH"
);
},
{
closed = 1;
nodes = (
"864 0 LINE",
"933 0 LINE",
"933 325 LINE SMOOTH",
"933 482 OFFCURVE",
"833 556 OFFCURVE",
"720 556 CURVE SMOOTH",
"609 556 OFFCURVE",
"524 489 OFFCURVE",
"498 374 CURVE",
"539 312 LINE",
"539 435 OFFCURVE",
"604 496 OFFCURVE",
"702 496 CURVE SMOOTH",
"800 496 OFFCURVE",
"864 435 OFFCURVE",
"864 312 CURVE SMOOTH"
);
}
);
width = 1003;
},
{
layerId = "22D14058-393A-410A-BECB-F56B411A01B2";
paths = (
{
closed = 1;
nodes = (
"75 0 LINE",
"246 0 LINE",
"246 558 LINE",
"75 558 LINE"
);
},
{
closed = 1;
nodes = (
"460 0 LINE",
"630 0 LINE",
"630 326 LINE SMOOTH",
"630 476 OFFCURVE",
"540 564 OFFCURVE",
"415 564 CURVE SMOOTH",
"318 564 OFFCURVE",
"250 510 OFFCURVE",
"227 432 CURVE",
"246 303 LINE",
"246 376 OFFCURVE",
"288 416 OFFCURVE",
"353 416 CURVE SMOOTH",
"418 416 OFFCURVE",
"460 376 OFFCURVE",
"460 303 CURVE SMOOTH"
);
},
{
closed = 1;
nodes = (
"844 0 LINE",
"1014 0 LINE",
"1014 326 LINE SMOOTH",
"1014 476 OFFCURVE",
"927 564 OFFCURVE",
"792 564 CURVE SMOOTH",
"687 564 OFFCURVE",
"609 494 OFFCURVE",
"579 409 CURVE",
"630 303 LINE",
"630 376 OFFCURVE",
"672 416 OFFCURVE",
"737 416 CURVE SMOOTH",
"802 416 OFFCURVE",
"844 376 OFFCURVE",
"844 303 CURVE SMOOTH"
);
}
);
width = 1084;
},
{
layerId = "3C02C8EC-C43C-4762-8B99-FE4CB64E6532";
paths = (
{
closed = 1;
nodes = (
"26 0 LINE",
"96 0 LINE",
"192 546 LINE",
"122 546 LINE"
);
},
{
closed = 1;
nodes = (
"421 0 LINE",
"490 0 LINE",
"547 325 LINE SMOOTH",
"575 482 OFFCURVE",
"488 556 OFFCURVE",
"375 556 CURVE SMOOTH",
"274 556 OFFCURVE",
"176 499 OFFCURVE",
"134 374 CURVE",
"151 312 LINE",
"173 435 OFFCURVE",
"248 496 OFFCURVE",
"346 496 CURVE SMOOTH",
"444 496 OFFCURVE",
"498 435 OFFCURVE",
"476 312 CURVE SMOOTH"
);
},
{
closed = 1;
nodes = (
"815 0 LINE",
"884 0 LINE",
"941 325 LINE SMOOTH",
"969 482 OFFCURVE",
"882 556 OFFCURVE",
"769 556 CURVE SMOOTH",
"658 556 OFFCURVE",
"561 489 OFFCURVE",
"515 374 CURVE",
"545 312 LINE",
"567 435 OFFCURVE",
"642 496 OFFCURVE",
"740 496 CURVE SMOOTH",
"838 496 OFFCURVE",
"892 435 OFFCURVE",
"870 312 CURVE SMOOTH"
);
}
);
width = 1006;
},
{
layerId = "AD4288EF-621A-4539-AF14-1A70F42B46A9";
paths = (
{
closed = 1;
nodes = (
"25 0 LINE",
"196 0 LINE",
"294 558 LINE",
"123 558 LINE"
);
},
{
closed = 1;
nodes = (
"410 0 LINE",
"580 0 LINE",
"637 326 LINE SMOOTH",
"664 476 OFFCURVE",
"589 564 OFFCURVE",
"464 564 CURVE SMOOTH",
"367 564 OFFCURVE",
"290 510 OFFCURVE",
"253 432 CURVE",
"249 303 LINE",
"262 376 OFFCURVE",
"311 416 OFFCURVE",
"376 416 CURVE SMOOTH",
"441 416 OFFCURVE",
"476 376 OFFCURVE",
"463 303 CURVE SMOOTH"
);
},
{
closed = 1;
nodes = (
"794 0 LINE",
"964 0 LINE",
"1021 326 LINE SMOOTH",
"1048 476 OFFCURVE",
"976 564 OFFCURVE",
"841 564 CURVE SMOOTH",
"736 564 OFFCURVE",
"646 494 OFFCURVE",
"601 409 CURVE",
"633 303 LINE",
"646 376 OFFCURVE",
"695 416 OFFCURVE",
"760 416 CURVE SMOOTH",
"825 416 OFFCURVE",
"860 376 OFFCURVE",
"847 303 CURVE SMOOTH"
);
}
);
width = 1065;
}
);
unicode = 006D;
userData = {
public.markColor = "0.67,0.95,0.38,1";
};
},
